%TF.GenerationSoftware,KiCad,Pcbnew,6.0.2+dfsg-1*%
%TF.CreationDate,2022-05-09T23:13:55-04:00*%
%TF.ProjectId,Cheapsk8_LAN,43686561-7073-46b3-985f-4c414e2e6b69,1*%
%TF.SameCoordinates,Original*%
%TF.FileFunction,Copper,L2,Bot*%
%TF.FilePolarity,Positive*%
%FSLAX46Y46*%
G04 Gerber Fmt 4.6, Leading zero omitted, Abs format (unit mm)*
G04 Created by KiCad (PCBNEW 6.0.2+dfsg-1) date 2022-05-09 23:13:55*
%MOMM*%
%LPD*%
G01*
G04 APERTURE LIST*
%TA.AperFunction,ComponentPad*%
%ADD10C,1.500000*%
%TD*%
%TA.AperFunction,ConnectorPad*%
%ADD11R,1.780000X7.620000*%
%TD*%
%TA.AperFunction,ComponentPad*%
%ADD12R,1.600000X1.600000*%
%TD*%
%TA.AperFunction,ComponentPad*%
%ADD13C,1.600000*%
%TD*%
%TA.AperFunction,ComponentPad*%
%ADD14O,1.600000X1.600000*%
%TD*%
%TA.AperFunction,ComponentPad*%
%ADD15R,1.478000X1.478000*%
%TD*%
%TA.AperFunction,ComponentPad*%
%ADD16C,1.478000*%
%TD*%
%TA.AperFunction,ComponentPad*%
%ADD17C,1.650000*%
%TD*%
%TA.AperFunction,ComponentPad*%
%ADD18C,2.475000*%
%TD*%
%TA.AperFunction,ViaPad*%
%ADD19C,0.800000*%
%TD*%
%TA.AperFunction,Conductor*%
%ADD20C,0.250000*%
%TD*%
%TA.AperFunction,Conductor*%
%ADD21C,1.750000*%
%TD*%
G04 APERTURE END LIST*
D10*
%TO.P,Y1,1,1*%
%TO.N,Net-(U1-Pad50)*%
X153005000Y-92747000D03*
%TO.P,Y1,2,2*%
%TO.N,Net-(U1-Pad51)*%
X153005000Y-97573000D03*
%TD*%
D11*
%TO.P,J2,1,GND*%
%TO.N,GND*%
X182753000Y-137160000D03*
%TO.P,J2,2,RESET*%
%TO.N,Net-(U1-Pad33)*%
X180213000Y-137160000D03*
%TO.P,J2,3,VCC*%
%TO.N,VCC*%
X177673000Y-137160000D03*
%TO.P,J2,4,IRQ2*%
%TO.N,Net-(U1-Pad4)*%
X175133000Y-137160000D03*
%TO.P,J2,5,-5V*%
%TO.N,unconnected-(J2-Pad5)*%
X172593000Y-137160000D03*
%TO.P,J2,6,DRQ2*%
%TO.N,unconnected-(J2-Pad6)*%
X170053000Y-137160000D03*
%TO.P,J2,7,-12V*%
%TO.N,unconnected-(J2-Pad7)*%
X167513000Y-137160000D03*
%TO.P,J2,8,UNUSED*%
%TO.N,unconnected-(J2-Pad8)*%
X164973000Y-137160000D03*
%TO.P,J2,9,+12V*%
%TO.N,unconnected-(J2-Pad9)*%
X162433000Y-137160000D03*
%TO.P,J2,10,GND*%
%TO.N,GND*%
X159893000Y-137160000D03*
%TO.P,J2,11,~{SMEMW}*%
%TO.N,Net-(U1-Pad32)*%
X157353000Y-137160000D03*
%TO.P,J2,12,~{SMEMR}*%
%TO.N,Net-(U1-Pad31)*%
X154813000Y-137160000D03*
%TO.P,J2,13,~{IOW}*%
%TO.N,Net-(U1-Pad30)*%
X152273000Y-137160000D03*
%TO.P,J2,14,~{IOR}*%
%TO.N,Net-(U1-Pad29)*%
X149733000Y-137160000D03*
%TO.P,J2,15,~{DACK3}*%
%TO.N,unconnected-(J2-Pad15)*%
X147193000Y-137160000D03*
%TO.P,J2,16,DRQ3*%
%TO.N,unconnected-(J2-Pad16)*%
X144653000Y-137160000D03*
%TO.P,J2,17,~{DACK1}*%
%TO.N,unconnected-(J2-Pad17)*%
X142113000Y-137160000D03*
%TO.P,J2,18,DRQ1*%
%TO.N,unconnected-(J2-Pad18)*%
X139573000Y-137160000D03*
%TO.P,J2,19,~{DACK0}*%
%TO.N,unconnected-(J2-Pad19)*%
X137033000Y-137160000D03*
%TO.P,J2,20,CLK*%
%TO.N,unconnected-(J2-Pad20)*%
X134493000Y-137160000D03*
%TO.P,J2,21,IRQ7*%
%TO.N,unconnected-(J2-Pad21)*%
X131953000Y-137160000D03*
%TO.P,J2,22,IRQ6*%
%TO.N,unconnected-(J2-Pad22)*%
X129413000Y-137160000D03*
%TO.P,J2,23,IRQ5*%
%TO.N,Net-(U1-Pad1)*%
X126873000Y-137160000D03*
%TO.P,J2,24,IRQ4*%
%TO.N,Net-(U1-Pad2)*%
X124333000Y-137160000D03*
%TO.P,J2,25,IRQ3*%
%TO.N,Net-(U1-Pad3)*%
X121793000Y-137160000D03*
%TO.P,J2,26,~{DACK2}*%
%TO.N,unconnected-(J2-Pad26)*%
X119253000Y-137160000D03*
%TO.P,J2,27,TC*%
%TO.N,unconnected-(J2-Pad27)*%
X116713000Y-137160000D03*
%TO.P,J2,28,ALE*%
%TO.N,unconnected-(J2-Pad28)*%
X114173000Y-137160000D03*
%TO.P,J2,29,VCC*%
%TO.N,VCC*%
X111633000Y-137160000D03*
%TO.P,J2,30,OSC*%
%TO.N,unconnected-(J2-Pad30)*%
X109093000Y-137160000D03*
%TO.P,J2,31,GND*%
%TO.N,GND*%
X106553000Y-137160000D03*
%TD*%
D12*
%TO.P,C6,1*%
%TO.N,VCC*%
X178876888Y-119888000D03*
D13*
%TO.P,C6,2*%
%TO.N,GND*%
X180876888Y-119888000D03*
%TD*%
D12*
%TO.P,C7,1*%
%TO.N,VCC*%
X111699113Y-117856000D03*
D13*
%TO.P,C7,2*%
%TO.N,GND*%
X109699113Y-117856000D03*
%TD*%
D12*
%TO.P,U2,1,A18*%
%TO.N,Net-(U1-Pad69)*%
X63246000Y-103002000D03*
D14*
%TO.P,U2,2,A16*%
%TO.N,Net-(U1-Pad72)*%
X65786000Y-103002000D03*
%TO.P,U2,3,A15*%
%TO.N,Net-(U1-Pad73)*%
X68326000Y-103002000D03*
%TO.P,U2,4,A12*%
%TO.N,Net-(U1-Pad20)*%
X70866000Y-103002000D03*
%TO.P,U2,5,A7*%
%TO.N,Net-(U1-Pad13)*%
X73406000Y-103002000D03*
%TO.P,U2,6,A6*%
%TO.N,Net-(U1-Pad12)*%
X75946000Y-103002000D03*
%TO.P,U2,7,A5*%
%TO.N,Net-(U1-Pad11)*%
X78486000Y-103002000D03*
%TO.P,U2,8,A4*%
%TO.N,Net-(U1-Pad10)*%
X81026000Y-103002000D03*
%TO.P,U2,9,A3*%
%TO.N,Net-(U1-Pad9)*%
X83566000Y-103002000D03*
%TO.P,U2,10,A2*%
%TO.N,Net-(U1-Pad8)*%
X86106000Y-103002000D03*
%TO.P,U2,11,A1*%
%TO.N,Net-(U1-Pad7)*%
X88646000Y-103002000D03*
%TO.P,U2,12,A0*%
%TO.N,Net-(U1-Pad5)*%
X91186000Y-103002000D03*
%TO.P,U2,13,D0*%
%TO.N,Net-(U1-Pad85)*%
X93726000Y-103002000D03*
%TO.P,U2,14,D1*%
%TO.N,Net-(U1-Pad84)*%
X96266000Y-103002000D03*
%TO.P,U2,15,D2*%
%TO.N,Net-(U1-Pad82)*%
X98806000Y-103002000D03*
%TO.P,U2,16,GND*%
%TO.N,GND*%
X101346000Y-103002000D03*
%TO.P,U2,17,D3*%
%TO.N,Net-(U1-Pad81)*%
X101346000Y-87762000D03*
%TO.P,U2,18,D4*%
%TO.N,Net-(U1-Pad80)*%
X98806000Y-87762000D03*
%TO.P,U2,19,D5*%
%TO.N,Net-(U1-Pad79)*%
X96266000Y-87762000D03*
%TO.P,U2,20,D6*%
%TO.N,Net-(U1-Pad78)*%
X93726000Y-87762000D03*
%TO.P,U2,21,D7*%
%TO.N,Net-(U1-Pad77)*%
X91186000Y-87762000D03*
%TO.P,U2,22,CE*%
%TO.N,Net-(U1-Pad75)*%
X88646000Y-87762000D03*
%TO.P,U2,23,A10*%
%TO.N,Net-(U1-Pad18)*%
X86106000Y-87762000D03*
%TO.P,U2,24,OE*%
%TO.N,Net-(U1-Pad31)*%
X83566000Y-87762000D03*
%TO.P,U2,25,A11*%
%TO.N,Net-(U1-Pad19)*%
X81026000Y-87762000D03*
%TO.P,U2,26,A9*%
%TO.N,Net-(U1-Pad16)*%
X78486000Y-87762000D03*
%TO.P,U2,27,A8*%
%TO.N,Net-(U1-Pad15)*%
X75946000Y-87762000D03*
%TO.P,U2,28,A13*%
%TO.N,Net-(U1-Pad21)*%
X73406000Y-87762000D03*
%TO.P,U2,29,A14*%
%TO.N,Net-(U1-Pad74)*%
X70866000Y-87762000D03*
%TO.P,U2,30,A17*%
%TO.N,Net-(U1-Pad71)*%
X68326000Y-87762000D03*
%TO.P,U2,31,PGM*%
%TO.N,Net-(U1-Pad32)*%
X65786000Y-87762000D03*
%TO.P,U2,32,VCC*%
%TO.N,VCC*%
X63246000Y-87762000D03*
%TD*%
D15*
%TO.P,J3,1,P1*%
%TO.N,Net-(U1-Pad45)*%
X191643000Y-94107000D03*
D16*
%TO.P,J3,2,P2*%
%TO.N,Net-(C8-Pad1)*%
X194183000Y-95377000D03*
%TO.P,J3,3,P3*%
%TO.N,Net-(U1-Pad46)*%
X191643000Y-96647000D03*
%TO.P,J3,4,P4*%
%TO.N,Net-(U1-Pad59)*%
X194183000Y-97917000D03*
%TO.P,J3,5,P5*%
%TO.N,Net-(C9-Pad1)*%
X191643000Y-99187000D03*
%TO.P,J3,6,P6*%
%TO.N,Net-(U1-Pad58)*%
X194183000Y-100457000D03*
%TO.P,J3,7,P7*%
%TO.N,unconnected-(J3-Pad7)*%
X191643000Y-101727000D03*
%TO.P,J3,8,P8*%
%TO.N,GND*%
X194183000Y-102997000D03*
D17*
%TO.P,J3,9*%
%TO.N,VCC*%
X186813000Y-104017000D03*
%TO.P,J3,10*%
%TO.N,Net-(J3-Pad10)*%
X186813000Y-101477000D03*
%TO.P,J3,11*%
%TO.N,VCC*%
X186813000Y-95627000D03*
%TO.P,J3,12*%
%TO.N,Net-(J3-Pad12)*%
X186813000Y-93087000D03*
D18*
%TO.P,J3,S1,SHIELD*%
%TO.N,GND*%
X197483000Y-106297000D03*
%TO.P,J3,S2,SHIELD*%
X197483000Y-90807000D03*
%TD*%
D19*
%TO.N,Net-(U1-Pad69)*%
X108559600Y-97840800D03*
X132638800Y-97688400D03*
%TO.N,Net-(U1-Pad72)*%
X128295400Y-82092800D03*
X135991600Y-85394800D03*
X130497500Y-91567000D03*
%TO.N,Net-(U1-Pad71)*%
X105562400Y-95656400D03*
X123215400Y-90322400D03*
%TO.N,GND*%
X126619000Y-81153000D03*
X63881000Y-81788000D03*
X141427200Y-116535200D03*
X168910000Y-125577600D03*
X144386900Y-108559600D03*
X145415000Y-100330000D03*
X168910000Y-130606800D03*
X120269000Y-108020500D03*
X139242800Y-114147600D03*
X100203000Y-105537000D03*
X177292000Y-108585000D03*
X142240000Y-92202000D03*
X134570508Y-113791130D03*
%TO.N,Net-(U1-Pad62)*%
X180492400Y-91490800D03*
X142951200Y-81635600D03*
%TO.N,Net-(U1-Pad61)*%
X179171600Y-101346000D03*
X143713200Y-82600800D03*
%TO.N,Net-(U1-Pad50)*%
X147574000Y-95250000D03*
X150622000Y-99822000D03*
%TO.N,Net-(U1-Pad76)*%
X127996500Y-99441000D03*
X124968000Y-99441000D03*
%TO.N,VCC*%
X131826000Y-86068500D03*
X144399000Y-89154000D03*
X188849000Y-95631000D03*
X144399000Y-86614000D03*
X113284000Y-125341810D03*
X195707000Y-99187000D03*
X125857000Y-86106000D03*
%TO.N,Net-(U1-Pad73)*%
X139293600Y-83642200D03*
X134645400Y-89103200D03*
X129671842Y-91098125D03*
X133146800Y-86283800D03*
X139217400Y-85420200D03*
%TO.N,Net-(U1-Pad20)*%
X103378000Y-123698000D03*
X136296400Y-131064000D03*
X103327200Y-115163600D03*
X116281200Y-123698000D03*
%TO.N,Net-(U1-Pad13)*%
X112776000Y-100457000D03*
X134112000Y-112903000D03*
%TO.N,Net-(U1-Pad12)*%
X113538000Y-101854000D03*
X132842000Y-112776000D03*
%TO.N,Net-(U1-Pad11)*%
X107823000Y-114008500D03*
X131953000Y-113792000D03*
%TO.N,Net-(U1-Pad10)*%
X106934000Y-113284000D03*
X131246500Y-113056040D03*
%TO.N,Net-(U1-Pad9)*%
X106299000Y-112141000D03*
X130596500Y-112268000D03*
%TO.N,Net-(U1-Pad8)*%
X129921000Y-111379000D03*
X105029000Y-111379000D03*
%TO.N,Net-(U1-Pad7)*%
X129159000Y-110617000D03*
X103759000Y-110617000D03*
%TO.N,Net-(U1-Pad5)*%
X127254000Y-109855000D03*
X102489000Y-108745000D03*
%TO.N,Net-(U1-Pad75)*%
X128651000Y-97028000D03*
X90678000Y-89535000D03*
%TO.N,Net-(U1-Pad18)*%
X137033000Y-113030000D03*
%TO.N,Net-(U1-Pad31)*%
X118465600Y-103174800D03*
X154686000Y-129921000D03*
X139573000Y-110236000D03*
%TO.N,Net-(U1-Pad19)*%
X137795000Y-112014000D03*
%TO.N,Net-(U1-Pad16)*%
X135146500Y-115620800D03*
%TO.N,Net-(U1-Pad15)*%
X135165500Y-114604800D03*
%TO.N,Net-(U1-Pad21)*%
X126542800Y-108661200D03*
X106222800Y-108745000D03*
X99771200Y-109309500D03*
%TO.N,Net-(U1-Pad74)*%
X123393200Y-91490800D03*
X104140000Y-94792800D03*
%TO.N,Net-(U1-Pad32)*%
X145542000Y-103378000D03*
X157226000Y-129921000D03*
%TO.N,Net-(U1-Pad33)*%
X180213000Y-130302000D03*
%TO.N,Net-(U1-Pad4)*%
X127635000Y-122301000D03*
%TO.N,Net-(U1-Pad30)*%
X152400000Y-128778000D03*
%TO.N,Net-(U1-Pad29)*%
X149860000Y-127381000D03*
%TO.N,Net-(U1-Pad1)*%
X125222000Y-122174000D03*
%TO.N,Net-(U1-Pad2)*%
X125916201Y-123892799D03*
%TO.N,Net-(U1-Pad3)*%
X126746000Y-121539000D03*
%TO.N,Net-(U1-Pad41)*%
X172715701Y-123829299D03*
X172720000Y-121412000D03*
%TO.N,Net-(U1-Pad40)*%
X171323000Y-122682000D03*
X171323000Y-120015000D03*
%TO.N,Net-(U1-Pad39)*%
X169545000Y-115443000D03*
X169418000Y-120777000D03*
%TO.N,Net-(U1-Pad38)*%
X167767000Y-115062000D03*
X167767000Y-118999000D03*
%TO.N,Net-(U1-Pad37)*%
X164846000Y-114681000D03*
X164846000Y-117094000D03*
%TO.N,Net-(U1-Pad36)*%
X162052000Y-113919000D03*
X162052000Y-116967000D03*
%TO.N,Net-(U1-Pad35)*%
X159639000Y-116840000D03*
X159639000Y-113919000D03*
%TO.N,Net-(U1-Pad34)*%
X157861000Y-116713000D03*
X157861000Y-115021500D03*
%TO.N,Net-(C8-Pad1)*%
X180721000Y-97155000D03*
%TO.N,Net-(U1-Pad46)*%
X171704000Y-107315000D03*
X167894000Y-107221500D03*
%TD*%
D20*
%TO.N,Net-(U1-Pad69)*%
X108559600Y-97840800D02*
X132486400Y-97840800D01*
X132486400Y-97840800D02*
X132638800Y-97688400D01*
%TO.N,Net-(U1-Pad72)*%
X66979800Y-82092800D02*
X61188600Y-87884000D01*
X130497500Y-91567000D02*
X130497500Y-90888900D01*
X130497500Y-90888900D02*
X135991600Y-85394800D01*
X61188600Y-87884000D02*
X65786000Y-92481400D01*
X128295400Y-82092800D02*
X66979800Y-82092800D01*
X65786000Y-92481400D02*
X65786000Y-103002000D01*
%TO.N,Net-(U1-Pad71)*%
X120181504Y-95656400D02*
X124067711Y-91770193D01*
X124067711Y-91174711D02*
X123215400Y-90322400D01*
X105562400Y-95656400D02*
X120181504Y-95656400D01*
X124067711Y-91770193D02*
X124067711Y-91174711D01*
%TO.N,GND*%
X159893000Y-137160000D02*
X159893000Y-134240000D01*
D21*
X195580000Y-77343000D02*
X195453000Y-77216000D01*
X63500000Y-77216000D02*
X56134000Y-77216000D01*
D20*
X101346000Y-107950000D02*
X101346000Y-109502887D01*
X177292000Y-108585000D02*
X180301900Y-111594900D01*
X194183000Y-102997000D02*
X197483000Y-106297000D01*
X194183000Y-102997000D02*
X197104000Y-102997000D01*
D21*
X183892000Y-119888000D02*
X185989500Y-117790500D01*
D20*
X163526200Y-130606800D02*
X168910000Y-130606800D01*
X171921304Y-125577600D02*
X175361600Y-122137304D01*
X100203000Y-105537000D02*
X100584000Y-105918000D01*
X142240000Y-97155000D02*
X142240000Y-92202000D01*
D21*
X106680000Y-130556000D02*
X106553000Y-130683000D01*
X106807000Y-117856000D02*
X109699113Y-117856000D01*
X185989500Y-117790500D02*
X197483000Y-106297000D01*
X197483000Y-106297000D02*
X197483000Y-102618000D01*
X195453000Y-77216000D02*
X141986000Y-77216000D01*
D20*
X63881000Y-81788000D02*
X63881000Y-77597000D01*
D21*
X106527600Y-130454400D02*
X106680000Y-130302000D01*
D20*
X185989500Y-117282500D02*
X185989500Y-117790500D01*
X63881000Y-77597000D02*
X63500000Y-77216000D01*
D21*
X106553000Y-118110000D02*
X106807000Y-117856000D01*
D20*
X168910000Y-125577600D02*
X171921304Y-125577600D01*
D21*
X106553000Y-130683000D02*
X106553000Y-133495480D01*
X106680000Y-118237000D02*
X106553000Y-118110000D01*
X182880000Y-120015000D02*
X182880000Y-133495480D01*
D20*
X138886330Y-113791130D02*
X139242800Y-114147600D01*
D21*
X197483000Y-90807000D02*
X195453000Y-88777000D01*
X197483000Y-102618000D02*
X197483000Y-90807000D01*
D20*
X180301900Y-111594900D02*
X185989500Y-117282500D01*
D21*
X56134000Y-77216000D02*
X56134000Y-130200400D01*
D20*
X134570508Y-113791130D02*
X138886330Y-113791130D01*
X101416500Y-108020500D02*
X101346000Y-107950000D01*
X142240000Y-92202000D02*
X142240000Y-77470000D01*
D21*
X56388000Y-130454400D02*
X106527600Y-130454400D01*
X56134000Y-130200400D02*
X56388000Y-130454400D01*
X195453000Y-88777000D02*
X195453000Y-77470000D01*
X182753000Y-119888000D02*
X180876888Y-119888000D01*
D20*
X145415000Y-100330000D02*
X142240000Y-97155000D01*
X101346000Y-109502887D02*
X109699113Y-117856000D01*
X126619000Y-81153000D02*
X126619000Y-77216000D01*
X159893000Y-134240000D02*
X163526200Y-130606800D01*
D21*
X126619000Y-77216000D02*
X63500000Y-77216000D01*
X182753000Y-119888000D02*
X183892000Y-119888000D01*
X141986000Y-77216000D02*
X126619000Y-77216000D01*
X182880000Y-133495480D02*
X182753000Y-133495480D01*
D20*
X101346000Y-105918000D02*
X101346000Y-107950000D01*
X120269000Y-108020500D02*
X101416500Y-108020500D01*
X144386900Y-113575500D02*
X144386900Y-108559600D01*
D21*
X106680000Y-124333000D02*
X106680000Y-118237000D01*
D20*
X175361600Y-116535200D02*
X180301900Y-111594900D01*
X142240000Y-77470000D02*
X141986000Y-77216000D01*
X175361600Y-122137304D02*
X175361600Y-116535200D01*
X197104000Y-102997000D02*
X197483000Y-102618000D01*
D21*
X106680000Y-130302000D02*
X106680000Y-124333000D01*
X106680000Y-124333000D02*
X106680000Y-130556000D01*
D20*
X141427200Y-116535200D02*
X144386900Y-113575500D01*
X101346000Y-103002000D02*
X101346000Y-105918000D01*
D21*
X182753000Y-119888000D02*
X182880000Y-120015000D01*
D20*
X100584000Y-105918000D02*
X101346000Y-105918000D01*
D21*
X195453000Y-77470000D02*
X195580000Y-77343000D01*
D20*
%TO.N,Net-(U1-Pad62)*%
X178568206Y-81635600D02*
X180492400Y-83559794D01*
X142951200Y-81635600D02*
X178568206Y-81635600D01*
X180492400Y-83559794D02*
X180492400Y-91490800D01*
%TO.N,Net-(U1-Pad61)*%
X179171600Y-82804000D02*
X179171600Y-101346000D01*
X143713200Y-82600800D02*
X178968400Y-82600800D01*
X178968400Y-82600800D02*
X179171600Y-82804000D01*
%TO.N,Net-(U1-Pad50)*%
X147574000Y-95250000D02*
X150622000Y-98298000D01*
X150622000Y-98298000D02*
X150622000Y-99822000D01*
%TO.N,Net-(U1-Pad76)*%
X124968000Y-99441000D02*
X127996500Y-99441000D01*
%TO.N,VCC*%
X188849000Y-95631000D02*
X188849000Y-94773978D01*
X188849000Y-94773978D02*
X190785978Y-92837000D01*
X113284000Y-125341810D02*
X112641810Y-125341810D01*
X112641810Y-125341810D02*
X111760000Y-124460000D01*
D21*
X178876888Y-119888000D02*
X177800000Y-120964888D01*
D20*
X190785978Y-92837000D02*
X195580000Y-92837000D01*
X131826000Y-86068500D02*
X131788500Y-86106000D01*
X195707000Y-92964000D02*
X195707000Y-99187000D01*
D21*
X111760000Y-130556000D02*
X111760000Y-124460000D01*
X177800000Y-120964888D02*
X177800000Y-133495480D01*
X111633000Y-130683000D02*
X111633000Y-133495480D01*
X111760000Y-124460000D02*
X111760000Y-117916887D01*
X111760000Y-130556000D02*
X111633000Y-130683000D01*
D20*
X195580000Y-92837000D02*
X195707000Y-92964000D01*
X131788500Y-86106000D02*
X125857000Y-86106000D01*
D21*
X177800000Y-133495480D02*
X177673000Y-133495480D01*
D20*
X144399000Y-89154000D02*
X144399000Y-86614000D01*
X111760000Y-117916887D02*
X111699113Y-117856000D01*
%TO.N,Net-(U1-Pad73)*%
X68326000Y-93446600D02*
X68326000Y-103002000D01*
X64668400Y-89789000D02*
X68326000Y-93446600D01*
X64668400Y-87360011D02*
X64668400Y-89789000D01*
X129671842Y-89758758D02*
X133146800Y-86283800D01*
X139293600Y-83642200D02*
X68386211Y-83642200D01*
X68386211Y-83642200D02*
X64668400Y-87360011D01*
X135534400Y-89103200D02*
X139217400Y-85420200D01*
X129671842Y-91098125D02*
X129671842Y-89758758D01*
X134645400Y-89103200D02*
X135534400Y-89103200D01*
%TO.N,Net-(U1-Pad20)*%
X119532400Y-120446800D02*
X116281200Y-123698000D01*
X103378000Y-115214400D02*
X103327200Y-115163600D01*
X136296400Y-131064000D02*
X128422400Y-123190000D01*
X128422400Y-120446800D02*
X119532400Y-120446800D01*
X128422400Y-123190000D02*
X128422400Y-120446800D01*
X103378000Y-123698000D02*
X103378000Y-115214400D01*
%TO.N,Net-(U1-Pad13)*%
X127820480Y-106611480D02*
X134112000Y-112903000D01*
X112776000Y-100457000D02*
X113284000Y-100457000D01*
X113284000Y-100457000D02*
X119438480Y-106611480D01*
X119438480Y-106611480D02*
X127820480Y-106611480D01*
%TO.N,Net-(U1-Pad12)*%
X113538000Y-101854000D02*
X118745000Y-107061000D01*
X127127000Y-107061000D02*
X132842000Y-112776000D01*
X118745000Y-107061000D02*
X127127000Y-107061000D01*
%TO.N,Net-(U1-Pad11)*%
X107823000Y-114008500D02*
X108039500Y-113792000D01*
X108039500Y-113792000D02*
X131953000Y-113792000D01*
%TO.N,Net-(U1-Pad10)*%
X131018540Y-113284000D02*
X131246500Y-113056040D01*
X106934000Y-113284000D02*
X131018540Y-113284000D01*
%TO.N,Net-(U1-Pad9)*%
X130469500Y-112141000D02*
X130596500Y-112268000D01*
X106299000Y-112141000D02*
X130469500Y-112141000D01*
%TO.N,Net-(U1-Pad8)*%
X105029000Y-111379000D02*
X129921000Y-111379000D01*
%TO.N,Net-(U1-Pad7)*%
X103759000Y-110617000D02*
X129159000Y-110617000D01*
%TO.N,Net-(U1-Pad5)*%
X102489000Y-108745000D02*
X103599000Y-109855000D01*
X103599000Y-109855000D02*
X127254000Y-109855000D01*
%TO.N,Net-(U1-Pad75)*%
X90678000Y-89535000D02*
X123825000Y-89535000D01*
X123825000Y-89535000D02*
X128651000Y-94361000D01*
X128651000Y-94361000D02*
X128651000Y-97028000D01*
%TO.N,Net-(U1-Pad18)*%
X115366800Y-101549200D02*
X119979560Y-106161960D01*
X113499289Y-99732489D02*
X115316000Y-101549200D01*
X119979560Y-106161960D02*
X130164960Y-106161960D01*
X86106000Y-87762000D02*
X98076489Y-99732489D01*
X130164960Y-106161960D02*
X137033000Y-113030000D01*
X98076489Y-99732489D02*
X113499289Y-99732489D01*
X115316000Y-101549200D02*
X115366800Y-101549200D01*
%TO.N,Net-(U1-Pad31)*%
X154686000Y-134245480D02*
X154813000Y-134245480D01*
X118465600Y-104012282D02*
X120028059Y-105574741D01*
X139204341Y-105574741D02*
X139573000Y-105943400D01*
X118465600Y-103174800D02*
X118465600Y-104012282D01*
X139573000Y-105943400D02*
X139573000Y-110236000D01*
X120028059Y-105574741D02*
X139204341Y-105574741D01*
X154686000Y-129921000D02*
X154686000Y-134245480D01*
%TO.N,Net-(U1-Pad19)*%
X82150511Y-86637489D02*
X86571789Y-86637489D01*
X137934089Y-98716489D02*
X141313511Y-102095911D01*
X97696207Y-98716489D02*
X137934089Y-98716489D01*
X81026000Y-87762000D02*
X82150511Y-86637489D01*
X87230511Y-87296211D02*
X87230511Y-88250793D01*
X141313511Y-102095911D02*
X141313511Y-109647103D01*
X86571789Y-86637489D02*
X87230511Y-87296211D01*
X141313511Y-109647103D02*
X138946614Y-112014000D01*
X87230511Y-88250793D02*
X97696207Y-98716489D01*
X138946614Y-112014000D02*
X137795000Y-112014000D01*
%TO.N,Net-(U1-Pad16)*%
X80345200Y-85902800D02*
X120828517Y-85902800D01*
X134303111Y-94449794D02*
X141763031Y-101909714D01*
X129375511Y-94449794D02*
X134303111Y-94449794D01*
X120828517Y-85902800D02*
X129375511Y-94449794D01*
X138887200Y-115620800D02*
X135146500Y-115620800D01*
X78486000Y-87762000D02*
X80345200Y-85902800D01*
X141763031Y-101909714D02*
X141763031Y-112744969D01*
X141763031Y-112744969D02*
X138887200Y-115620800D01*
%TO.N,Net-(U1-Pad15)*%
X134421989Y-115920903D02*
X134883886Y-116382800D01*
X121014715Y-85453280D02*
X79204420Y-85453280D01*
X134421989Y-115320697D02*
X134421989Y-115920903D01*
X79196740Y-85445600D02*
X78262400Y-85445600D01*
X78262400Y-85445600D02*
X75946000Y-87762000D01*
X135446603Y-114885903D02*
X135446603Y-114896289D01*
X79204420Y-85453280D02*
X79196740Y-85445600D01*
X143662400Y-112522000D02*
X143662400Y-102057200D01*
X135446603Y-114896289D02*
X134846397Y-114896289D01*
X143662400Y-102057200D02*
X135509000Y-93903800D01*
X135509000Y-93903800D02*
X129465235Y-93903800D01*
X134846397Y-114896289D02*
X134421989Y-115320697D01*
X135165500Y-114604800D02*
X135446603Y-114885903D01*
X129465235Y-93903800D02*
X121014715Y-85453280D01*
X139801600Y-116382800D02*
X143662400Y-112522000D01*
X134883886Y-116382800D02*
X139801600Y-116382800D01*
%TO.N,Net-(U1-Pad21)*%
X80670400Y-108661200D02*
X81318700Y-109309500D01*
X73406000Y-87762000D02*
X79756000Y-94112000D01*
X79756000Y-107746800D02*
X80670400Y-108661200D01*
X106222800Y-108745000D02*
X126459000Y-108745000D01*
X126459000Y-108745000D02*
X126542800Y-108661200D01*
X79756000Y-94112000D02*
X79756000Y-107746800D01*
X81318700Y-109309500D02*
X99771200Y-109309500D01*
%TO.N,Net-(U1-Pad74)*%
X104140000Y-94792800D02*
X120091200Y-94792800D01*
X120091200Y-94792800D02*
X123393200Y-91490800D01*
%TO.N,Net-(U1-Pad32)*%
X65786000Y-87762000D02*
X69118400Y-84429600D01*
X141020800Y-84886800D02*
X141020800Y-96960414D01*
X140563600Y-84429600D02*
X141020800Y-84886800D01*
X157226000Y-134245480D02*
X157353000Y-134245480D01*
X145542000Y-101481614D02*
X145542000Y-103378000D01*
X69118400Y-84429600D02*
X140563600Y-84429600D01*
X157226000Y-129921000D02*
X157226000Y-134245480D01*
X141020800Y-96960414D02*
X145542000Y-101481614D01*
%TO.N,Net-(U1-Pad33)*%
X180213000Y-130302000D02*
X180213000Y-134245480D01*
%TO.N,Net-(U1-Pad4)*%
X149559897Y-126656489D02*
X167544009Y-126656489D01*
X144339586Y-131876800D02*
X149559897Y-126656489D01*
X127635000Y-122301000D02*
X127635000Y-131876800D01*
X167544009Y-126656489D02*
X175133000Y-134245480D01*
X127635000Y-131876800D02*
X144339586Y-131876800D01*
%TO.N,Net-(U1-Pad30)*%
X152400000Y-134245480D02*
X152273000Y-134245480D01*
X152400000Y-128778000D02*
X152400000Y-134245480D01*
%TO.N,Net-(U1-Pad29)*%
X149860000Y-134245480D02*
X149733000Y-134245480D01*
X149860000Y-127381000D02*
X149860000Y-134245480D01*
%TO.N,Net-(U1-Pad1)*%
X125222000Y-122174000D02*
X127000000Y-123952000D01*
X127000000Y-134245480D02*
X126873000Y-134245480D01*
X127000000Y-123952000D02*
X127000000Y-134245480D01*
%TO.N,Net-(U1-Pad2)*%
X124904500Y-126682500D02*
X124904500Y-134245480D01*
X125916201Y-123892799D02*
X125916201Y-125670799D01*
X125916201Y-125670799D02*
X124904500Y-126682500D01*
X124904500Y-134245480D02*
X124333000Y-134245480D01*
%TO.N,Net-(U1-Pad3)*%
X126746000Y-121539000D02*
X126656489Y-121449489D01*
X126656489Y-121449489D02*
X122390511Y-121449489D01*
X122390511Y-121449489D02*
X121920000Y-121920000D01*
X121920000Y-121920000D02*
X121920000Y-134245480D01*
X121920000Y-134245480D02*
X121793000Y-134245480D01*
%TO.N,Net-(U1-Pad41)*%
X172720000Y-123825000D02*
X172715701Y-123829299D01*
X172720000Y-121412000D02*
X172720000Y-123825000D01*
%TO.N,Net-(U1-Pad40)*%
X171323000Y-120015000D02*
X171323000Y-122682000D01*
%TO.N,Net-(U1-Pad39)*%
X169545000Y-120650000D02*
X169418000Y-120777000D01*
X169545000Y-115443000D02*
X169545000Y-120650000D01*
%TO.N,Net-(U1-Pad38)*%
X167767000Y-115062000D02*
X167767000Y-118999000D01*
%TO.N,Net-(U1-Pad37)*%
X164846000Y-114681000D02*
X164846000Y-117094000D01*
%TO.N,Net-(U1-Pad36)*%
X162052000Y-113919000D02*
X162052000Y-116967000D01*
%TO.N,Net-(U1-Pad35)*%
X159639000Y-113919000D02*
X159639000Y-116840000D01*
%TO.N,Net-(U1-Pad34)*%
X157861000Y-115021500D02*
X157861000Y-116713000D01*
%TO.N,Net-(C8-Pad1)*%
X194183000Y-95885000D02*
X194183000Y-95377000D01*
X192357489Y-97710511D02*
X194183000Y-95885000D01*
X181276511Y-97710511D02*
X192357489Y-97710511D01*
X180721000Y-97155000D02*
X181276511Y-97710511D01*
%TO.N,Net-(U1-Pad46)*%
X171704000Y-107315000D02*
X167987500Y-107315000D01*
X167987500Y-107315000D02*
X167894000Y-107221500D01*
%TD*%
%TA.AperFunction,Conductor*%
%TO.N,GND*%
G36*
X60530837Y-104848806D02*
G01*
X76889396Y-105126611D01*
X76957168Y-105147767D01*
X76993994Y-105185636D01*
X81275695Y-112011171D01*
X95712133Y-112229955D01*
X101452193Y-112316945D01*
X101520003Y-112337977D01*
X101565678Y-112392331D01*
X101576272Y-112441210D01*
X101826855Y-130783879D01*
X101807786Y-130852266D01*
X101754770Y-130899488D01*
X101700867Y-130911600D01*
X56032754Y-130911600D01*
X55964633Y-130891598D01*
X55918140Y-130837942D01*
X55906761Y-130784253D01*
X56104177Y-112316945D01*
X56184800Y-104775000D01*
X60530837Y-104848806D01*
G37*
%TD.AperFunction*%
%TD*%
%TA.AperFunction,Conductor*%
%TO.N,GND*%
G36*
X205834185Y-76347668D02*
G01*
X205880847Y-76401176D01*
X205892400Y-76453881D01*
X205892400Y-89613073D01*
X205872398Y-89681194D01*
X205818742Y-89727687D01*
X205766797Y-89739071D01*
X202315572Y-89749890D01*
X198906695Y-89760576D01*
X198906693Y-89760577D01*
X198167898Y-89762892D01*
X198512436Y-89418354D01*
X198518820Y-89406664D01*
X198509408Y-89394554D01*
X198375230Y-89301471D01*
X198367202Y-89296743D01*
X198142897Y-89186128D01*
X198134264Y-89182640D01*
X197896072Y-89106395D01*
X197887011Y-89104219D01*
X197640168Y-89064018D01*
X197630881Y-89063206D01*
X197380818Y-89059932D01*
X197371506Y-89060502D01*
X197123713Y-89094225D01*
X197114577Y-89096166D01*
X196874492Y-89166145D01*
X196865749Y-89169414D01*
X196638638Y-89274114D01*
X196630483Y-89278634D01*
X196454383Y-89394090D01*
X196445245Y-89404832D01*
X196449818Y-89414608D01*
X196802383Y-89767173D01*
X196080430Y-89769436D01*
X196079254Y-89768794D01*
X196074097Y-89769163D01*
X196065504Y-89769483D01*
X187072212Y-89797675D01*
X181865568Y-89813997D01*
X181797385Y-89794209D01*
X181750724Y-89740699D01*
X181739191Y-89685851D01*
X181739271Y-89681194D01*
X181811510Y-85443158D01*
X181853724Y-82966621D01*
X197625282Y-82966621D01*
X197625377Y-82970250D01*
X197625377Y-82970252D01*
X197626122Y-82998689D01*
X197632532Y-83243446D01*
X197634050Y-83301432D01*
X197634562Y-83305027D01*
X197673226Y-83576696D01*
X197681241Y-83633015D01*
X197766231Y-83956978D01*
X197887893Y-84269025D01*
X197889590Y-84272230D01*
X198036659Y-84549995D01*
X198044614Y-84565020D01*
X198046664Y-84568003D01*
X198046666Y-84568006D01*
X198232261Y-84838048D01*
X198232267Y-84838055D01*
X198234318Y-84841040D01*
X198454490Y-85093428D01*
X198702211Y-85318837D01*
X198705153Y-85320951D01*
X198971247Y-85512159D01*
X198971253Y-85512163D01*
X198974198Y-85514279D01*
X199266846Y-85677165D01*
X199576277Y-85805335D01*
X199579771Y-85806330D01*
X199579773Y-85806331D01*
X199894887Y-85896094D01*
X199894892Y-85896095D01*
X199898388Y-85897091D01*
X200126288Y-85934411D01*
X200225331Y-85950630D01*
X200225335Y-85950630D01*
X200228911Y-85951216D01*
X200232537Y-85951387D01*
X200559837Y-85966822D01*
X200559838Y-85966822D01*
X200563464Y-85966993D01*
X200573516Y-85966308D01*
X200893983Y-85944461D01*
X200893991Y-85944460D01*
X200897614Y-85944213D01*
X200901190Y-85943550D01*
X200901192Y-85943550D01*
X201223365Y-85883839D01*
X201223369Y-85883838D01*
X201226930Y-85883178D01*
X201547049Y-85784697D01*
X201853728Y-85650074D01*
X202142901Y-85481095D01*
X202145810Y-85478911D01*
X202407828Y-85282183D01*
X202407832Y-85282180D01*
X202410735Y-85280000D01*
X202653681Y-85049452D01*
X202868519Y-84792509D01*
X202930484Y-84698177D01*
X203050411Y-84515604D01*
X203052400Y-84512576D01*
X203202889Y-84213364D01*
X203317989Y-83898838D01*
X203318834Y-83895316D01*
X203318837Y-83895308D01*
X203395329Y-83576696D01*
X203395330Y-83576692D01*
X203396176Y-83573167D01*
X203436412Y-83240667D01*
X203442153Y-83058000D01*
X203438733Y-82998689D01*
X203423082Y-82727250D01*
X203423081Y-82727245D01*
X203422873Y-82723630D01*
X203407690Y-82636633D01*
X203365914Y-82397265D01*
X203365912Y-82397258D01*
X203365290Y-82393692D01*
X203270166Y-82072560D01*
X203268745Y-82069229D01*
X203268742Y-82069220D01*
X203140185Y-81767822D01*
X203138763Y-81764488D01*
X202972821Y-81473562D01*
X202954057Y-81448018D01*
X202776684Y-81206553D01*
X202776682Y-81206550D01*
X202774541Y-81203636D01*
X202546550Y-80958289D01*
X202291871Y-80740773D01*
X202013879Y-80553970D01*
X201716259Y-80400356D01*
X201402955Y-80281969D01*
X201078121Y-80200376D01*
X200938554Y-80182002D01*
X200749665Y-80157134D01*
X200749657Y-80157133D01*
X200746061Y-80156660D01*
X200606577Y-80154469D01*
X200414819Y-80151456D01*
X200414815Y-80151456D01*
X200411177Y-80151399D01*
X200407563Y-80151760D01*
X200407557Y-80151760D01*
X200174065Y-80175066D01*
X200077908Y-80184664D01*
X199750671Y-80256013D01*
X199747244Y-80257186D01*
X199747238Y-80257188D01*
X199437234Y-80363326D01*
X199437229Y-80363328D01*
X199433803Y-80364501D01*
X199430535Y-80366060D01*
X199430527Y-80366063D01*
X199276482Y-80439539D01*
X199131505Y-80508690D01*
X198847782Y-80686669D01*
X198844948Y-80688939D01*
X198844943Y-80688943D01*
X198782768Y-80738755D01*
X198586397Y-80896078D01*
X198350812Y-81134143D01*
X198144151Y-81397707D01*
X197969153Y-81683278D01*
X197967628Y-81686563D01*
X197967626Y-81686567D01*
X197859742Y-81918984D01*
X197828138Y-81987069D01*
X197827002Y-81990505D01*
X197724113Y-82301610D01*
X197724110Y-82301620D01*
X197722974Y-82305056D01*
X197722238Y-82308611D01*
X197722237Y-82308614D01*
X197676141Y-82531200D01*
X197655055Y-82633022D01*
X197625282Y-82966621D01*
X181853724Y-82966621D01*
X181857804Y-82727250D01*
X181884229Y-81176994D01*
X181965600Y-76403200D01*
X182264941Y-76402253D01*
X205766002Y-76327882D01*
X205834185Y-76347668D01*
G37*
%TD.AperFunction*%
%TD*%
%TA.AperFunction,Conductor*%
%TO.N,GND*%
G36*
X195512766Y-107706941D02*
G01*
X195512767Y-107706941D01*
X195869972Y-107720493D01*
X196466624Y-107743130D01*
X196536352Y-107767428D01*
X196551663Y-107778655D01*
X196559564Y-107783592D01*
X196780897Y-107900041D01*
X196789446Y-107903758D01*
X197025549Y-107986209D01*
X197034558Y-107988623D01*
X197280261Y-108035271D01*
X197289518Y-108036325D01*
X197539420Y-108046145D01*
X197548733Y-108045819D01*
X197797343Y-108018591D01*
X197806497Y-108016895D01*
X198048350Y-107953221D01*
X198057170Y-107950184D01*
X198286948Y-107851463D01*
X198295220Y-107847156D01*
X198347976Y-107814510D01*
X204597000Y-108051600D01*
X204673200Y-130479800D01*
X201141635Y-130483916D01*
X201141287Y-130483916D01*
X183004859Y-130505054D01*
X182936715Y-130485131D01*
X182890159Y-130431530D01*
X182878719Y-130380346D01*
X182778929Y-120650815D01*
X182798231Y-120582493D01*
X182814231Y-120562052D01*
X191147541Y-111922621D01*
X197498282Y-111922621D01*
X197498377Y-111926250D01*
X197498377Y-111926252D01*
X197499122Y-111954689D01*
X197505532Y-112199446D01*
X197507050Y-112257432D01*
X197507562Y-112261027D01*
X197546226Y-112532696D01*
X197554241Y-112589015D01*
X197639231Y-112912978D01*
X197760893Y-113225025D01*
X197762590Y-113228230D01*
X197909659Y-113505995D01*
X197917614Y-113521020D01*
X197919664Y-113524003D01*
X197919666Y-113524006D01*
X198105261Y-113794048D01*
X198105267Y-113794055D01*
X198107318Y-113797040D01*
X198327490Y-114049428D01*
X198575211Y-114274837D01*
X198578153Y-114276951D01*
X198844247Y-114468159D01*
X198844253Y-114468163D01*
X198847198Y-114470279D01*
X199139846Y-114633165D01*
X199449277Y-114761335D01*
X199452771Y-114762330D01*
X199452773Y-114762331D01*
X199767887Y-114852094D01*
X199767892Y-114852095D01*
X199771388Y-114853091D01*
X199999288Y-114890411D01*
X200098331Y-114906630D01*
X200098335Y-114906630D01*
X200101911Y-114907216D01*
X200105537Y-114907387D01*
X200432837Y-114922822D01*
X200432838Y-114922822D01*
X200436464Y-114922993D01*
X200446516Y-114922308D01*
X200766983Y-114900461D01*
X200766991Y-114900460D01*
X200770614Y-114900213D01*
X200774190Y-114899550D01*
X200774192Y-114899550D01*
X201096365Y-114839839D01*
X201096369Y-114839838D01*
X201099930Y-114839178D01*
X201420049Y-114740697D01*
X201726728Y-114606074D01*
X202015901Y-114437095D01*
X202018810Y-114434911D01*
X202280828Y-114238183D01*
X202280832Y-114238180D01*
X202283735Y-114236000D01*
X202526681Y-114005452D01*
X202741519Y-113748509D01*
X202803484Y-113654177D01*
X202923411Y-113471604D01*
X202925400Y-113468576D01*
X203075889Y-113169364D01*
X203190989Y-112854838D01*
X203191834Y-112851316D01*
X203191837Y-112851308D01*
X203268329Y-112532696D01*
X203268330Y-112532692D01*
X203269176Y-112529167D01*
X203309412Y-112196667D01*
X203315153Y-112014000D01*
X203311733Y-111954689D01*
X203296082Y-111683250D01*
X203296081Y-111683245D01*
X203295873Y-111679630D01*
X203280690Y-111592633D01*
X203238914Y-111353265D01*
X203238912Y-111353258D01*
X203238290Y-111349692D01*
X203143166Y-111028560D01*
X203141745Y-111025229D01*
X203141742Y-111025220D01*
X203013185Y-110723822D01*
X203011763Y-110720488D01*
X202845821Y-110429562D01*
X202827057Y-110404018D01*
X202649684Y-110162553D01*
X202649682Y-110162550D01*
X202647541Y-110159636D01*
X202419550Y-109914289D01*
X202164871Y-109696773D01*
X201886879Y-109509970D01*
X201589259Y-109356356D01*
X201275955Y-109237969D01*
X200951121Y-109156376D01*
X200811554Y-109138002D01*
X200622665Y-109113134D01*
X200622657Y-109113133D01*
X200619061Y-109112660D01*
X200479577Y-109110469D01*
X200287819Y-109107456D01*
X200287815Y-109107456D01*
X200284177Y-109107399D01*
X200280563Y-109107760D01*
X200280557Y-109107760D01*
X200047065Y-109131066D01*
X199950908Y-109140664D01*
X199623671Y-109212013D01*
X199620244Y-109213186D01*
X199620238Y-109213188D01*
X199310234Y-109319326D01*
X199310229Y-109319328D01*
X199306803Y-109320501D01*
X199303535Y-109322060D01*
X199303527Y-109322063D01*
X199149482Y-109395539D01*
X199004505Y-109464690D01*
X198720782Y-109642669D01*
X198717948Y-109644939D01*
X198717943Y-109644943D01*
X198655768Y-109694755D01*
X198459397Y-109852078D01*
X198223812Y-110090143D01*
X198017151Y-110353707D01*
X197842153Y-110639278D01*
X197840628Y-110642563D01*
X197840626Y-110642567D01*
X197732742Y-110874984D01*
X197701138Y-110943069D01*
X197700002Y-110946505D01*
X197597113Y-111257610D01*
X197597110Y-111257620D01*
X197595974Y-111261056D01*
X197595238Y-111264611D01*
X197595237Y-111264614D01*
X197549141Y-111487200D01*
X197528055Y-111589022D01*
X197498282Y-111922621D01*
X191147541Y-111922621D01*
X195224400Y-107696000D01*
X195512766Y-107706941D01*
G37*
%TD.AperFunction*%
%TD*%
%TA.AperFunction,Conductor*%
%TO.N,GND*%
G36*
X205892400Y-89382600D02*
G01*
X205891081Y-89738682D01*
X205797867Y-114906630D01*
X205740470Y-130403786D01*
X205720216Y-130471832D01*
X205666388Y-130518126D01*
X205613194Y-130529313D01*
X202422107Y-130496916D01*
X201141942Y-130483919D01*
X201141914Y-130483919D01*
X201141631Y-130483916D01*
X201141627Y-130483916D01*
X200736200Y-130479800D01*
X197576445Y-112673651D01*
X197639231Y-112912978D01*
X197760893Y-113225025D01*
X197762590Y-113228230D01*
X197909659Y-113505995D01*
X197917614Y-113521020D01*
X197919664Y-113524003D01*
X197919666Y-113524006D01*
X198105261Y-113794048D01*
X198105267Y-113794055D01*
X198107318Y-113797040D01*
X198327490Y-114049428D01*
X198575211Y-114274837D01*
X198578153Y-114276951D01*
X198844247Y-114468159D01*
X198844253Y-114468163D01*
X198847198Y-114470279D01*
X199139846Y-114633165D01*
X199449277Y-114761335D01*
X199452771Y-114762330D01*
X199452773Y-114762331D01*
X199767887Y-114852094D01*
X199767892Y-114852095D01*
X199771388Y-114853091D01*
X199999288Y-114890411D01*
X200098331Y-114906630D01*
X200098335Y-114906630D01*
X200101911Y-114907216D01*
X200105537Y-114907387D01*
X200432837Y-114922822D01*
X200432838Y-114922822D01*
X200436464Y-114922993D01*
X200446516Y-114922308D01*
X200766983Y-114900461D01*
X200766991Y-114900460D01*
X200770614Y-114900213D01*
X200774190Y-114899550D01*
X200774192Y-114899550D01*
X201096365Y-114839839D01*
X201096369Y-114839838D01*
X201099930Y-114839178D01*
X201420049Y-114740697D01*
X201726728Y-114606074D01*
X202015901Y-114437095D01*
X202018810Y-114434911D01*
X202280828Y-114238183D01*
X202280832Y-114238180D01*
X202283735Y-114236000D01*
X202526681Y-114005452D01*
X202741519Y-113748509D01*
X202803484Y-113654177D01*
X202923411Y-113471604D01*
X202925400Y-113468576D01*
X203075889Y-113169364D01*
X203190989Y-112854838D01*
X203191834Y-112851316D01*
X203191837Y-112851308D01*
X203268329Y-112532696D01*
X203268330Y-112532692D01*
X203269176Y-112529167D01*
X203309412Y-112196667D01*
X203315153Y-112014000D01*
X203311733Y-111954689D01*
X203296082Y-111683250D01*
X203296081Y-111683245D01*
X203295873Y-111679630D01*
X203280690Y-111592633D01*
X203238914Y-111353265D01*
X203238912Y-111353258D01*
X203238290Y-111349692D01*
X203143166Y-111028560D01*
X203141745Y-111025229D01*
X203141742Y-111025220D01*
X203013185Y-110723822D01*
X203011763Y-110720488D01*
X202845821Y-110429562D01*
X202827057Y-110404018D01*
X202649684Y-110162553D01*
X202649682Y-110162550D01*
X202647541Y-110159636D01*
X202419550Y-109914289D01*
X202164871Y-109696773D01*
X201886879Y-109509970D01*
X201589259Y-109356356D01*
X201275955Y-109237969D01*
X200951121Y-109156376D01*
X200811554Y-109138002D01*
X200622665Y-109113134D01*
X200622657Y-109113133D01*
X200619061Y-109112660D01*
X200479577Y-109110469D01*
X200287819Y-109107456D01*
X200287815Y-109107456D01*
X200284177Y-109107399D01*
X200280563Y-109107760D01*
X200280557Y-109107760D01*
X200047065Y-109131066D01*
X199950908Y-109140664D01*
X199623671Y-109212013D01*
X199620244Y-109213186D01*
X199620238Y-109213188D01*
X199310234Y-109319326D01*
X199310229Y-109319328D01*
X199306803Y-109320501D01*
X199303535Y-109322060D01*
X199303527Y-109322063D01*
X199149482Y-109395539D01*
X199004505Y-109464690D01*
X198720782Y-109642669D01*
X198717948Y-109644939D01*
X198717943Y-109644943D01*
X198655768Y-109694755D01*
X198459397Y-109852078D01*
X198223812Y-110090143D01*
X198017151Y-110353707D01*
X197842153Y-110639278D01*
X197840628Y-110642563D01*
X197840626Y-110642567D01*
X197732742Y-110874984D01*
X197701138Y-110943069D01*
X197700002Y-110946505D01*
X197597113Y-111257610D01*
X197597110Y-111257620D01*
X197595974Y-111261056D01*
X197595238Y-111264611D01*
X197595237Y-111264614D01*
X197549141Y-111487200D01*
X197528055Y-111589022D01*
X197498282Y-111922621D01*
X197498377Y-111926250D01*
X197498377Y-111926252D01*
X197499122Y-111954689D01*
X197505532Y-112199446D01*
X197507050Y-112257432D01*
X197525135Y-112384502D01*
X196724045Y-107870130D01*
X196780897Y-107900041D01*
X196789446Y-107903758D01*
X197025549Y-107986209D01*
X197034558Y-107988623D01*
X197280261Y-108035271D01*
X197289518Y-108036325D01*
X197539420Y-108046145D01*
X197548733Y-108045819D01*
X197797343Y-108018591D01*
X197806497Y-108016895D01*
X198048350Y-107953221D01*
X198057170Y-107950184D01*
X198286948Y-107851463D01*
X198295220Y-107847156D01*
X198507876Y-107715561D01*
X198513546Y-107711441D01*
X198521648Y-107699149D01*
X198515584Y-107688794D01*
X197212885Y-106386095D01*
X197178859Y-106323783D01*
X197183924Y-106252968D01*
X197212885Y-106207905D01*
X197393905Y-106026885D01*
X197456217Y-105992859D01*
X197527032Y-105997924D01*
X197572095Y-106026885D01*
X198873868Y-107328658D01*
X198886248Y-107335418D01*
X198894589Y-107329174D01*
X199018751Y-107136142D01*
X199023194Y-107127958D01*
X199125909Y-106899938D01*
X199129103Y-106891163D01*
X199196985Y-106650470D01*
X199198843Y-106641341D01*
X199230597Y-106391740D01*
X199231078Y-106385452D01*
X199233311Y-106300159D01*
X199233160Y-106293851D01*
X199226778Y-106207970D01*
X199241677Y-106138554D01*
X199291740Y-106088212D01*
X199361072Y-106072929D01*
X199411391Y-106087278D01*
X199659401Y-106218592D01*
X199659406Y-106218594D01*
X199663200Y-106220603D01*
X199667223Y-106222075D01*
X199667227Y-106222077D01*
X199932351Y-106319099D01*
X199936382Y-106320574D01*
X200220604Y-106382544D01*
X200249650Y-106384830D01*
X200446297Y-106400307D01*
X200446304Y-106400307D01*
X200448753Y-106400500D01*
X200606121Y-106400500D01*
X200608257Y-106400354D01*
X200608268Y-106400354D01*
X200818949Y-106385991D01*
X200818955Y-106385990D01*
X200823226Y-106385699D01*
X200827421Y-106384830D01*
X200827423Y-106384830D01*
X200965654Y-106356204D01*
X201108081Y-106326709D01*
X201382295Y-106229605D01*
X201640793Y-106096184D01*
X201644294Y-106093723D01*
X201644298Y-106093721D01*
X201787809Y-105992859D01*
X201878792Y-105928915D01*
X202091888Y-105730894D01*
X202105316Y-105714489D01*
X202273423Y-105509102D01*
X202276139Y-105505784D01*
X202428133Y-105257752D01*
X202436869Y-105237852D01*
X202543334Y-104995315D01*
X202545059Y-104991386D01*
X202551073Y-104970276D01*
X202604946Y-104781151D01*
X202624754Y-104711616D01*
X202632184Y-104659414D01*
X202665137Y-104427870D01*
X202665742Y-104423619D01*
X202667265Y-104132723D01*
X202629295Y-103844313D01*
X202552535Y-103563724D01*
X202438404Y-103296148D01*
X202289015Y-103046538D01*
X202274337Y-103028216D01*
X202109823Y-102822869D01*
X202107133Y-102819511D01*
X201896122Y-102619269D01*
X201659887Y-102449517D01*
X201402800Y-102313397D01*
X201398777Y-102311925D01*
X201398773Y-102311923D01*
X201133649Y-102214901D01*
X201133647Y-102214900D01*
X201129618Y-102213426D01*
X200845396Y-102151456D01*
X200801598Y-102148009D01*
X200619703Y-102133693D01*
X200619696Y-102133693D01*
X200617247Y-102133500D01*
X200459879Y-102133500D01*
X200457743Y-102133646D01*
X200457732Y-102133646D01*
X200247051Y-102148009D01*
X200247045Y-102148010D01*
X200242774Y-102148301D01*
X200238579Y-102149170D01*
X200238577Y-102149170D01*
X200223130Y-102152369D01*
X199957919Y-102207291D01*
X199683705Y-102304395D01*
X199425207Y-102437816D01*
X199421706Y-102440277D01*
X199421702Y-102440279D01*
X199408558Y-102449517D01*
X199187208Y-102605085D01*
X198974112Y-102803106D01*
X198971398Y-102806422D01*
X198971395Y-102806425D01*
X198957936Y-102822869D01*
X198789861Y-103028216D01*
X198637867Y-103276248D01*
X198636148Y-103280165D01*
X198636146Y-103280168D01*
X198627397Y-103300100D01*
X198520941Y-103542614D01*
X198519765Y-103546742D01*
X198519764Y-103546745D01*
X198495218Y-103632913D01*
X198441246Y-103822384D01*
X198440642Y-103826626D01*
X198440641Y-103826632D01*
X198438125Y-103844313D01*
X198400258Y-104110381D01*
X198398735Y-104401277D01*
X198424137Y-104594219D01*
X198424427Y-104596423D01*
X198413488Y-104666572D01*
X198366360Y-104719671D01*
X198298006Y-104738861D01*
X198243777Y-104725876D01*
X198142897Y-104676128D01*
X198134264Y-104672640D01*
X197896072Y-104596395D01*
X197887011Y-104594219D01*
X197640168Y-104554018D01*
X197630881Y-104553206D01*
X197380818Y-104549932D01*
X197371506Y-104550502D01*
X197123713Y-104584225D01*
X197114577Y-104586166D01*
X196874492Y-104656145D01*
X196865749Y-104659414D01*
X196638638Y-104764114D01*
X196630485Y-104768633D01*
X196613284Y-104779910D01*
X196545348Y-104800532D01*
X196477048Y-104781151D01*
X196430068Y-104727921D01*
X196418200Y-104674537D01*
X196418200Y-99802028D01*
X196442176Y-99728235D01*
X196446040Y-99723944D01*
X196541527Y-99558556D01*
X196600542Y-99376928D01*
X196620504Y-99187000D01*
X196600542Y-98997072D01*
X196541527Y-98815444D01*
X196446040Y-98650056D01*
X196442176Y-98645765D01*
X196418200Y-98571972D01*
X196418200Y-92427884D01*
X196438202Y-92359763D01*
X196491858Y-92313270D01*
X196562132Y-92303166D01*
X196602867Y-92316375D01*
X196780897Y-92410041D01*
X196789446Y-92413758D01*
X197025549Y-92496209D01*
X197034558Y-92498623D01*
X197280261Y-92545271D01*
X197289518Y-92546325D01*
X197539420Y-92556145D01*
X197548733Y-92555819D01*
X197797343Y-92528591D01*
X197806497Y-92526895D01*
X198048350Y-92463221D01*
X198057169Y-92460184D01*
X198249897Y-92377381D01*
X198320381Y-92368869D01*
X198384279Y-92399814D01*
X198421303Y-92460393D01*
X198424378Y-92510902D01*
X198417939Y-92556145D01*
X198400258Y-92680381D01*
X198398735Y-92971277D01*
X198436705Y-93259687D01*
X198513465Y-93540276D01*
X198627596Y-93807852D01*
X198776985Y-94057462D01*
X198779669Y-94060813D01*
X198779671Y-94060815D01*
X198794322Y-94079102D01*
X198958867Y-94284489D01*
X199169878Y-94484731D01*
X199406113Y-94654483D01*
X199663200Y-94790603D01*
X199667223Y-94792075D01*
X199667227Y-94792077D01*
X199691709Y-94801036D01*
X199936382Y-94890574D01*
X200220604Y-94952544D01*
X200249650Y-94954830D01*
X200446297Y-94970307D01*
X200446304Y-94970307D01*
X200448753Y-94970500D01*
X200606121Y-94970500D01*
X200608257Y-94970354D01*
X200608268Y-94970354D01*
X200818949Y-94955991D01*
X200818955Y-94955990D01*
X200823226Y-94955699D01*
X200827421Y-94954830D01*
X200827423Y-94954830D01*
X200965653Y-94926204D01*
X201108081Y-94896709D01*
X201382295Y-94799605D01*
X201640793Y-94666184D01*
X201644294Y-94663723D01*
X201644298Y-94663721D01*
X201759793Y-94582549D01*
X201878792Y-94498915D01*
X202091888Y-94300894D01*
X202102895Y-94287447D01*
X202273423Y-94079102D01*
X202276139Y-94075784D01*
X202428133Y-93827752D01*
X202436869Y-93807852D01*
X202543334Y-93565315D01*
X202545059Y-93561386D01*
X202551073Y-93540276D01*
X202570782Y-93471087D01*
X202624754Y-93281616D01*
X202627286Y-93263829D01*
X202665137Y-92997870D01*
X202665742Y-92993619D01*
X202667265Y-92702723D01*
X202629295Y-92414313D01*
X202552535Y-92133724D01*
X202438404Y-91866148D01*
X202289015Y-91616538D01*
X202274337Y-91598216D01*
X202109823Y-91392869D01*
X202107133Y-91389511D01*
X201896122Y-91189269D01*
X201659887Y-91019517D01*
X201431531Y-90898609D01*
X201406587Y-90885402D01*
X201406586Y-90885401D01*
X201402800Y-90883397D01*
X201398777Y-90881925D01*
X201398773Y-90881923D01*
X201133649Y-90784901D01*
X201133647Y-90784900D01*
X201129618Y-90783426D01*
X200845396Y-90721456D01*
X200800277Y-90717905D01*
X200619703Y-90703693D01*
X200619696Y-90703693D01*
X200617247Y-90703500D01*
X200459879Y-90703500D01*
X200457743Y-90703646D01*
X200457732Y-90703646D01*
X200247051Y-90718009D01*
X200247045Y-90718010D01*
X200242774Y-90718301D01*
X200238579Y-90719170D01*
X200238577Y-90719170D01*
X200223130Y-90722369D01*
X199957919Y-90777291D01*
X199683705Y-90874395D01*
X199425207Y-91007816D01*
X199422087Y-91010008D01*
X199353564Y-91028156D01*
X199286002Y-91006342D01*
X199240958Y-90951464D01*
X199232336Y-90898644D01*
X199230995Y-90898609D01*
X199233311Y-90810159D01*
X199233160Y-90803851D01*
X199214513Y-90552927D01*
X199213136Y-90543721D01*
X199157941Y-90299791D01*
X199155217Y-90290880D01*
X199064573Y-90057789D01*
X199060562Y-90049380D01*
X198936462Y-89832252D01*
X198931249Y-89824522D01*
X198895490Y-89779162D01*
X198883566Y-89770692D01*
X198872031Y-89777179D01*
X197572095Y-91077115D01*
X197509783Y-91111141D01*
X197438968Y-91106076D01*
X197393905Y-91077115D01*
X197212885Y-90896095D01*
X197178859Y-90833783D01*
X197183924Y-90762968D01*
X197212885Y-90717905D01*
X198512436Y-89418354D01*
X198518820Y-89406664D01*
X198509408Y-89394554D01*
X198375230Y-89301471D01*
X198367202Y-89296743D01*
X198142897Y-89186128D01*
X198134264Y-89182640D01*
X198035051Y-89150882D01*
X205892400Y-89382600D01*
G37*
%TD.AperFunction*%
%TA.AperFunction,Conductor*%
G36*
X197028679Y-89121203D02*
G01*
X196874492Y-89166145D01*
X196865749Y-89169414D01*
X196638638Y-89274114D01*
X196630483Y-89278634D01*
X196421341Y-89415753D01*
X196418200Y-89418164D01*
X196418200Y-89103200D01*
X197028679Y-89121203D01*
G37*
%TD.AperFunction*%
%TD*%
%TA.AperFunction,Conductor*%
%TO.N,GND*%
G36*
X177420060Y-84124014D02*
G01*
X177488055Y-84144441D01*
X177534212Y-84198386D01*
X177545272Y-84250740D01*
X177444400Y-101701600D01*
X177452994Y-101708280D01*
X177452994Y-101708281D01*
X182588128Y-105700258D01*
X184632600Y-107289600D01*
X195410582Y-107487361D01*
X195478324Y-107508610D01*
X195523825Y-107563109D01*
X195532638Y-107633557D01*
X195511213Y-107675394D01*
X195515079Y-107677505D01*
X195506399Y-107693401D01*
X195402200Y-107797600D01*
X187223400Y-116967000D01*
X186763445Y-116451724D01*
X186763444Y-116451722D01*
X184972309Y-114445158D01*
X182693126Y-111891847D01*
X179842386Y-108698235D01*
X179832000Y-108686600D01*
X173558200Y-106400600D01*
X173549516Y-106399961D01*
X173549514Y-106399961D01*
X170745717Y-106193800D01*
X166649400Y-105892600D01*
X166751000Y-108585000D01*
X166761306Y-108585654D01*
X166761309Y-108585655D01*
X174703284Y-109089907D01*
X174770000Y-109114185D01*
X174785917Y-109128107D01*
X177458207Y-111894161D01*
X177549688Y-111988852D01*
X177582634Y-112051741D01*
X177576349Y-112122459D01*
X177535973Y-112176208D01*
X174591165Y-114445158D01*
X174524995Y-114470890D01*
X174495889Y-114470001D01*
X156972000Y-111887000D01*
X155575000Y-118872000D01*
X168102573Y-121834432D01*
X168164262Y-121869573D01*
X168197160Y-121932488D01*
X168188996Y-122007593D01*
X166580638Y-125680411D01*
X166534990Y-125734787D01*
X166465937Y-125755866D01*
X148822897Y-125856253D01*
X148754663Y-125836639D01*
X148707866Y-125783249D01*
X148696259Y-125725784D01*
X148697871Y-125680411D01*
X149326641Y-107973429D01*
X149475051Y-103794015D01*
X149497458Y-103726647D01*
X149552730Y-103682087D01*
X149589851Y-103672978D01*
X169526955Y-101906399D01*
X169545000Y-101904800D01*
X169543509Y-101708281D01*
X169444942Y-88722200D01*
X169443400Y-88519000D01*
X169429830Y-88519114D01*
X169429829Y-88519114D01*
X157139207Y-88622505D01*
X145407249Y-88721197D01*
X145338963Y-88701768D01*
X145292021Y-88648506D01*
X145280443Y-88603185D01*
X145276249Y-88537115D01*
X145185677Y-87110617D01*
X145202305Y-87039635D01*
X145233527Y-86985556D01*
X145292542Y-86803928D01*
X145312504Y-86614000D01*
X145292542Y-86424072D01*
X145233527Y-86242444D01*
X145138040Y-86077056D01*
X145138468Y-86076809D01*
X145116097Y-86014724D01*
X145004098Y-84250740D01*
X144991760Y-84056424D01*
X145007406Y-83987174D01*
X145058007Y-83937374D01*
X145118293Y-83922443D01*
X177420060Y-84124014D01*
G37*
%TD.AperFunction*%
%TD*%
%TA.AperFunction,Conductor*%
%TO.N,GND*%
G36*
X182239142Y-76372402D02*
G01*
X182260923Y-76392208D01*
X182346600Y-76606400D01*
X182219600Y-81178400D01*
X181870275Y-81176935D01*
X181870274Y-81176935D01*
X180799147Y-81172444D01*
X179041937Y-81165076D01*
X178973902Y-81144789D01*
X178956214Y-81130928D01*
X178949306Y-81124441D01*
X178943527Y-81119014D01*
X178936581Y-81115195D01*
X178936578Y-81115193D01*
X178925772Y-81109252D01*
X178909253Y-81098401D01*
X178903901Y-81094250D01*
X178893247Y-81085986D01*
X178885978Y-81082841D01*
X178885974Y-81082838D01*
X178852669Y-81068426D01*
X178842019Y-81063209D01*
X178803266Y-81041905D01*
X178783643Y-81036867D01*
X178764940Y-81030463D01*
X178753626Y-81025567D01*
X178753625Y-81025567D01*
X178746351Y-81022419D01*
X178738528Y-81021180D01*
X178738518Y-81021177D01*
X178702682Y-81015501D01*
X178691062Y-81013095D01*
X178655917Y-81004072D01*
X178655916Y-81004072D01*
X178648236Y-81002100D01*
X178627982Y-81002100D01*
X178608271Y-81000549D01*
X178596092Y-80998620D01*
X178588263Y-80997380D01*
X178580371Y-80998126D01*
X178544245Y-81001541D01*
X178532387Y-81002100D01*
X143659400Y-81002100D01*
X143591279Y-80982098D01*
X143572053Y-80965757D01*
X143571780Y-80966060D01*
X143566868Y-80961637D01*
X143562453Y-80956734D01*
X143407952Y-80844482D01*
X143401924Y-80841798D01*
X143401922Y-80841797D01*
X143239519Y-80769491D01*
X143239518Y-80769491D01*
X143233488Y-80766806D01*
X143140087Y-80746953D01*
X143053144Y-80728472D01*
X143053139Y-80728472D01*
X143046687Y-80727100D01*
X142855713Y-80727100D01*
X142849261Y-80728472D01*
X142849256Y-80728472D01*
X142762313Y-80746953D01*
X142668912Y-80766806D01*
X142662882Y-80769491D01*
X142662881Y-80769491D01*
X142500478Y-80841797D01*
X142500476Y-80841798D01*
X142494448Y-80844482D01*
X142339947Y-80956734D01*
X142335526Y-80961644D01*
X142335525Y-80961645D01*
X142253646Y-81052581D01*
X142193200Y-81089821D01*
X142162328Y-81094250D01*
X140521229Y-81124441D01*
X128847089Y-81339208D01*
X128778611Y-81320462D01*
X128770711Y-81315166D01*
X128752152Y-81301682D01*
X128746124Y-81298998D01*
X128746122Y-81298997D01*
X128583719Y-81226691D01*
X128583718Y-81226691D01*
X128577688Y-81224006D01*
X128484287Y-81204153D01*
X128397344Y-81185672D01*
X128397339Y-81185672D01*
X128390887Y-81184300D01*
X128199913Y-81184300D01*
X128193461Y-81185672D01*
X128193456Y-81185672D01*
X128106513Y-81204153D01*
X128013112Y-81224006D01*
X128007082Y-81226691D01*
X128007081Y-81226691D01*
X127844678Y-81298997D01*
X127844676Y-81298998D01*
X127838648Y-81301682D01*
X127833307Y-81305562D01*
X127833306Y-81305563D01*
X127791546Y-81335904D01*
X127719803Y-81359947D01*
X126543655Y-81381584D01*
X126541918Y-81381604D01*
X108268097Y-81458741D01*
X108135907Y-81459299D01*
X108135375Y-81459300D01*
X67058568Y-81459300D01*
X67047385Y-81458773D01*
X67039892Y-81457098D01*
X67031966Y-81457347D01*
X67031965Y-81457347D01*
X66971802Y-81459238D01*
X66967844Y-81459300D01*
X66939944Y-81459300D01*
X66935954Y-81459804D01*
X66924120Y-81460736D01*
X66879911Y-81462126D01*
X66872295Y-81464339D01*
X66872293Y-81464339D01*
X66860452Y-81467779D01*
X66841093Y-81471788D01*
X66839783Y-81471954D01*
X66821003Y-81474326D01*
X66813637Y-81477242D01*
X66813631Y-81477244D01*
X66779898Y-81490600D01*
X66768668Y-81494445D01*
X66733817Y-81504570D01*
X66726207Y-81506781D01*
X66719384Y-81510816D01*
X66708766Y-81517095D01*
X66691013Y-81525792D01*
X66683368Y-81528819D01*
X66672183Y-81533248D01*
X66665768Y-81537909D01*
X66636412Y-81559237D01*
X66626495Y-81565751D01*
X66588438Y-81588258D01*
X66578506Y-81598190D01*
X66516194Y-81632216D01*
X66489943Y-81635094D01*
X66380571Y-81635556D01*
X66380570Y-81635556D01*
X66370200Y-81635600D01*
X64049861Y-82437393D01*
X60635760Y-83617134D01*
X60635759Y-83617135D01*
X56667400Y-84988400D01*
X56501592Y-80961645D01*
X56317202Y-76483584D01*
X56334384Y-76414698D01*
X56386082Y-76366037D01*
X56443095Y-76352400D01*
X182171021Y-76352400D01*
X182239142Y-76372402D01*
G37*
%TD.AperFunction*%
%TD*%
%TA.AperFunction,Conductor*%
%TO.N,GND*%
G36*
X60618580Y-83636909D02*
G01*
X60602146Y-87609847D01*
X60591847Y-87652371D01*
X60594100Y-87653182D01*
X60591418Y-87660633D01*
X60587815Y-87667704D01*
X60586017Y-87675749D01*
X60578691Y-87698294D01*
X60575419Y-87705855D01*
X60574179Y-87713685D01*
X60566633Y-87761326D01*
X60565149Y-87769101D01*
X60552898Y-87823909D01*
X60553147Y-87831832D01*
X60553147Y-87831833D01*
X60553157Y-87832141D01*
X60551667Y-87855815D01*
X60550380Y-87863943D01*
X60551126Y-87871835D01*
X60551126Y-87871836D01*
X60555665Y-87919858D01*
X60556162Y-87927755D01*
X60557927Y-87983889D01*
X60560139Y-87991501D01*
X60560224Y-87991794D01*
X60564668Y-88015094D01*
X60565443Y-88023292D01*
X60568126Y-88030744D01*
X60568127Y-88030749D01*
X60584467Y-88076135D01*
X60586913Y-88083661D01*
X60594922Y-88111227D01*
X60599924Y-88146902D01*
X60528200Y-105486200D01*
X56171145Y-106052371D01*
X56153272Y-106054693D01*
X56141706Y-106052887D01*
X56077488Y-106022613D01*
X56039831Y-105962425D01*
X56035172Y-105925978D01*
X56510214Y-81173788D01*
X56510214Y-81173780D01*
X56515000Y-80924400D01*
X60629800Y-80924400D01*
X60618580Y-83636909D01*
G37*
%TD.AperFunction*%
%TD*%
M02*
