%TF.GenerationSoftware,KiCad,Pcbnew,6.0.2+dfsg-1*%
%TF.CreationDate,2022-05-09T23:13:55-04:00*%
%TF.ProjectId,Cheapsk8_LAN,43686561-7073-46b3-985f-4c414e2e6b69,1*%
%TF.SameCoordinates,Original*%
%TF.FileFunction,Soldermask,Top*%
%TF.FilePolarity,Negative*%
%FSLAX46Y46*%
G04 Gerber Fmt 4.6, Leading zero omitted, Abs format (unit mm)*
G04 Created by KiCad (PCBNEW 6.0.2+dfsg-1) date 2022-05-09 23:13:55*
%MOMM*%
%LPD*%
G01*
G04 APERTURE LIST*
G04 Aperture macros list*
%AMRoundRect*
0 Rectangle with rounded corners*
0 $1 Rounding radius*
0 $2 $3 $4 $5 $6 $7 $8 $9 X,Y pos of 4 corners*
0 Add a 4 corners polygon primitive as box body*
4,1,4,$2,$3,$4,$5,$6,$7,$8,$9,$2,$3,0*
0 Add four circle primitives for the rounded corners*
1,1,$1+$1,$2,$3*
1,1,$1+$1,$4,$5*
1,1,$1+$1,$6,$7*
1,1,$1+$1,$8,$9*
0 Add four rect primitives between the rounded corners*
20,1,$1+$1,$2,$3,$4,$5,0*
20,1,$1+$1,$4,$5,$6,$7,0*
20,1,$1+$1,$6,$7,$8,$9,0*
20,1,$1+$1,$8,$9,$2,$3,0*%
G04 Aperture macros list end*
%ADD10R,0.350000X2.200000*%
%ADD11R,2.200000X0.350000*%
%ADD12RoundRect,0.237500X-0.250000X-0.237500X0.250000X-0.237500X0.250000X0.237500X-0.250000X0.237500X0*%
%ADD13RoundRect,0.237500X0.250000X0.237500X-0.250000X0.237500X-0.250000X-0.237500X0.250000X-0.237500X0*%
%ADD14RoundRect,0.100000X0.217500X0.100000X-0.217500X0.100000X-0.217500X-0.100000X0.217500X-0.100000X0*%
%ADD15C,1.500000*%
%ADD16R,1.600000X1.600000*%
%ADD17RoundRect,0.100000X-0.217500X-0.100000X0.217500X-0.100000X0.217500X0.100000X-0.217500X0.100000X0*%
%ADD18R,1.780000X7.620000*%
%ADD19C,1.600000*%
%ADD20RoundRect,0.237500X-0.237500X0.250000X-0.237500X-0.250000X0.237500X-0.250000X0.237500X0.250000X0*%
%ADD21RoundRect,0.237500X0.237500X-0.250000X0.237500X0.250000X-0.237500X0.250000X-0.237500X-0.250000X0*%
%ADD22O,1.600000X1.600000*%
%ADD23C,3.250000*%
%ADD24R,1.478000X1.478000*%
%ADD25C,1.478000*%
%ADD26C,1.650000*%
%ADD27C,2.475000*%
G04 APERTURE END LIST*
D10*
%TO.C,U1*%
X125322000Y-119836000D03*
X125972000Y-119836000D03*
X126622000Y-119836000D03*
X127272000Y-119836000D03*
X127922000Y-119836000D03*
X128572000Y-119836000D03*
X129222000Y-119836000D03*
X129872000Y-119836000D03*
X130522000Y-119836000D03*
X131172000Y-119836000D03*
X131822000Y-119836000D03*
X132472000Y-119836000D03*
X133122000Y-119836000D03*
X133772000Y-119836000D03*
X134422000Y-119836000D03*
X135072000Y-119836000D03*
X135722000Y-119836000D03*
X136372000Y-119836000D03*
X137022000Y-119836000D03*
X137672000Y-119836000D03*
X138322000Y-119836000D03*
X138972000Y-119836000D03*
X139622000Y-119836000D03*
X140272000Y-119836000D03*
X140922000Y-119836000D03*
X141572000Y-119836000D03*
X142222000Y-119836000D03*
X142872000Y-119836000D03*
X143522000Y-119836000D03*
X144172000Y-119836000D03*
D11*
X146712000Y-117046000D03*
X146712000Y-116396000D03*
X146712000Y-115746000D03*
X146712000Y-115096000D03*
X146712000Y-114446000D03*
X146712000Y-113796000D03*
X146712000Y-113146000D03*
X146712000Y-112496000D03*
X146712000Y-111846000D03*
X146712000Y-111196000D03*
X146712000Y-110546000D03*
X146712000Y-109896000D03*
X146712000Y-109246000D03*
X146712000Y-108596000D03*
X146712000Y-107946000D03*
X146712000Y-107296000D03*
X146712000Y-106646000D03*
X146712000Y-105996000D03*
X146712000Y-105346000D03*
X146712000Y-104696000D03*
D10*
X144172000Y-101906000D03*
X143522000Y-101906000D03*
X142872000Y-101906000D03*
X142222000Y-101906000D03*
X141572000Y-101906000D03*
X140922000Y-101906000D03*
X140272000Y-101906000D03*
X139622000Y-101906000D03*
X138972000Y-101906000D03*
X138322000Y-101906000D03*
X137672000Y-101906000D03*
X137022000Y-101906000D03*
X136372000Y-101906000D03*
X135722000Y-101906000D03*
X135072000Y-101906000D03*
X134422000Y-101906000D03*
X133772000Y-101906000D03*
X133122000Y-101906000D03*
X132472000Y-101906000D03*
X131822000Y-101906000D03*
X131172000Y-101906000D03*
X130522000Y-101906000D03*
X129872000Y-101906000D03*
X129222000Y-101906000D03*
X128572000Y-101906000D03*
X127922000Y-101906000D03*
X127272000Y-101906000D03*
X126622000Y-101906000D03*
X125972000Y-101906000D03*
X125322000Y-101906000D03*
D11*
X122782000Y-104696000D03*
X122782000Y-105346000D03*
X122782000Y-105996000D03*
X122782000Y-106646000D03*
X122782000Y-107296000D03*
X122782000Y-107946000D03*
X122782000Y-108596000D03*
X122782000Y-109246000D03*
X122782000Y-109896000D03*
X122782000Y-110546000D03*
X122782000Y-111196000D03*
X122782000Y-111846000D03*
X122782000Y-112496000D03*
X122782000Y-113146000D03*
X122782000Y-113796000D03*
X122782000Y-114446000D03*
X122782000Y-115096000D03*
X122782000Y-115746000D03*
X122782000Y-116396000D03*
X122782000Y-117046000D03*
%TD*%
D12*
%TO.C,R18*%
X138510000Y-92075000D03*
X140335000Y-92075000D03*
%TD*%
%TO.C,R14*%
X114149500Y-121031000D03*
X115974500Y-121031000D03*
%TD*%
D13*
%TO.C,R16*%
X183157500Y-93091000D03*
X181332500Y-93091000D03*
%TD*%
D14*
%TO.C,C4*%
X147219500Y-99441000D03*
X146404500Y-99441000D03*
%TD*%
D15*
%TO.C,Y1*%
X153005000Y-92747000D03*
X153005000Y-97573000D03*
%TD*%
D16*
%TO.C,U3*%
X119761000Y-95504000D03*
X122301000Y-95504000D03*
X124841000Y-95504000D03*
X127381000Y-95504000D03*
X127381000Y-87884000D03*
X124841000Y-87884000D03*
X122301000Y-87884000D03*
X119761000Y-87884000D03*
%TD*%
D17*
%TO.C,C2*%
X125703500Y-82931000D03*
X126518500Y-82931000D03*
%TD*%
D18*
%TO.C,J2*%
X182753000Y-137160000D03*
X180213000Y-137160000D03*
X177673000Y-137160000D03*
X175133000Y-137160000D03*
X172593000Y-137160000D03*
X170053000Y-137160000D03*
X167513000Y-137160000D03*
X164973000Y-137160000D03*
X162433000Y-137160000D03*
X159893000Y-137160000D03*
X157353000Y-137160000D03*
X154813000Y-137160000D03*
X152273000Y-137160000D03*
X149733000Y-137160000D03*
X147193000Y-137160000D03*
X144653000Y-137160000D03*
X142113000Y-137160000D03*
X139573000Y-137160000D03*
X137033000Y-137160000D03*
X134493000Y-137160000D03*
X131953000Y-137160000D03*
X129413000Y-137160000D03*
X126873000Y-137160000D03*
X124333000Y-137160000D03*
X121793000Y-137160000D03*
X119253000Y-137160000D03*
X116713000Y-137160000D03*
X114173000Y-137160000D03*
X111633000Y-137160000D03*
X109093000Y-137160000D03*
X106553000Y-137160000D03*
%TD*%
D17*
%TO.C,C1*%
X63092500Y-83820000D03*
X63907500Y-83820000D03*
%TD*%
D16*
%TO.C,C6*%
X178876888Y-119888000D03*
D19*
X180876888Y-119888000D03*
%TD*%
D14*
%TO.C,C9*%
X178969500Y-99060000D03*
X178154500Y-99060000D03*
%TD*%
D20*
%TO.C,R15*%
X135636000Y-93552000D03*
X135636000Y-95377000D03*
%TD*%
D13*
%TO.C,R17*%
X183157500Y-101473000D03*
X181332500Y-101473000D03*
%TD*%
D17*
%TO.C,C5*%
X149706500Y-101600000D03*
X150521500Y-101600000D03*
%TD*%
%TO.C,C3*%
X141451500Y-94742000D03*
X142266500Y-94742000D03*
%TD*%
D21*
%TO.C,R19*%
X149225000Y-96162500D03*
X149225000Y-94337500D03*
%TD*%
D14*
%TO.C,C8*%
X179096500Y-97155000D03*
X178281500Y-97155000D03*
%TD*%
D16*
%TO.C,C7*%
X111699113Y-117856000D03*
D19*
X109699113Y-117856000D03*
%TD*%
D16*
%TO.C,U2*%
X63246000Y-103002000D03*
D22*
X65786000Y-103002000D03*
X68326000Y-103002000D03*
X70866000Y-103002000D03*
X73406000Y-103002000D03*
X75946000Y-103002000D03*
X78486000Y-103002000D03*
X81026000Y-103002000D03*
X83566000Y-103002000D03*
X86106000Y-103002000D03*
X88646000Y-103002000D03*
X91186000Y-103002000D03*
X93726000Y-103002000D03*
X96266000Y-103002000D03*
X98806000Y-103002000D03*
X101346000Y-103002000D03*
X101346000Y-87762000D03*
X98806000Y-87762000D03*
X96266000Y-87762000D03*
X93726000Y-87762000D03*
X91186000Y-87762000D03*
X88646000Y-87762000D03*
X86106000Y-87762000D03*
X83566000Y-87762000D03*
X81026000Y-87762000D03*
X78486000Y-87762000D03*
X75946000Y-87762000D03*
X73406000Y-87762000D03*
X70866000Y-87762000D03*
X68326000Y-87762000D03*
X65786000Y-87762000D03*
X63246000Y-87762000D03*
%TD*%
D23*
%TO.C,J3*%
X200533000Y-104267000D03*
X200533000Y-92837000D03*
D24*
X191643000Y-94107000D03*
D25*
X194183000Y-95377000D03*
X191643000Y-96647000D03*
X194183000Y-97917000D03*
X191643000Y-99187000D03*
X194183000Y-100457000D03*
X191643000Y-101727000D03*
X194183000Y-102997000D03*
D26*
X186813000Y-104017000D03*
X186813000Y-101477000D03*
X186813000Y-95627000D03*
X186813000Y-93087000D03*
D27*
X197483000Y-106297000D03*
X197483000Y-90807000D03*
%TD*%
M02*
