M48
; DRILL file {KiCad 6.0.2+dfsg-1} date Mon 09 May 2022 07:42:02 PM EDT
; FORMAT={-:-/ absolute / metric / decimal}
; #@! TF.CreationDate,2022-05-09T19:42:02-04:00
; #@! TF.GenerationSoftware,Kicad,Pcbnew,6.0.2+dfsg-1
; #@! TF.FileFunction,Plated,1,2,PTH
FMAT,2
METRIC
; #@! TA.AperFunction,Plated,PTH,ViaDrill
T1C0.400
; #@! TA.AperFunction,Plated,PTH,ComponentDrill
T2C0.800
; #@! TA.AperFunction,Plated,PTH,ComponentDrill
T3C0.970
; #@! TA.AperFunction,Plated,PTH,ComponentDrill
T4C1.100
; #@! TA.AperFunction,Plated,PTH,ComponentDrill
T5C1.650
%
G90
G05
T1
X63.881Y-81.788
X90.678Y-89.535
X99.771Y-109.309
X100.203Y-105.537
X102.489Y-108.745
X103.327Y-115.164
X103.378Y-123.698
X103.759Y-110.617
X104.14Y-94.793
X105.029Y-111.379
X105.562Y-95.656
X106.223Y-108.745
X106.299Y-112.141
X106.934Y-113.284
X107.823Y-114.008
X108.56Y-97.841
X112.776Y-100.457
X113.284Y-125.342
X113.538Y-101.854
X116.281Y-123.698
X118.466Y-103.175
X120.269Y-108.02
X123.215Y-90.322
X123.393Y-91.491
X124.968Y-99.441
X125.222Y-122.174
X125.857Y-86.106
X125.916Y-123.893
X126.543Y-108.661
X126.619Y-81.153
X126.746Y-121.539
X127.254Y-109.855
X127.635Y-122.301
X127.996Y-99.441
X128.295Y-82.093
X128.651Y-97.028
X129.159Y-110.617
X129.672Y-91.098
X129.921Y-111.379
X130.498Y-91.567
X130.596Y-112.268
X131.246Y-113.056
X131.826Y-86.069
X131.953Y-113.792
X132.639Y-97.688
X132.842Y-112.776
X133.147Y-86.284
X134.112Y-112.903
X134.571Y-113.791
X134.645Y-89.103
X135.147Y-115.621
X135.165Y-114.605
X135.992Y-85.395
X136.296Y-131.064
X137.033Y-113.03
X137.795Y-112.014
X139.217Y-85.42
X139.243Y-114.148
X139.294Y-83.642
X139.573Y-110.236
X141.427Y-116.535
X142.24Y-92.202
X142.951Y-81.636
X143.713Y-82.601
X144.387Y-108.56
X144.399Y-86.614
X144.399Y-89.154
X145.415Y-100.33
X145.542Y-103.378
X147.574Y-95.25
X149.86Y-127.381
X150.622Y-99.822
X152.4Y-128.778
X154.686Y-129.921
X157.226Y-129.921
X157.861Y-115.021
X157.861Y-116.713
X159.639Y-113.919
X159.639Y-116.84
X162.052Y-113.919
X162.052Y-116.967
X164.846Y-114.681
X164.846Y-117.094
X167.767Y-115.062
X167.767Y-118.999
X167.894Y-107.221
X168.91Y-125.578
X168.91Y-130.607
X169.418Y-120.777
X169.545Y-115.443
X171.323Y-120.015
X171.323Y-122.682
X171.704Y-107.315
X172.716Y-123.829
X172.72Y-121.412
X177.292Y-108.585
X179.172Y-101.346
X180.213Y-130.302
X180.492Y-91.491
X180.721Y-97.155
X188.849Y-95.631
X195.707Y-99.187
T2
X63.246Y-87.762
X63.246Y-103.002
X65.786Y-87.762
X65.786Y-103.002
X68.326Y-87.762
X68.326Y-103.002
X70.866Y-87.762
X70.866Y-103.002
X73.406Y-87.762
X73.406Y-103.002
X75.946Y-87.762
X75.946Y-103.002
X78.486Y-87.762
X78.486Y-103.002
X81.026Y-87.762
X81.026Y-103.002
X83.566Y-87.762
X83.566Y-103.002
X86.106Y-87.762
X86.106Y-103.002
X88.646Y-87.762
X88.646Y-103.002
X91.186Y-87.762
X91.186Y-103.002
X93.726Y-87.762
X93.726Y-103.002
X96.266Y-87.762
X96.266Y-103.002
X98.806Y-87.762
X98.806Y-103.002
X101.346Y-87.762
X101.346Y-103.002
X109.699Y-117.856
X111.699Y-117.856
X153.005Y-92.747
X153.005Y-97.573
X178.877Y-119.888
X180.877Y-119.888
T3
X191.643Y-94.107
X191.643Y-96.647
X191.643Y-99.187
X191.643Y-101.727
X194.183Y-95.377
X194.183Y-97.917
X194.183Y-100.457
X194.183Y-102.997
T4
X186.813Y-93.087
X186.813Y-95.627
X186.813Y-101.477
X186.813Y-104.017
T5
X197.483Y-90.807
X197.483Y-106.297
T0
M30
