%TF.GenerationSoftware,KiCad,Pcbnew,6.0.2+dfsg-1*%
%TF.CreationDate,2022-05-11T21:40:34-04:00*%
%TF.ProjectId,Cheapsk8_LAN,43686561-7073-46b3-985f-4c414e2e6b69,1*%
%TF.SameCoordinates,Original*%
%TF.FileFunction,Soldermask,Bot*%
%TF.FilePolarity,Negative*%
%FSLAX46Y46*%
G04 Gerber Fmt 4.6, Leading zero omitted, Abs format (unit mm)*
G04 Created by KiCad (PCBNEW 6.0.2+dfsg-1) date 2022-05-11 21:40:34*
%MOMM*%
%LPD*%
G01*
G04 APERTURE LIST*
%ADD10C,1.500000*%
%ADD11R,1.780000X7.620000*%
%ADD12R,1.600000X1.600000*%
%ADD13C,1.600000*%
%ADD14O,1.600000X1.600000*%
%ADD15C,3.250000*%
%ADD16R,1.478000X1.478000*%
%ADD17C,1.478000*%
%ADD18C,1.650000*%
%ADD19C,2.475000*%
G04 APERTURE END LIST*
D10*
%TO.C,Y1*%
X153005000Y-92747000D03*
X153005000Y-97573000D03*
%TD*%
D11*
%TO.C,J2*%
X182753000Y-137160000D03*
X180213000Y-137160000D03*
X177673000Y-137160000D03*
X175133000Y-137160000D03*
X172593000Y-137160000D03*
X170053000Y-137160000D03*
X167513000Y-137160000D03*
X164973000Y-137160000D03*
X162433000Y-137160000D03*
X159893000Y-137160000D03*
X157353000Y-137160000D03*
X154813000Y-137160000D03*
X152273000Y-137160000D03*
X149733000Y-137160000D03*
X147193000Y-137160000D03*
X144653000Y-137160000D03*
X142113000Y-137160000D03*
X139573000Y-137160000D03*
X137033000Y-137160000D03*
X134493000Y-137160000D03*
X131953000Y-137160000D03*
X129413000Y-137160000D03*
X126873000Y-137160000D03*
X124333000Y-137160000D03*
X121793000Y-137160000D03*
X119253000Y-137160000D03*
X116713000Y-137160000D03*
X114173000Y-137160000D03*
X111633000Y-137160000D03*
X109093000Y-137160000D03*
X106553000Y-137160000D03*
%TD*%
D12*
%TO.C,C6*%
X178876888Y-119888000D03*
D13*
X180876888Y-119888000D03*
%TD*%
D12*
%TO.C,C7*%
X111699113Y-117856000D03*
D13*
X109699113Y-117856000D03*
%TD*%
D12*
%TO.C,U2*%
X63246000Y-103002000D03*
D14*
X65786000Y-103002000D03*
X68326000Y-103002000D03*
X70866000Y-103002000D03*
X73406000Y-103002000D03*
X75946000Y-103002000D03*
X78486000Y-103002000D03*
X81026000Y-103002000D03*
X83566000Y-103002000D03*
X86106000Y-103002000D03*
X88646000Y-103002000D03*
X91186000Y-103002000D03*
X93726000Y-103002000D03*
X96266000Y-103002000D03*
X98806000Y-103002000D03*
X101346000Y-103002000D03*
X101346000Y-87762000D03*
X98806000Y-87762000D03*
X96266000Y-87762000D03*
X93726000Y-87762000D03*
X91186000Y-87762000D03*
X88646000Y-87762000D03*
X86106000Y-87762000D03*
X83566000Y-87762000D03*
X81026000Y-87762000D03*
X78486000Y-87762000D03*
X75946000Y-87762000D03*
X73406000Y-87762000D03*
X70866000Y-87762000D03*
X68326000Y-87762000D03*
X65786000Y-87762000D03*
X63246000Y-87762000D03*
%TD*%
D15*
%TO.C,J3*%
X200533000Y-104267000D03*
X200533000Y-92837000D03*
D16*
X191643000Y-94107000D03*
D17*
X194183000Y-95377000D03*
X191643000Y-96647000D03*
X194183000Y-97917000D03*
X191643000Y-99187000D03*
X194183000Y-100457000D03*
X191643000Y-101727000D03*
X194183000Y-102997000D03*
D18*
X186813000Y-104017000D03*
X186813000Y-101477000D03*
X186813000Y-95627000D03*
X186813000Y-93087000D03*
D19*
X197483000Y-106297000D03*
X197483000Y-90807000D03*
%TD*%
M02*
