%TF.GenerationSoftware,KiCad,Pcbnew,6.0.2+dfsg-1*%
%TF.CreationDate,2022-05-09T23:13:55-04:00*%
%TF.ProjectId,Cheapsk8_LAN,43686561-7073-46b3-985f-4c414e2e6b69,1*%
%TF.SameCoordinates,Original*%
%TF.FileFunction,Legend,Top*%
%TF.FilePolarity,Positive*%
%FSLAX46Y46*%
G04 Gerber Fmt 4.6, Leading zero omitted, Abs format (unit mm)*
G04 Created by KiCad (PCBNEW 6.0.2+dfsg-1) date 2022-05-09 23:13:55*
%MOMM*%
%LPD*%
G01*
G04 APERTURE LIST*
%ADD10C,0.300000*%
%ADD11C,0.150000*%
%ADD12C,0.250000*%
%ADD13C,0.050800*%
%ADD14C,0.127000*%
%ADD15C,0.120000*%
%ADD16C,0.200000*%
G04 APERTURE END LIST*
D10*
X128201828Y-131844171D02*
X128201828Y-130344171D01*
X128916114Y-130844171D02*
X128916114Y-131844171D01*
X128916114Y-130987028D02*
X128987542Y-130915600D01*
X129130400Y-130844171D01*
X129344685Y-130844171D01*
X129487542Y-130915600D01*
X129558971Y-131058457D01*
X129558971Y-131844171D01*
X130201828Y-131772742D02*
X130344685Y-131844171D01*
X130630400Y-131844171D01*
X130773257Y-131772742D01*
X130844685Y-131629885D01*
X130844685Y-131558457D01*
X130773257Y-131415600D01*
X130630400Y-131344171D01*
X130416114Y-131344171D01*
X130273257Y-131272742D01*
X130201828Y-131129885D01*
X130201828Y-131058457D01*
X130273257Y-130915600D01*
X130416114Y-130844171D01*
X130630400Y-130844171D01*
X130773257Y-130915600D01*
X132058971Y-131772742D02*
X131916114Y-131844171D01*
X131630400Y-131844171D01*
X131487542Y-131772742D01*
X131416114Y-131629885D01*
X131416114Y-131058457D01*
X131487542Y-130915600D01*
X131630400Y-130844171D01*
X131916114Y-130844171D01*
X132058971Y-130915600D01*
X132130400Y-131058457D01*
X132130400Y-131201314D01*
X131416114Y-131344171D01*
X132773257Y-131844171D02*
X132773257Y-130844171D01*
X132773257Y-131129885D02*
X132844685Y-130987028D01*
X132916114Y-130915600D01*
X133058971Y-130844171D01*
X133201828Y-130844171D01*
X133487542Y-130844171D02*
X134058971Y-130844171D01*
X133701828Y-130344171D02*
X133701828Y-131629885D01*
X133773257Y-131772742D01*
X133916114Y-131844171D01*
X134058971Y-131844171D01*
X135487542Y-130844171D02*
X136058971Y-130844171D01*
X135701828Y-130344171D02*
X135701828Y-131629885D01*
X135773257Y-131772742D01*
X135916114Y-131844171D01*
X136058971Y-131844171D01*
X136558971Y-131844171D02*
X136558971Y-130344171D01*
X137201828Y-131844171D02*
X137201828Y-131058457D01*
X137130400Y-130915600D01*
X136987542Y-130844171D01*
X136773257Y-130844171D01*
X136630400Y-130915600D01*
X136558971Y-130987028D01*
X137916114Y-131844171D02*
X137916114Y-130844171D01*
X137916114Y-130344171D02*
X137844685Y-130415600D01*
X137916114Y-130487028D01*
X137987542Y-130415600D01*
X137916114Y-130344171D01*
X137916114Y-130487028D01*
X138558971Y-131772742D02*
X138701828Y-131844171D01*
X138987542Y-131844171D01*
X139130400Y-131772742D01*
X139201828Y-131629885D01*
X139201828Y-131558457D01*
X139130400Y-131415600D01*
X138987542Y-131344171D01*
X138773257Y-131344171D01*
X138630400Y-131272742D01*
X138558971Y-131129885D01*
X138558971Y-131058457D01*
X138630400Y-130915600D01*
X138773257Y-130844171D01*
X138987542Y-130844171D01*
X139130400Y-130915600D01*
X141558971Y-131772742D02*
X141416114Y-131844171D01*
X141130400Y-131844171D01*
X140987542Y-131772742D01*
X140916114Y-131629885D01*
X140916114Y-131058457D01*
X140987542Y-130915600D01*
X141130400Y-130844171D01*
X141416114Y-130844171D01*
X141558971Y-130915600D01*
X141630400Y-131058457D01*
X141630400Y-131201314D01*
X140916114Y-131344171D01*
X142273257Y-130844171D02*
X142273257Y-131844171D01*
X142273257Y-130987028D02*
X142344685Y-130915600D01*
X142487542Y-130844171D01*
X142701828Y-130844171D01*
X142844685Y-130915600D01*
X142916114Y-131058457D01*
X142916114Y-131844171D01*
X144273257Y-131844171D02*
X144273257Y-130344171D01*
X144273257Y-131772742D02*
X144130400Y-131844171D01*
X143844685Y-131844171D01*
X143701828Y-131772742D01*
X143630400Y-131701314D01*
X143558971Y-131558457D01*
X143558971Y-131129885D01*
X143630400Y-130987028D01*
X143701828Y-130915600D01*
X143844685Y-130844171D01*
X144130400Y-130844171D01*
X144273257Y-130915600D01*
X146130400Y-131844171D02*
X146130400Y-130844171D01*
X146130400Y-130344171D02*
X146058971Y-130415600D01*
X146130400Y-130487028D01*
X146201828Y-130415600D01*
X146130400Y-130344171D01*
X146130400Y-130487028D01*
X146844685Y-130844171D02*
X146844685Y-131844171D01*
X146844685Y-130987028D02*
X146916114Y-130915600D01*
X147058971Y-130844171D01*
X147273257Y-130844171D01*
X147416114Y-130915600D01*
X147487542Y-131058457D01*
X147487542Y-131844171D01*
X147987542Y-130844171D02*
X148558971Y-130844171D01*
X148201828Y-130344171D02*
X148201828Y-131629885D01*
X148273257Y-131772742D01*
X148416114Y-131844171D01*
X148558971Y-131844171D01*
X149273257Y-131844171D02*
X149130400Y-131772742D01*
X149058971Y-131701314D01*
X148987542Y-131558457D01*
X148987542Y-131129885D01*
X149058971Y-130987028D01*
X149130400Y-130915600D01*
X149273257Y-130844171D01*
X149487542Y-130844171D01*
X149630400Y-130915600D01*
X149701828Y-130987028D01*
X149773257Y-131129885D01*
X149773257Y-131558457D01*
X149701828Y-131701314D01*
X149630400Y-131772742D01*
X149487542Y-131844171D01*
X149273257Y-131844171D01*
X151487542Y-131772742D02*
X151630400Y-131844171D01*
X151916114Y-131844171D01*
X152058971Y-131772742D01*
X152130400Y-131629885D01*
X152130400Y-131558457D01*
X152058971Y-131415600D01*
X151916114Y-131344171D01*
X151701828Y-131344171D01*
X151558971Y-131272742D01*
X151487542Y-131129885D01*
X151487542Y-131058457D01*
X151558971Y-130915600D01*
X151701828Y-130844171D01*
X151916114Y-130844171D01*
X152058971Y-130915600D01*
X152987542Y-131844171D02*
X152844685Y-131772742D01*
X152773257Y-131629885D01*
X152773257Y-130344171D01*
X153773257Y-131844171D02*
X153630400Y-131772742D01*
X153558971Y-131701314D01*
X153487542Y-131558457D01*
X153487542Y-131129885D01*
X153558971Y-130987028D01*
X153630400Y-130915600D01*
X153773257Y-130844171D01*
X153987542Y-130844171D01*
X154130400Y-130915600D01*
X154201828Y-130987028D01*
X154273257Y-131129885D01*
X154273257Y-131558457D01*
X154201828Y-131701314D01*
X154130400Y-131772742D01*
X153987542Y-131844171D01*
X153773257Y-131844171D01*
X154701828Y-130844171D02*
X155273257Y-130844171D01*
X154916114Y-130344171D02*
X154916114Y-131629885D01*
X154987542Y-131772742D01*
X155130400Y-131844171D01*
X155273257Y-131844171D01*
D11*
X160430857Y-78504171D02*
X160430857Y-77004171D01*
X161002285Y-77004171D01*
X161145142Y-77075600D01*
X161216571Y-77147028D01*
X161287999Y-77289885D01*
X161287999Y-77504171D01*
X161216571Y-77647028D01*
X161145142Y-77718457D01*
X161002285Y-77789885D01*
X160430857Y-77789885D01*
X162145142Y-78504171D02*
X162002285Y-78432742D01*
X161930857Y-78289885D01*
X161930857Y-77004171D01*
X163287999Y-78432742D02*
X163145142Y-78504171D01*
X162859428Y-78504171D01*
X162716571Y-78432742D01*
X162645142Y-78289885D01*
X162645142Y-77718457D01*
X162716571Y-77575600D01*
X162859428Y-77504171D01*
X163145142Y-77504171D01*
X163287999Y-77575600D01*
X163359428Y-77718457D01*
X163359428Y-77861314D01*
X162645142Y-78004171D01*
X164645142Y-78504171D02*
X164645142Y-77718457D01*
X164573714Y-77575600D01*
X164430857Y-77504171D01*
X164145142Y-77504171D01*
X164002285Y-77575600D01*
X164645142Y-78432742D02*
X164502285Y-78504171D01*
X164145142Y-78504171D01*
X164002285Y-78432742D01*
X163930857Y-78289885D01*
X163930857Y-78147028D01*
X164002285Y-78004171D01*
X164145142Y-77932742D01*
X164502285Y-77932742D01*
X164645142Y-77861314D01*
X165287999Y-78432742D02*
X165430857Y-78504171D01*
X165716571Y-78504171D01*
X165859428Y-78432742D01*
X165930857Y-78289885D01*
X165930857Y-78218457D01*
X165859428Y-78075600D01*
X165716571Y-78004171D01*
X165502285Y-78004171D01*
X165359428Y-77932742D01*
X165287999Y-77789885D01*
X165287999Y-77718457D01*
X165359428Y-77575600D01*
X165502285Y-77504171D01*
X165716571Y-77504171D01*
X165859428Y-77575600D01*
X167145142Y-78432742D02*
X167002285Y-78504171D01*
X166716571Y-78504171D01*
X166573714Y-78432742D01*
X166502285Y-78289885D01*
X166502285Y-77718457D01*
X166573714Y-77575600D01*
X166716571Y-77504171D01*
X167002285Y-77504171D01*
X167145142Y-77575600D01*
X167216571Y-77718457D01*
X167216571Y-77861314D01*
X166502285Y-78004171D01*
X169645142Y-78504171D02*
X169645142Y-77004171D01*
X169645142Y-78432742D02*
X169502285Y-78504171D01*
X169216571Y-78504171D01*
X169073714Y-78432742D01*
X169002285Y-78361314D01*
X168930857Y-78218457D01*
X168930857Y-77789885D01*
X169002285Y-77647028D01*
X169073714Y-77575600D01*
X169216571Y-77504171D01*
X169502285Y-77504171D01*
X169645142Y-77575600D01*
X170573714Y-78504171D02*
X170430857Y-78432742D01*
X170359428Y-78361314D01*
X170287999Y-78218457D01*
X170287999Y-77789885D01*
X170359428Y-77647028D01*
X170430857Y-77575600D01*
X170573714Y-77504171D01*
X170787999Y-77504171D01*
X170930857Y-77575600D01*
X171002285Y-77647028D01*
X171073714Y-77789885D01*
X171073714Y-78218457D01*
X171002285Y-78361314D01*
X170930857Y-78432742D01*
X170787999Y-78504171D01*
X170573714Y-78504171D01*
X172859428Y-77504171D02*
X172859428Y-78504171D01*
X172859428Y-77647028D02*
X172930857Y-77575600D01*
X173073714Y-77504171D01*
X173287999Y-77504171D01*
X173430857Y-77575600D01*
X173502285Y-77718457D01*
X173502285Y-78504171D01*
X174430857Y-78504171D02*
X174287999Y-78432742D01*
X174216571Y-78361314D01*
X174145142Y-78218457D01*
X174145142Y-77789885D01*
X174216571Y-77647028D01*
X174287999Y-77575600D01*
X174430857Y-77504171D01*
X174645142Y-77504171D01*
X174787999Y-77575600D01*
X174859428Y-77647028D01*
X174930857Y-77789885D01*
X174930857Y-78218457D01*
X174859428Y-78361314D01*
X174787999Y-78432742D01*
X174645142Y-78504171D01*
X174430857Y-78504171D01*
X175359428Y-77504171D02*
X175930857Y-77504171D01*
X175573714Y-77004171D02*
X175573714Y-78289885D01*
X175645142Y-78432742D01*
X175787999Y-78504171D01*
X175930857Y-78504171D01*
X177787999Y-78504171D02*
X177645142Y-78432742D01*
X177573714Y-78289885D01*
X177573714Y-77004171D01*
X178359428Y-78504171D02*
X178359428Y-77504171D01*
X178359428Y-77004171D02*
X178287999Y-77075600D01*
X178359428Y-77147028D01*
X178430857Y-77075600D01*
X178359428Y-77004171D01*
X178359428Y-77147028D01*
X179716571Y-78432742D02*
X179573714Y-78504171D01*
X179287999Y-78504171D01*
X179145142Y-78432742D01*
X179073714Y-78361314D01*
X179002285Y-78218457D01*
X179002285Y-77789885D01*
X179073714Y-77647028D01*
X179145142Y-77575600D01*
X179287999Y-77504171D01*
X179573714Y-77504171D01*
X179716571Y-77575600D01*
X180359428Y-78504171D02*
X180359428Y-77004171D01*
X180502285Y-77932742D02*
X180930857Y-78504171D01*
X180930857Y-77504171D02*
X180359428Y-78075600D01*
X182502285Y-77504171D02*
X183073714Y-77504171D01*
X182716571Y-77004171D02*
X182716571Y-78289885D01*
X182787999Y-78432742D01*
X182930857Y-78504171D01*
X183073714Y-78504171D01*
X183573714Y-78504171D02*
X183573714Y-77004171D01*
X184216571Y-78504171D02*
X184216571Y-77718457D01*
X184145142Y-77575600D01*
X184002285Y-77504171D01*
X183787999Y-77504171D01*
X183645142Y-77575600D01*
X183573714Y-77647028D01*
X184930857Y-78504171D02*
X184930857Y-77504171D01*
X184930857Y-77004171D02*
X184859428Y-77075600D01*
X184930857Y-77147028D01*
X185002285Y-77075600D01*
X184930857Y-77004171D01*
X184930857Y-77147028D01*
X185573714Y-78432742D02*
X185716571Y-78504171D01*
X186002285Y-78504171D01*
X186145142Y-78432742D01*
X186216571Y-78289885D01*
X186216571Y-78218457D01*
X186145142Y-78075600D01*
X186002285Y-78004171D01*
X185787999Y-78004171D01*
X185645142Y-77932742D01*
X185573714Y-77789885D01*
X185573714Y-77718457D01*
X185645142Y-77575600D01*
X185787999Y-77504171D01*
X186002285Y-77504171D01*
X186145142Y-77575600D01*
X188002285Y-78504171D02*
X188002285Y-77004171D01*
X188002285Y-77575600D02*
X188145142Y-77504171D01*
X188430857Y-77504171D01*
X188573714Y-77575600D01*
X188645142Y-77647028D01*
X188716571Y-77789885D01*
X188716571Y-78218457D01*
X188645142Y-78361314D01*
X188573714Y-78432742D01*
X188430857Y-78504171D01*
X188145142Y-78504171D01*
X188002285Y-78432742D01*
X189573714Y-78504171D02*
X189430857Y-78432742D01*
X189359428Y-78361314D01*
X189287999Y-78218457D01*
X189287999Y-77789885D01*
X189359428Y-77647028D01*
X189430857Y-77575600D01*
X189573714Y-77504171D01*
X189787999Y-77504171D01*
X189930857Y-77575600D01*
X190002285Y-77647028D01*
X190073714Y-77789885D01*
X190073714Y-78218457D01*
X190002285Y-78361314D01*
X189930857Y-78432742D01*
X189787999Y-78504171D01*
X189573714Y-78504171D01*
X191359428Y-78504171D02*
X191359428Y-77718457D01*
X191287999Y-77575600D01*
X191145142Y-77504171D01*
X190859428Y-77504171D01*
X190716571Y-77575600D01*
X191359428Y-78432742D02*
X191216571Y-78504171D01*
X190859428Y-78504171D01*
X190716571Y-78432742D01*
X190645142Y-78289885D01*
X190645142Y-78147028D01*
X190716571Y-78004171D01*
X190859428Y-77932742D01*
X191216571Y-77932742D01*
X191359428Y-77861314D01*
X192073714Y-78504171D02*
X192073714Y-77504171D01*
X192073714Y-77789885D02*
X192145142Y-77647028D01*
X192216571Y-77575600D01*
X192359428Y-77504171D01*
X192502285Y-77504171D01*
X193645142Y-78504171D02*
X193645142Y-77004171D01*
X193645142Y-78432742D02*
X193502285Y-78504171D01*
X193216571Y-78504171D01*
X193073714Y-78432742D01*
X193002285Y-78361314D01*
X192930857Y-78218457D01*
X192930857Y-77789885D01*
X193002285Y-77647028D01*
X193073714Y-77575600D01*
X193216571Y-77504171D01*
X193502285Y-77504171D01*
X193645142Y-77575600D01*
D12*
X69508123Y-123603742D02*
X69460504Y-123651361D01*
X69317647Y-123698980D01*
X69222409Y-123698980D01*
X69079552Y-123651361D01*
X68984314Y-123556123D01*
X68936695Y-123460885D01*
X68889076Y-123270409D01*
X68889076Y-123127552D01*
X68936695Y-122937076D01*
X68984314Y-122841838D01*
X69079552Y-122746600D01*
X69222409Y-122698980D01*
X69317647Y-122698980D01*
X69460504Y-122746600D01*
X69508123Y-122794219D01*
X69936695Y-123698980D02*
X69936695Y-122698980D01*
X70365266Y-123698980D02*
X70365266Y-123175171D01*
X70317647Y-123079933D01*
X70222409Y-123032314D01*
X70079552Y-123032314D01*
X69984314Y-123079933D01*
X69936695Y-123127552D01*
X71222409Y-123651361D02*
X71127171Y-123698980D01*
X70936695Y-123698980D01*
X70841457Y-123651361D01*
X70793838Y-123556123D01*
X70793838Y-123175171D01*
X70841457Y-123079933D01*
X70936695Y-123032314D01*
X71127171Y-123032314D01*
X71222409Y-123079933D01*
X71270028Y-123175171D01*
X71270028Y-123270409D01*
X70793838Y-123365647D01*
X72127171Y-123698980D02*
X72127171Y-123175171D01*
X72079552Y-123079933D01*
X71984314Y-123032314D01*
X71793838Y-123032314D01*
X71698600Y-123079933D01*
X72127171Y-123651361D02*
X72031933Y-123698980D01*
X71793838Y-123698980D01*
X71698600Y-123651361D01*
X71650980Y-123556123D01*
X71650980Y-123460885D01*
X71698600Y-123365647D01*
X71793838Y-123318028D01*
X72031933Y-123318028D01*
X72127171Y-123270409D01*
X72603361Y-123032314D02*
X72603361Y-124032314D01*
X72603361Y-123079933D02*
X72698600Y-123032314D01*
X72889076Y-123032314D01*
X72984314Y-123079933D01*
X73031933Y-123127552D01*
X73079552Y-123222790D01*
X73079552Y-123508504D01*
X73031933Y-123603742D01*
X72984314Y-123651361D01*
X72889076Y-123698980D01*
X72698600Y-123698980D01*
X72603361Y-123651361D01*
X73460504Y-123651361D02*
X73603361Y-123698980D01*
X73841457Y-123698980D01*
X73936695Y-123651361D01*
X73984314Y-123603742D01*
X74031933Y-123508504D01*
X74031933Y-123413266D01*
X73984314Y-123318028D01*
X73936695Y-123270409D01*
X73841457Y-123222790D01*
X73650980Y-123175171D01*
X73555742Y-123127552D01*
X73508123Y-123079933D01*
X73460504Y-122984695D01*
X73460504Y-122889457D01*
X73508123Y-122794219D01*
X73555742Y-122746600D01*
X73650980Y-122698980D01*
X73889076Y-122698980D01*
X74031933Y-122746600D01*
X74460504Y-123698980D02*
X74460504Y-122698980D01*
X74555742Y-123318028D02*
X74841457Y-123698980D01*
X74841457Y-123032314D02*
X74460504Y-123413266D01*
X75412885Y-123127552D02*
X75317647Y-123079933D01*
X75270028Y-123032314D01*
X75222409Y-122937076D01*
X75222409Y-122889457D01*
X75270028Y-122794219D01*
X75317647Y-122746600D01*
X75412885Y-122698980D01*
X75603361Y-122698980D01*
X75698600Y-122746600D01*
X75746219Y-122794219D01*
X75793838Y-122889457D01*
X75793838Y-122937076D01*
X75746219Y-123032314D01*
X75698600Y-123079933D01*
X75603361Y-123127552D01*
X75412885Y-123127552D01*
X75317647Y-123175171D01*
X75270028Y-123222790D01*
X75222409Y-123318028D01*
X75222409Y-123508504D01*
X75270028Y-123603742D01*
X75317647Y-123651361D01*
X75412885Y-123698980D01*
X75603361Y-123698980D01*
X75698600Y-123651361D01*
X75746219Y-123603742D01*
X75793838Y-123508504D01*
X75793838Y-123318028D01*
X75746219Y-123222790D01*
X75698600Y-123175171D01*
X75603361Y-123127552D01*
X76984314Y-123698980D02*
X76984314Y-122698980D01*
X77412885Y-123651361D02*
X77555742Y-123698980D01*
X77793838Y-123698980D01*
X77889076Y-123651361D01*
X77936695Y-123603742D01*
X77984314Y-123508504D01*
X77984314Y-123413266D01*
X77936695Y-123318028D01*
X77889076Y-123270409D01*
X77793838Y-123222790D01*
X77603361Y-123175171D01*
X77508123Y-123127552D01*
X77460504Y-123079933D01*
X77412885Y-122984695D01*
X77412885Y-122889457D01*
X77460504Y-122794219D01*
X77508123Y-122746600D01*
X77603361Y-122698980D01*
X77841457Y-122698980D01*
X77984314Y-122746600D01*
X78365266Y-123413266D02*
X78841457Y-123413266D01*
X78270028Y-123698980D02*
X78603361Y-122698980D01*
X78936695Y-123698980D01*
X80508123Y-123698980D02*
X80031933Y-123698980D01*
X80031933Y-122698980D01*
X80793838Y-123413266D02*
X81270028Y-123413266D01*
X80698600Y-123698980D02*
X81031933Y-122698980D01*
X81365266Y-123698980D01*
X81698600Y-123698980D02*
X81698600Y-122698980D01*
X82270028Y-123698980D01*
X82270028Y-122698980D01*
X84079552Y-123603742D02*
X84031933Y-123651361D01*
X83889076Y-123698980D01*
X83793838Y-123698980D01*
X83650980Y-123651361D01*
X83555742Y-123556123D01*
X83508123Y-123460885D01*
X83460504Y-123270409D01*
X83460504Y-123127552D01*
X83508123Y-122937076D01*
X83555742Y-122841838D01*
X83650980Y-122746600D01*
X83793838Y-122698980D01*
X83889076Y-122698980D01*
X84031933Y-122746600D01*
X84079552Y-122794219D01*
X84936695Y-123698980D02*
X84936695Y-123175171D01*
X84889076Y-123079933D01*
X84793838Y-123032314D01*
X84603361Y-123032314D01*
X84508123Y-123079933D01*
X84936695Y-123651361D02*
X84841457Y-123698980D01*
X84603361Y-123698980D01*
X84508123Y-123651361D01*
X84460504Y-123556123D01*
X84460504Y-123460885D01*
X84508123Y-123365647D01*
X84603361Y-123318028D01*
X84841457Y-123318028D01*
X84936695Y-123270409D01*
X85412885Y-123698980D02*
X85412885Y-123032314D01*
X85412885Y-123222790D02*
X85460504Y-123127552D01*
X85508123Y-123079933D01*
X85603361Y-123032314D01*
X85698600Y-123032314D01*
X86460504Y-123698980D02*
X86460504Y-122698980D01*
X86460504Y-123651361D02*
X86365266Y-123698980D01*
X86174790Y-123698980D01*
X86079552Y-123651361D01*
X86031933Y-123603742D01*
X85984314Y-123508504D01*
X85984314Y-123222790D01*
X86031933Y-123127552D01*
X86079552Y-123079933D01*
X86174790Y-123032314D01*
X86365266Y-123032314D01*
X86460504Y-123079933D01*
X72031933Y-124785171D02*
X72174790Y-124832790D01*
X72222409Y-124880409D01*
X72270028Y-124975647D01*
X72270028Y-125118504D01*
X72222409Y-125213742D01*
X72174790Y-125261361D01*
X72079552Y-125308980D01*
X71698600Y-125308980D01*
X71698600Y-124308980D01*
X72031933Y-124308980D01*
X72127171Y-124356600D01*
X72174790Y-124404219D01*
X72222409Y-124499457D01*
X72222409Y-124594695D01*
X72174790Y-124689933D01*
X72127171Y-124737552D01*
X72031933Y-124785171D01*
X71698600Y-124785171D01*
X72603361Y-124642314D02*
X72841457Y-125308980D01*
X73079552Y-124642314D02*
X72841457Y-125308980D01*
X72746219Y-125547076D01*
X72698600Y-125594695D01*
X72603361Y-125642314D01*
X74412885Y-124832790D02*
X74412885Y-125308980D01*
X74079552Y-124308980D02*
X74412885Y-124832790D01*
X74746219Y-124308980D01*
X75460504Y-125261361D02*
X75365266Y-125308980D01*
X75174790Y-125308980D01*
X75079552Y-125261361D01*
X75031933Y-125166123D01*
X75031933Y-124785171D01*
X75079552Y-124689933D01*
X75174790Y-124642314D01*
X75365266Y-124642314D01*
X75460504Y-124689933D01*
X75508123Y-124785171D01*
X75508123Y-124880409D01*
X75031933Y-124975647D01*
X75889076Y-125261361D02*
X75984314Y-125308980D01*
X76174790Y-125308980D01*
X76270028Y-125261361D01*
X76317647Y-125166123D01*
X76317647Y-125118504D01*
X76270028Y-125023266D01*
X76174790Y-124975647D01*
X76031933Y-124975647D01*
X75936695Y-124928028D01*
X75889076Y-124832790D01*
X75889076Y-124785171D01*
X75936695Y-124689933D01*
X76031933Y-124642314D01*
X76174790Y-124642314D01*
X76270028Y-124689933D01*
X76603361Y-124642314D02*
X76984314Y-124642314D01*
X76746219Y-124308980D02*
X76746219Y-125166123D01*
X76793838Y-125261361D01*
X76889076Y-125308980D01*
X76984314Y-125308980D01*
X77698600Y-125261361D02*
X77603361Y-125308980D01*
X77412885Y-125308980D01*
X77317647Y-125261361D01*
X77270028Y-125166123D01*
X77270028Y-124785171D01*
X77317647Y-124689933D01*
X77412885Y-124642314D01*
X77603361Y-124642314D01*
X77698600Y-124689933D01*
X77746219Y-124785171D01*
X77746219Y-124880409D01*
X77270028Y-124975647D01*
X78174790Y-125308980D02*
X78174790Y-124642314D01*
X78174790Y-124832790D02*
X78222409Y-124737552D01*
X78270028Y-124689933D01*
X78365266Y-124642314D01*
X78460504Y-124642314D01*
X79317647Y-124356600D02*
X79222409Y-124308980D01*
X79079552Y-124308980D01*
X78936695Y-124356600D01*
X78841457Y-124451838D01*
X78793838Y-124547076D01*
X78746219Y-124737552D01*
X78746219Y-124880409D01*
X78793838Y-125070885D01*
X78841457Y-125166123D01*
X78936695Y-125261361D01*
X79079552Y-125308980D01*
X79174790Y-125308980D01*
X79317647Y-125261361D01*
X79365266Y-125213742D01*
X79365266Y-124880409D01*
X79174790Y-124880409D01*
X80174790Y-125261361D02*
X80079552Y-125308980D01*
X79889076Y-125308980D01*
X79793838Y-125261361D01*
X79746219Y-125166123D01*
X79746219Y-124785171D01*
X79793838Y-124689933D01*
X79889076Y-124642314D01*
X80079552Y-124642314D01*
X80174790Y-124689933D01*
X80222409Y-124785171D01*
X80222409Y-124880409D01*
X79746219Y-124975647D01*
X81079552Y-125308980D02*
X81079552Y-124785171D01*
X81031933Y-124689933D01*
X80936695Y-124642314D01*
X80746219Y-124642314D01*
X80650980Y-124689933D01*
X81079552Y-125261361D02*
X80984314Y-125308980D01*
X80746219Y-125308980D01*
X80650980Y-125261361D01*
X80603361Y-125166123D01*
X80603361Y-125070885D01*
X80650980Y-124975647D01*
X80746219Y-124928028D01*
X80984314Y-124928028D01*
X81079552Y-124880409D01*
X81555742Y-125308980D02*
X81555742Y-124642314D01*
X81555742Y-124832790D02*
X81603361Y-124737552D01*
X81650980Y-124689933D01*
X81746219Y-124642314D01*
X81841457Y-124642314D01*
X82174790Y-125308980D02*
X82174790Y-124308980D01*
X82555742Y-124308980D01*
X82650980Y-124356600D01*
X82698600Y-124404219D01*
X82746219Y-124499457D01*
X82746219Y-124642314D01*
X82698600Y-124737552D01*
X82650980Y-124785171D01*
X82555742Y-124832790D01*
X82174790Y-124832790D01*
X83746219Y-125213742D02*
X83698600Y-125261361D01*
X83555742Y-125308980D01*
X83460504Y-125308980D01*
X83317647Y-125261361D01*
X83222409Y-125166123D01*
X83174790Y-125070885D01*
X83127171Y-124880409D01*
X83127171Y-124737552D01*
X83174790Y-124547076D01*
X83222409Y-124451838D01*
X83317647Y-124356600D01*
X83460504Y-124308980D01*
X83555742Y-124308980D01*
X83698600Y-124356600D01*
X83746219Y-124404219D01*
X69603361Y-126918980D02*
X69127171Y-126918980D01*
X69127171Y-125918980D01*
X69936695Y-126918980D02*
X69936695Y-126252314D01*
X69936695Y-125918980D02*
X69889076Y-125966600D01*
X69936695Y-126014219D01*
X69984314Y-125966600D01*
X69936695Y-125918980D01*
X69936695Y-126014219D01*
X70841457Y-126871361D02*
X70746219Y-126918980D01*
X70555742Y-126918980D01*
X70460504Y-126871361D01*
X70412885Y-126823742D01*
X70365266Y-126728504D01*
X70365266Y-126442790D01*
X70412885Y-126347552D01*
X70460504Y-126299933D01*
X70555742Y-126252314D01*
X70746219Y-126252314D01*
X70841457Y-126299933D01*
X71650980Y-126871361D02*
X71555742Y-126918980D01*
X71365266Y-126918980D01*
X71270028Y-126871361D01*
X71222409Y-126776123D01*
X71222409Y-126395171D01*
X71270028Y-126299933D01*
X71365266Y-126252314D01*
X71555742Y-126252314D01*
X71650980Y-126299933D01*
X71698600Y-126395171D01*
X71698600Y-126490409D01*
X71222409Y-126585647D01*
X72127171Y-126252314D02*
X72127171Y-126918980D01*
X72127171Y-126347552D02*
X72174790Y-126299933D01*
X72270028Y-126252314D01*
X72412885Y-126252314D01*
X72508123Y-126299933D01*
X72555742Y-126395171D01*
X72555742Y-126918980D01*
X72984314Y-126871361D02*
X73079552Y-126918980D01*
X73270028Y-126918980D01*
X73365266Y-126871361D01*
X73412885Y-126776123D01*
X73412885Y-126728504D01*
X73365266Y-126633266D01*
X73270028Y-126585647D01*
X73127171Y-126585647D01*
X73031933Y-126538028D01*
X72984314Y-126442790D01*
X72984314Y-126395171D01*
X73031933Y-126299933D01*
X73127171Y-126252314D01*
X73270028Y-126252314D01*
X73365266Y-126299933D01*
X74222409Y-126871361D02*
X74127171Y-126918980D01*
X73936695Y-126918980D01*
X73841457Y-126871361D01*
X73793838Y-126776123D01*
X73793838Y-126395171D01*
X73841457Y-126299933D01*
X73936695Y-126252314D01*
X74127171Y-126252314D01*
X74222409Y-126299933D01*
X74270028Y-126395171D01*
X74270028Y-126490409D01*
X73793838Y-126585647D01*
X74698600Y-126823742D02*
X74746219Y-126871361D01*
X74698600Y-126918980D01*
X74650980Y-126871361D01*
X74698600Y-126823742D01*
X74698600Y-126918980D01*
X74698600Y-126299933D02*
X74746219Y-126347552D01*
X74698600Y-126395171D01*
X74650980Y-126347552D01*
X74698600Y-126299933D01*
X74698600Y-126395171D01*
X76508123Y-126823742D02*
X76460504Y-126871361D01*
X76317647Y-126918980D01*
X76222409Y-126918980D01*
X76079552Y-126871361D01*
X75984314Y-126776123D01*
X75936695Y-126680885D01*
X75889076Y-126490409D01*
X75889076Y-126347552D01*
X75936695Y-126157076D01*
X75984314Y-126061838D01*
X76079552Y-125966600D01*
X76222409Y-125918980D01*
X76317647Y-125918980D01*
X76460504Y-125966600D01*
X76508123Y-126014219D01*
X77508123Y-126823742D02*
X77460504Y-126871361D01*
X77317647Y-126918980D01*
X77222409Y-126918980D01*
X77079552Y-126871361D01*
X76984314Y-126776123D01*
X76936695Y-126680885D01*
X76889076Y-126490409D01*
X76889076Y-126347552D01*
X76936695Y-126157076D01*
X76984314Y-126061838D01*
X77079552Y-125966600D01*
X77222409Y-125918980D01*
X77317647Y-125918980D01*
X77460504Y-125966600D01*
X77508123Y-126014219D01*
X79031933Y-126395171D02*
X79174790Y-126442790D01*
X79222409Y-126490409D01*
X79270028Y-126585647D01*
X79270028Y-126728504D01*
X79222409Y-126823742D01*
X79174790Y-126871361D01*
X79079552Y-126918980D01*
X78698600Y-126918980D01*
X78698600Y-125918980D01*
X79031933Y-125918980D01*
X79127171Y-125966600D01*
X79174790Y-126014219D01*
X79222409Y-126109457D01*
X79222409Y-126204695D01*
X79174790Y-126299933D01*
X79127171Y-126347552D01*
X79031933Y-126395171D01*
X78698600Y-126395171D01*
X79889076Y-126442790D02*
X79889076Y-126918980D01*
X79555742Y-125918980D02*
X79889076Y-126442790D01*
X80222409Y-125918980D01*
X80555742Y-126538028D02*
X81317647Y-126538028D01*
X81746219Y-126871361D02*
X81889076Y-126918980D01*
X82127171Y-126918980D01*
X82222409Y-126871361D01*
X82270028Y-126823742D01*
X82317647Y-126728504D01*
X82317647Y-126633266D01*
X82270028Y-126538028D01*
X82222409Y-126490409D01*
X82127171Y-126442790D01*
X81936695Y-126395171D01*
X81841457Y-126347552D01*
X81793838Y-126299933D01*
X81746219Y-126204695D01*
X81746219Y-126109457D01*
X81793838Y-126014219D01*
X81841457Y-125966600D01*
X81936695Y-125918980D01*
X82174790Y-125918980D01*
X82317647Y-125966600D01*
X82698600Y-126633266D02*
X83174790Y-126633266D01*
X82603361Y-126918980D02*
X82936695Y-125918980D01*
X83270028Y-126918980D01*
X84793838Y-126252314D02*
X84793838Y-126918980D01*
X84555742Y-125871361D02*
X84317647Y-126585647D01*
X84936695Y-126585647D01*
X85317647Y-126823742D02*
X85365266Y-126871361D01*
X85317647Y-126918980D01*
X85270028Y-126871361D01*
X85317647Y-126823742D01*
X85317647Y-126918980D01*
X85984314Y-125918980D02*
X86079552Y-125918980D01*
X86174790Y-125966600D01*
X86222409Y-126014219D01*
X86270028Y-126109457D01*
X86317647Y-126299933D01*
X86317647Y-126538028D01*
X86270028Y-126728504D01*
X86222409Y-126823742D01*
X86174790Y-126871361D01*
X86079552Y-126918980D01*
X85984314Y-126918980D01*
X85889076Y-126871361D01*
X85841457Y-126823742D01*
X85793838Y-126728504D01*
X85746219Y-126538028D01*
X85746219Y-126299933D01*
X85793838Y-126109457D01*
X85841457Y-126014219D01*
X85889076Y-125966600D01*
X85984314Y-125918980D01*
X59127171Y-128528980D02*
X59127171Y-127528980D01*
X59555742Y-128528980D02*
X59555742Y-128005171D01*
X59508123Y-127909933D01*
X59412885Y-127862314D01*
X59270028Y-127862314D01*
X59174790Y-127909933D01*
X59127171Y-127957552D01*
X59889076Y-127862314D02*
X60270028Y-127862314D01*
X60031933Y-127528980D02*
X60031933Y-128386123D01*
X60079552Y-128481361D01*
X60174790Y-128528980D01*
X60270028Y-128528980D01*
X60460504Y-127862314D02*
X60841457Y-127862314D01*
X60603361Y-127528980D02*
X60603361Y-128386123D01*
X60650980Y-128481361D01*
X60746219Y-128528980D01*
X60841457Y-128528980D01*
X61174790Y-127862314D02*
X61174790Y-128862314D01*
X61174790Y-127909933D02*
X61270028Y-127862314D01*
X61460504Y-127862314D01*
X61555742Y-127909933D01*
X61603361Y-127957552D01*
X61650980Y-128052790D01*
X61650980Y-128338504D01*
X61603361Y-128433742D01*
X61555742Y-128481361D01*
X61460504Y-128528980D01*
X61270028Y-128528980D01*
X61174790Y-128481361D01*
X62079552Y-128433742D02*
X62127171Y-128481361D01*
X62079552Y-128528980D01*
X62031933Y-128481361D01*
X62079552Y-128433742D01*
X62079552Y-128528980D01*
X62079552Y-127909933D02*
X62127171Y-127957552D01*
X62079552Y-128005171D01*
X62031933Y-127957552D01*
X62079552Y-127909933D01*
X62079552Y-128005171D01*
X63270028Y-127481361D02*
X62412885Y-128767076D01*
X64317647Y-127481361D02*
X63460504Y-128767076D01*
X65079552Y-128481361D02*
X64984314Y-128528980D01*
X64793838Y-128528980D01*
X64698600Y-128481361D01*
X64650980Y-128433742D01*
X64603361Y-128338504D01*
X64603361Y-128052790D01*
X64650980Y-127957552D01*
X64698600Y-127909933D01*
X64793838Y-127862314D01*
X64984314Y-127862314D01*
X65079552Y-127909933D01*
X65508123Y-128528980D02*
X65508123Y-127862314D01*
X65508123Y-128052790D02*
X65555742Y-127957552D01*
X65603361Y-127909933D01*
X65698600Y-127862314D01*
X65793838Y-127862314D01*
X66508123Y-128481361D02*
X66412885Y-128528980D01*
X66222409Y-128528980D01*
X66127171Y-128481361D01*
X66079552Y-128386123D01*
X66079552Y-128005171D01*
X66127171Y-127909933D01*
X66222409Y-127862314D01*
X66412885Y-127862314D01*
X66508123Y-127909933D01*
X66555742Y-128005171D01*
X66555742Y-128100409D01*
X66079552Y-128195647D01*
X67412885Y-128528980D02*
X67412885Y-128005171D01*
X67365266Y-127909933D01*
X67270028Y-127862314D01*
X67079552Y-127862314D01*
X66984314Y-127909933D01*
X67412885Y-128481361D02*
X67317647Y-128528980D01*
X67079552Y-128528980D01*
X66984314Y-128481361D01*
X66936695Y-128386123D01*
X66936695Y-128290885D01*
X66984314Y-128195647D01*
X67079552Y-128148028D01*
X67317647Y-128148028D01*
X67412885Y-128100409D01*
X67746219Y-127862314D02*
X68127171Y-127862314D01*
X67889076Y-127528980D02*
X67889076Y-128386123D01*
X67936695Y-128481361D01*
X68031933Y-128528980D01*
X68127171Y-128528980D01*
X68460504Y-128528980D02*
X68460504Y-127862314D01*
X68460504Y-127528980D02*
X68412885Y-127576600D01*
X68460504Y-127624219D01*
X68508123Y-127576600D01*
X68460504Y-127528980D01*
X68460504Y-127624219D01*
X68841457Y-127862314D02*
X69079552Y-128528980D01*
X69317647Y-127862314D01*
X70079552Y-128481361D02*
X69984314Y-128528980D01*
X69793838Y-128528980D01*
X69698600Y-128481361D01*
X69650980Y-128386123D01*
X69650980Y-128005171D01*
X69698600Y-127909933D01*
X69793838Y-127862314D01*
X69984314Y-127862314D01*
X70079552Y-127909933D01*
X70127171Y-128005171D01*
X70127171Y-128100409D01*
X69650980Y-128195647D01*
X70984314Y-128481361D02*
X70889076Y-128528980D01*
X70698600Y-128528980D01*
X70603361Y-128481361D01*
X70555742Y-128433742D01*
X70508123Y-128338504D01*
X70508123Y-128052790D01*
X70555742Y-127957552D01*
X70603361Y-127909933D01*
X70698600Y-127862314D01*
X70889076Y-127862314D01*
X70984314Y-127909933D01*
X71555742Y-128528980D02*
X71460504Y-128481361D01*
X71412885Y-128433742D01*
X71365266Y-128338504D01*
X71365266Y-128052790D01*
X71412885Y-127957552D01*
X71460504Y-127909933D01*
X71555742Y-127862314D01*
X71698600Y-127862314D01*
X71793838Y-127909933D01*
X71841457Y-127957552D01*
X71889076Y-128052790D01*
X71889076Y-128338504D01*
X71841457Y-128433742D01*
X71793838Y-128481361D01*
X71698600Y-128528980D01*
X71555742Y-128528980D01*
X72317647Y-128528980D02*
X72317647Y-127862314D01*
X72317647Y-127957552D02*
X72365266Y-127909933D01*
X72460504Y-127862314D01*
X72603361Y-127862314D01*
X72698600Y-127909933D01*
X72746219Y-128005171D01*
X72746219Y-128528980D01*
X72746219Y-128005171D02*
X72793838Y-127909933D01*
X72889076Y-127862314D01*
X73031933Y-127862314D01*
X73127171Y-127909933D01*
X73174790Y-128005171D01*
X73174790Y-128528980D01*
X73650980Y-128528980D02*
X73650980Y-127862314D01*
X73650980Y-127957552D02*
X73698600Y-127909933D01*
X73793838Y-127862314D01*
X73936695Y-127862314D01*
X74031933Y-127909933D01*
X74079552Y-128005171D01*
X74079552Y-128528980D01*
X74079552Y-128005171D02*
X74127171Y-127909933D01*
X74222409Y-127862314D01*
X74365266Y-127862314D01*
X74460504Y-127909933D01*
X74508123Y-128005171D01*
X74508123Y-128528980D01*
X75127171Y-128528980D02*
X75031933Y-128481361D01*
X74984314Y-128433742D01*
X74936695Y-128338504D01*
X74936695Y-128052790D01*
X74984314Y-127957552D01*
X75031933Y-127909933D01*
X75127171Y-127862314D01*
X75270028Y-127862314D01*
X75365266Y-127909933D01*
X75412885Y-127957552D01*
X75460504Y-128052790D01*
X75460504Y-128338504D01*
X75412885Y-128433742D01*
X75365266Y-128481361D01*
X75270028Y-128528980D01*
X75127171Y-128528980D01*
X75889076Y-127862314D02*
X75889076Y-128528980D01*
X75889076Y-127957552D02*
X75936695Y-127909933D01*
X76031933Y-127862314D01*
X76174790Y-127862314D01*
X76270028Y-127909933D01*
X76317647Y-128005171D01*
X76317647Y-128528980D01*
X76746219Y-128481361D02*
X76841457Y-128528980D01*
X77031933Y-128528980D01*
X77127171Y-128481361D01*
X77174790Y-128386123D01*
X77174790Y-128338504D01*
X77127171Y-128243266D01*
X77031933Y-128195647D01*
X76889076Y-128195647D01*
X76793838Y-128148028D01*
X76746219Y-128052790D01*
X76746219Y-128005171D01*
X76793838Y-127909933D01*
X76889076Y-127862314D01*
X77031933Y-127862314D01*
X77127171Y-127909933D01*
X77603361Y-128433742D02*
X77650980Y-128481361D01*
X77603361Y-128528980D01*
X77555742Y-128481361D01*
X77603361Y-128433742D01*
X77603361Y-128528980D01*
X78222409Y-128528980D02*
X78127171Y-128481361D01*
X78079552Y-128433742D01*
X78031933Y-128338504D01*
X78031933Y-128052790D01*
X78079552Y-127957552D01*
X78127171Y-127909933D01*
X78222409Y-127862314D01*
X78365266Y-127862314D01*
X78460504Y-127909933D01*
X78508123Y-127957552D01*
X78555742Y-128052790D01*
X78555742Y-128338504D01*
X78508123Y-128433742D01*
X78460504Y-128481361D01*
X78365266Y-128528980D01*
X78222409Y-128528980D01*
X78984314Y-128528980D02*
X78984314Y-127862314D01*
X78984314Y-128052790D02*
X79031933Y-127957552D01*
X79079552Y-127909933D01*
X79174790Y-127862314D01*
X79270028Y-127862314D01*
X80031933Y-127862314D02*
X80031933Y-128671838D01*
X79984314Y-128767076D01*
X79936695Y-128814695D01*
X79841457Y-128862314D01*
X79698600Y-128862314D01*
X79603361Y-128814695D01*
X80031933Y-128481361D02*
X79936695Y-128528980D01*
X79746219Y-128528980D01*
X79650980Y-128481361D01*
X79603361Y-128433742D01*
X79555742Y-128338504D01*
X79555742Y-128052790D01*
X79603361Y-127957552D01*
X79650980Y-127909933D01*
X79746219Y-127862314D01*
X79936695Y-127862314D01*
X80031933Y-127909933D01*
X81222409Y-127481361D02*
X80365266Y-128767076D01*
X81698600Y-128528980D02*
X81603361Y-128481361D01*
X81555742Y-128386123D01*
X81555742Y-127528980D01*
X82079552Y-128528980D02*
X82079552Y-127862314D01*
X82079552Y-127528980D02*
X82031933Y-127576600D01*
X82079552Y-127624219D01*
X82127171Y-127576600D01*
X82079552Y-127528980D01*
X82079552Y-127624219D01*
X82984314Y-128481361D02*
X82889076Y-128528980D01*
X82698600Y-128528980D01*
X82603361Y-128481361D01*
X82555742Y-128433742D01*
X82508123Y-128338504D01*
X82508123Y-128052790D01*
X82555742Y-127957552D01*
X82603361Y-127909933D01*
X82698600Y-127862314D01*
X82889076Y-127862314D01*
X82984314Y-127909933D01*
X83793838Y-128481361D02*
X83698600Y-128528980D01*
X83508123Y-128528980D01*
X83412885Y-128481361D01*
X83365266Y-128386123D01*
X83365266Y-128005171D01*
X83412885Y-127909933D01*
X83508123Y-127862314D01*
X83698600Y-127862314D01*
X83793838Y-127909933D01*
X83841457Y-128005171D01*
X83841457Y-128100409D01*
X83365266Y-128195647D01*
X84270028Y-127862314D02*
X84270028Y-128528980D01*
X84270028Y-127957552D02*
X84317647Y-127909933D01*
X84412885Y-127862314D01*
X84555742Y-127862314D01*
X84650980Y-127909933D01*
X84698600Y-128005171D01*
X84698600Y-128528980D01*
X85127171Y-128481361D02*
X85222409Y-128528980D01*
X85412885Y-128528980D01*
X85508123Y-128481361D01*
X85555742Y-128386123D01*
X85555742Y-128338504D01*
X85508123Y-128243266D01*
X85412885Y-128195647D01*
X85270028Y-128195647D01*
X85174790Y-128148028D01*
X85127171Y-128052790D01*
X85127171Y-128005171D01*
X85174790Y-127909933D01*
X85270028Y-127862314D01*
X85412885Y-127862314D01*
X85508123Y-127909933D01*
X86365266Y-128481361D02*
X86270028Y-128528980D01*
X86079552Y-128528980D01*
X85984314Y-128481361D01*
X85936695Y-128386123D01*
X85936695Y-128005171D01*
X85984314Y-127909933D01*
X86079552Y-127862314D01*
X86270028Y-127862314D01*
X86365266Y-127909933D01*
X86412885Y-128005171D01*
X86412885Y-128100409D01*
X85936695Y-128195647D01*
X86793838Y-128481361D02*
X86889076Y-128528980D01*
X87079552Y-128528980D01*
X87174790Y-128481361D01*
X87222409Y-128386123D01*
X87222409Y-128338504D01*
X87174790Y-128243266D01*
X87079552Y-128195647D01*
X86936695Y-128195647D01*
X86841457Y-128148028D01*
X86793838Y-128052790D01*
X86793838Y-128005171D01*
X86841457Y-127909933D01*
X86936695Y-127862314D01*
X87079552Y-127862314D01*
X87174790Y-127909933D01*
X88365266Y-127481361D02*
X87508123Y-128767076D01*
X88698600Y-128528980D02*
X88698600Y-127528980D01*
X88698600Y-127909933D02*
X88793838Y-127862314D01*
X88984314Y-127862314D01*
X89079552Y-127909933D01*
X89127171Y-127957552D01*
X89174790Y-128052790D01*
X89174790Y-128338504D01*
X89127171Y-128433742D01*
X89079552Y-128481361D01*
X88984314Y-128528980D01*
X88793838Y-128528980D01*
X88698600Y-128481361D01*
X89508123Y-127862314D02*
X89746219Y-128528980D01*
X89984314Y-127862314D02*
X89746219Y-128528980D01*
X89650980Y-128767076D01*
X89603361Y-128814695D01*
X89508123Y-128862314D01*
X90365266Y-128148028D02*
X91127171Y-128148028D01*
X91555742Y-128481361D02*
X91650980Y-128528980D01*
X91841457Y-128528980D01*
X91936695Y-128481361D01*
X91984314Y-128386123D01*
X91984314Y-128338504D01*
X91936695Y-128243266D01*
X91841457Y-128195647D01*
X91698600Y-128195647D01*
X91603361Y-128148028D01*
X91555742Y-128052790D01*
X91555742Y-128005171D01*
X91603361Y-127909933D01*
X91698600Y-127862314D01*
X91841457Y-127862314D01*
X91936695Y-127909933D01*
X92841457Y-128528980D02*
X92841457Y-128005171D01*
X92793838Y-127909933D01*
X92698600Y-127862314D01*
X92508123Y-127862314D01*
X92412885Y-127909933D01*
X92841457Y-128481361D02*
X92746219Y-128528980D01*
X92508123Y-128528980D01*
X92412885Y-128481361D01*
X92365266Y-128386123D01*
X92365266Y-128290885D01*
X92412885Y-128195647D01*
X92508123Y-128148028D01*
X92746219Y-128148028D01*
X92841457Y-128100409D01*
X94031933Y-127481361D02*
X93174790Y-128767076D01*
X94793838Y-127862314D02*
X94793838Y-128528980D01*
X94555742Y-127481361D02*
X94317647Y-128195647D01*
X94936695Y-128195647D01*
X95317647Y-128433742D02*
X95365266Y-128481361D01*
X95317647Y-128528980D01*
X95270028Y-128481361D01*
X95317647Y-128433742D01*
X95317647Y-128528980D01*
X95984314Y-127528980D02*
X96079552Y-127528980D01*
X96174790Y-127576600D01*
X96222409Y-127624219D01*
X96270028Y-127719457D01*
X96317647Y-127909933D01*
X96317647Y-128148028D01*
X96270028Y-128338504D01*
X96222409Y-128433742D01*
X96174790Y-128481361D01*
X96079552Y-128528980D01*
X95984314Y-128528980D01*
X95889076Y-128481361D01*
X95841457Y-128433742D01*
X95793838Y-128338504D01*
X95746219Y-128148028D01*
X95746219Y-127909933D01*
X95793838Y-127719457D01*
X95841457Y-127624219D01*
X95889076Y-127576600D01*
X95984314Y-127528980D01*
X60674790Y-130138980D02*
X60674790Y-129138980D01*
X61103361Y-130138980D02*
X61103361Y-129615171D01*
X61055742Y-129519933D01*
X60960504Y-129472314D01*
X60817647Y-129472314D01*
X60722409Y-129519933D01*
X60674790Y-129567552D01*
X61436695Y-129472314D02*
X61817647Y-129472314D01*
X61579552Y-129138980D02*
X61579552Y-129996123D01*
X61627171Y-130091361D01*
X61722409Y-130138980D01*
X61817647Y-130138980D01*
X62008123Y-129472314D02*
X62389076Y-129472314D01*
X62150980Y-129138980D02*
X62150980Y-129996123D01*
X62198600Y-130091361D01*
X62293838Y-130138980D01*
X62389076Y-130138980D01*
X62722409Y-129472314D02*
X62722409Y-130472314D01*
X62722409Y-129519933D02*
X62817647Y-129472314D01*
X63008123Y-129472314D01*
X63103361Y-129519933D01*
X63150980Y-129567552D01*
X63198600Y-129662790D01*
X63198600Y-129948504D01*
X63150980Y-130043742D01*
X63103361Y-130091361D01*
X63008123Y-130138980D01*
X62817647Y-130138980D01*
X62722409Y-130091361D01*
X63627171Y-130043742D02*
X63674790Y-130091361D01*
X63627171Y-130138980D01*
X63579552Y-130091361D01*
X63627171Y-130043742D01*
X63627171Y-130138980D01*
X63627171Y-129519933D02*
X63674790Y-129567552D01*
X63627171Y-129615171D01*
X63579552Y-129567552D01*
X63627171Y-129519933D01*
X63627171Y-129615171D01*
X64817647Y-129091361D02*
X63960504Y-130377076D01*
X65865266Y-129091361D02*
X65008123Y-130377076D01*
X66627171Y-129472314D02*
X66627171Y-130281838D01*
X66579552Y-130377076D01*
X66531933Y-130424695D01*
X66436695Y-130472314D01*
X66293838Y-130472314D01*
X66198600Y-130424695D01*
X66627171Y-130091361D02*
X66531933Y-130138980D01*
X66341457Y-130138980D01*
X66246219Y-130091361D01*
X66198600Y-130043742D01*
X66150980Y-129948504D01*
X66150980Y-129662790D01*
X66198600Y-129567552D01*
X66246219Y-129519933D01*
X66341457Y-129472314D01*
X66531933Y-129472314D01*
X66627171Y-129519933D01*
X67103361Y-130138980D02*
X67103361Y-129472314D01*
X67103361Y-129138980D02*
X67055742Y-129186600D01*
X67103361Y-129234219D01*
X67150980Y-129186600D01*
X67103361Y-129138980D01*
X67103361Y-129234219D01*
X67436695Y-129472314D02*
X67817647Y-129472314D01*
X67579552Y-129138980D02*
X67579552Y-129996123D01*
X67627171Y-130091361D01*
X67722409Y-130138980D01*
X67817647Y-130138980D01*
X68150980Y-130138980D02*
X68150980Y-129138980D01*
X68579552Y-130138980D02*
X68579552Y-129615171D01*
X68531933Y-129519933D01*
X68436695Y-129472314D01*
X68293838Y-129472314D01*
X68198600Y-129519933D01*
X68150980Y-129567552D01*
X69484314Y-129472314D02*
X69484314Y-130138980D01*
X69055742Y-129472314D02*
X69055742Y-129996123D01*
X69103361Y-130091361D01*
X69198600Y-130138980D01*
X69341457Y-130138980D01*
X69436695Y-130091361D01*
X69484314Y-130043742D01*
X69960504Y-130138980D02*
X69960504Y-129138980D01*
X69960504Y-129519933D02*
X70055742Y-129472314D01*
X70246219Y-129472314D01*
X70341457Y-129519933D01*
X70389076Y-129567552D01*
X70436695Y-129662790D01*
X70436695Y-129948504D01*
X70389076Y-130043742D01*
X70341457Y-130091361D01*
X70246219Y-130138980D01*
X70055742Y-130138980D01*
X69960504Y-130091361D01*
X70865266Y-130043742D02*
X70912885Y-130091361D01*
X70865266Y-130138980D01*
X70817647Y-130091361D01*
X70865266Y-130043742D01*
X70865266Y-130138980D01*
X71770028Y-130091361D02*
X71674790Y-130138980D01*
X71484314Y-130138980D01*
X71389076Y-130091361D01*
X71341457Y-130043742D01*
X71293838Y-129948504D01*
X71293838Y-129662790D01*
X71341457Y-129567552D01*
X71389076Y-129519933D01*
X71484314Y-129472314D01*
X71674790Y-129472314D01*
X71770028Y-129519933D01*
X72341457Y-130138980D02*
X72246219Y-130091361D01*
X72198600Y-130043742D01*
X72150980Y-129948504D01*
X72150980Y-129662790D01*
X72198600Y-129567552D01*
X72246219Y-129519933D01*
X72341457Y-129472314D01*
X72484314Y-129472314D01*
X72579552Y-129519933D01*
X72627171Y-129567552D01*
X72674790Y-129662790D01*
X72674790Y-129948504D01*
X72627171Y-130043742D01*
X72579552Y-130091361D01*
X72484314Y-130138980D01*
X72341457Y-130138980D01*
X73103361Y-130138980D02*
X73103361Y-129472314D01*
X73103361Y-129567552D02*
X73150980Y-129519933D01*
X73246219Y-129472314D01*
X73389076Y-129472314D01*
X73484314Y-129519933D01*
X73531933Y-129615171D01*
X73531933Y-130138980D01*
X73531933Y-129615171D02*
X73579552Y-129519933D01*
X73674790Y-129472314D01*
X73817647Y-129472314D01*
X73912885Y-129519933D01*
X73960504Y-129615171D01*
X73960504Y-130138980D01*
X75150980Y-129091361D02*
X74293838Y-130377076D01*
X75389076Y-129472314D02*
X75912885Y-129472314D01*
X75389076Y-130138980D01*
X75912885Y-130138980D01*
X76436695Y-130138980D02*
X76341457Y-130091361D01*
X76293838Y-130043742D01*
X76246219Y-129948504D01*
X76246219Y-129662790D01*
X76293838Y-129567552D01*
X76341457Y-129519933D01*
X76436695Y-129472314D01*
X76579552Y-129472314D01*
X76674790Y-129519933D01*
X76722409Y-129567552D01*
X76770028Y-129662790D01*
X76770028Y-129948504D01*
X76722409Y-130043742D01*
X76674790Y-130091361D01*
X76579552Y-130138980D01*
X76436695Y-130138980D01*
X77198600Y-130138980D02*
X77198600Y-129472314D01*
X77198600Y-129567552D02*
X77246219Y-129519933D01*
X77341457Y-129472314D01*
X77484314Y-129472314D01*
X77579552Y-129519933D01*
X77627171Y-129615171D01*
X77627171Y-130138980D01*
X77627171Y-129615171D02*
X77674790Y-129519933D01*
X77770028Y-129472314D01*
X77912885Y-129472314D01*
X78008123Y-129519933D01*
X78055742Y-129615171D01*
X78055742Y-130138980D01*
X78531933Y-130138980D02*
X78531933Y-129138980D01*
X78531933Y-129519933D02*
X78627171Y-129472314D01*
X78817647Y-129472314D01*
X78912885Y-129519933D01*
X78960504Y-129567552D01*
X79008123Y-129662790D01*
X79008123Y-129948504D01*
X78960504Y-130043742D01*
X78912885Y-130091361D01*
X78817647Y-130138980D01*
X78627171Y-130138980D01*
X78531933Y-130091361D01*
X79436695Y-130138980D02*
X79436695Y-129472314D01*
X79436695Y-129138980D02*
X79389076Y-129186600D01*
X79436695Y-129234219D01*
X79484314Y-129186600D01*
X79436695Y-129138980D01*
X79436695Y-129234219D01*
X80293838Y-130091361D02*
X80198600Y-130138980D01*
X80008123Y-130138980D01*
X79912885Y-130091361D01*
X79865266Y-129996123D01*
X79865266Y-129615171D01*
X79912885Y-129519933D01*
X80008123Y-129472314D01*
X80198600Y-129472314D01*
X80293838Y-129519933D01*
X80341457Y-129615171D01*
X80341457Y-129710409D01*
X79865266Y-129805647D01*
X80770028Y-129472314D02*
X80770028Y-130138980D01*
X80770028Y-129567552D02*
X80817647Y-129519933D01*
X80912885Y-129472314D01*
X81055742Y-129472314D01*
X81150980Y-129519933D01*
X81198600Y-129615171D01*
X81198600Y-130138980D01*
X82055742Y-130091361D02*
X81960504Y-130138980D01*
X81770028Y-130138980D01*
X81674790Y-130091361D01*
X81627171Y-129996123D01*
X81627171Y-129615171D01*
X81674790Y-129519933D01*
X81770028Y-129472314D01*
X81960504Y-129472314D01*
X82055742Y-129519933D01*
X82103361Y-129615171D01*
X82103361Y-129710409D01*
X81627171Y-129805647D01*
X82531933Y-130138980D02*
X82531933Y-129472314D01*
X82531933Y-129662790D02*
X82579552Y-129567552D01*
X82627171Y-129519933D01*
X82722409Y-129472314D01*
X82817647Y-129472314D01*
X83579552Y-130138980D02*
X83579552Y-129138980D01*
X83579552Y-130091361D02*
X83484314Y-130138980D01*
X83293838Y-130138980D01*
X83198600Y-130091361D01*
X83150980Y-130043742D01*
X83103361Y-129948504D01*
X83103361Y-129662790D01*
X83150980Y-129567552D01*
X83198600Y-129519933D01*
X83293838Y-129472314D01*
X83484314Y-129472314D01*
X83579552Y-129519933D01*
X84770028Y-129091361D02*
X83912885Y-130377076D01*
X85531933Y-130091361D02*
X85436695Y-130138980D01*
X85246219Y-130138980D01*
X85150980Y-130091361D01*
X85103361Y-130043742D01*
X85055742Y-129948504D01*
X85055742Y-129662790D01*
X85103361Y-129567552D01*
X85150980Y-129519933D01*
X85246219Y-129472314D01*
X85436695Y-129472314D01*
X85531933Y-129519933D01*
X85960504Y-130138980D02*
X85960504Y-129138980D01*
X86389076Y-130138980D02*
X86389076Y-129615171D01*
X86341457Y-129519933D01*
X86246219Y-129472314D01*
X86103361Y-129472314D01*
X86008123Y-129519933D01*
X85960504Y-129567552D01*
X87246219Y-130091361D02*
X87150980Y-130138980D01*
X86960504Y-130138980D01*
X86865266Y-130091361D01*
X86817647Y-129996123D01*
X86817647Y-129615171D01*
X86865266Y-129519933D01*
X86960504Y-129472314D01*
X87150980Y-129472314D01*
X87246219Y-129519933D01*
X87293838Y-129615171D01*
X87293838Y-129710409D01*
X86817647Y-129805647D01*
X88150980Y-130138980D02*
X88150980Y-129615171D01*
X88103361Y-129519933D01*
X88008123Y-129472314D01*
X87817647Y-129472314D01*
X87722409Y-129519933D01*
X88150980Y-130091361D02*
X88055742Y-130138980D01*
X87817647Y-130138980D01*
X87722409Y-130091361D01*
X87674790Y-129996123D01*
X87674790Y-129900885D01*
X87722409Y-129805647D01*
X87817647Y-129758028D01*
X88055742Y-129758028D01*
X88150980Y-129710409D01*
X88627171Y-129472314D02*
X88627171Y-130472314D01*
X88627171Y-129519933D02*
X88722409Y-129472314D01*
X88912885Y-129472314D01*
X89008123Y-129519933D01*
X89055742Y-129567552D01*
X89103361Y-129662790D01*
X89103361Y-129948504D01*
X89055742Y-130043742D01*
X89008123Y-130091361D01*
X88912885Y-130138980D01*
X88722409Y-130138980D01*
X88627171Y-130091361D01*
X89484314Y-130091361D02*
X89579552Y-130138980D01*
X89770028Y-130138980D01*
X89865266Y-130091361D01*
X89912885Y-129996123D01*
X89912885Y-129948504D01*
X89865266Y-129853266D01*
X89770028Y-129805647D01*
X89627171Y-129805647D01*
X89531933Y-129758028D01*
X89484314Y-129662790D01*
X89484314Y-129615171D01*
X89531933Y-129519933D01*
X89627171Y-129472314D01*
X89770028Y-129472314D01*
X89865266Y-129519933D01*
X90341457Y-130138980D02*
X90341457Y-129138980D01*
X90436695Y-129758028D02*
X90722409Y-130138980D01*
X90722409Y-129472314D02*
X90341457Y-129853266D01*
X91293838Y-129567552D02*
X91198600Y-129519933D01*
X91150980Y-129472314D01*
X91103361Y-129377076D01*
X91103361Y-129329457D01*
X91150980Y-129234219D01*
X91198600Y-129186600D01*
X91293838Y-129138980D01*
X91484314Y-129138980D01*
X91579552Y-129186600D01*
X91627171Y-129234219D01*
X91674790Y-129329457D01*
X91674790Y-129377076D01*
X91627171Y-129472314D01*
X91579552Y-129519933D01*
X91484314Y-129567552D01*
X91293838Y-129567552D01*
X91198600Y-129615171D01*
X91150980Y-129662790D01*
X91103361Y-129758028D01*
X91103361Y-129948504D01*
X91150980Y-130043742D01*
X91198600Y-130091361D01*
X91293838Y-130138980D01*
X91484314Y-130138980D01*
X91579552Y-130091361D01*
X91627171Y-130043742D01*
X91674790Y-129948504D01*
X91674790Y-129758028D01*
X91627171Y-129662790D01*
X91579552Y-129615171D01*
X91484314Y-129567552D01*
X91865266Y-130234219D02*
X92627171Y-130234219D01*
X93008123Y-130138980D02*
X92912885Y-130091361D01*
X92865266Y-129996123D01*
X92865266Y-129138980D01*
X93817647Y-130138980D02*
X93817647Y-129615171D01*
X93770028Y-129519933D01*
X93674790Y-129472314D01*
X93484314Y-129472314D01*
X93389076Y-129519933D01*
X93817647Y-130091361D02*
X93722409Y-130138980D01*
X93484314Y-130138980D01*
X93389076Y-130091361D01*
X93341457Y-129996123D01*
X93341457Y-129900885D01*
X93389076Y-129805647D01*
X93484314Y-129758028D01*
X93722409Y-129758028D01*
X93817647Y-129710409D01*
X94293838Y-129472314D02*
X94293838Y-130138980D01*
X94293838Y-129567552D02*
X94341457Y-129519933D01*
X94436695Y-129472314D01*
X94579552Y-129472314D01*
X94674790Y-129519933D01*
X94722409Y-129615171D01*
X94722409Y-130138980D01*
X62341619Y-104963980D02*
X62532095Y-104963980D01*
X62627333Y-105011600D01*
X62722571Y-105106838D01*
X62770190Y-105297314D01*
X62770190Y-105630647D01*
X62722571Y-105821123D01*
X62627333Y-105916361D01*
X62532095Y-105963980D01*
X62341619Y-105963980D01*
X62246380Y-105916361D01*
X62151142Y-105821123D01*
X62103523Y-105630647D01*
X62103523Y-105297314D01*
X62151142Y-105106838D01*
X62246380Y-105011600D01*
X62341619Y-104963980D01*
X63198761Y-105297314D02*
X63198761Y-106297314D01*
X63198761Y-105344933D02*
X63294000Y-105297314D01*
X63484476Y-105297314D01*
X63579714Y-105344933D01*
X63627333Y-105392552D01*
X63674952Y-105487790D01*
X63674952Y-105773504D01*
X63627333Y-105868742D01*
X63579714Y-105916361D01*
X63484476Y-105963980D01*
X63294000Y-105963980D01*
X63198761Y-105916361D01*
X63960666Y-105297314D02*
X64341619Y-105297314D01*
X64103523Y-104963980D02*
X64103523Y-105821123D01*
X64151142Y-105916361D01*
X64246380Y-105963980D01*
X64341619Y-105963980D01*
X64674952Y-105963980D02*
X64674952Y-105297314D01*
X64674952Y-104963980D02*
X64627333Y-105011600D01*
X64674952Y-105059219D01*
X64722571Y-105011600D01*
X64674952Y-104963980D01*
X64674952Y-105059219D01*
X65294000Y-105963980D02*
X65198761Y-105916361D01*
X65151142Y-105868742D01*
X65103523Y-105773504D01*
X65103523Y-105487790D01*
X65151142Y-105392552D01*
X65198761Y-105344933D01*
X65294000Y-105297314D01*
X65436857Y-105297314D01*
X65532095Y-105344933D01*
X65579714Y-105392552D01*
X65627333Y-105487790D01*
X65627333Y-105773504D01*
X65579714Y-105868742D01*
X65532095Y-105916361D01*
X65436857Y-105963980D01*
X65294000Y-105963980D01*
X66055904Y-105297314D02*
X66055904Y-105963980D01*
X66055904Y-105392552D02*
X66103523Y-105344933D01*
X66198761Y-105297314D01*
X66341619Y-105297314D01*
X66436857Y-105344933D01*
X66484476Y-105440171D01*
X66484476Y-105963980D01*
X68294000Y-105963980D02*
X67960666Y-105487790D01*
X67722571Y-105963980D02*
X67722571Y-104963980D01*
X68103523Y-104963980D01*
X68198761Y-105011600D01*
X68246380Y-105059219D01*
X68294000Y-105154457D01*
X68294000Y-105297314D01*
X68246380Y-105392552D01*
X68198761Y-105440171D01*
X68103523Y-105487790D01*
X67722571Y-105487790D01*
X68913047Y-104963980D02*
X69103523Y-104963980D01*
X69198761Y-105011600D01*
X69294000Y-105106838D01*
X69341619Y-105297314D01*
X69341619Y-105630647D01*
X69294000Y-105821123D01*
X69198761Y-105916361D01*
X69103523Y-105963980D01*
X68913047Y-105963980D01*
X68817809Y-105916361D01*
X68722571Y-105821123D01*
X68674952Y-105630647D01*
X68674952Y-105297314D01*
X68722571Y-105106838D01*
X68817809Y-105011600D01*
X68913047Y-104963980D01*
X69770190Y-105963980D02*
X69770190Y-104963980D01*
X70103523Y-105678266D01*
X70436857Y-104963980D01*
X70436857Y-105963980D01*
D11*
%TO.C,U1*%
X134315333Y-108453333D02*
X134315333Y-109586666D01*
X134382000Y-109720000D01*
X134448666Y-109786666D01*
X134582000Y-109853333D01*
X134848666Y-109853333D01*
X134982000Y-109786666D01*
X135048666Y-109720000D01*
X135115333Y-109586666D01*
X135115333Y-108453333D01*
X136515333Y-109853333D02*
X135715333Y-109853333D01*
X136115333Y-109853333D02*
X136115333Y-108453333D01*
X135982000Y-108653333D01*
X135848666Y-108786666D01*
X135715333Y-108853333D01*
%TO.C,R18*%
X138779642Y-91097380D02*
X138446309Y-90621190D01*
X138208214Y-91097380D02*
X138208214Y-90097380D01*
X138589166Y-90097380D01*
X138684404Y-90145000D01*
X138732023Y-90192619D01*
X138779642Y-90287857D01*
X138779642Y-90430714D01*
X138732023Y-90525952D01*
X138684404Y-90573571D01*
X138589166Y-90621190D01*
X138208214Y-90621190D01*
X139732023Y-91097380D02*
X139160595Y-91097380D01*
X139446309Y-91097380D02*
X139446309Y-90097380D01*
X139351071Y-90240238D01*
X139255833Y-90335476D01*
X139160595Y-90383095D01*
X140303452Y-90525952D02*
X140208214Y-90478333D01*
X140160595Y-90430714D01*
X140112976Y-90335476D01*
X140112976Y-90287857D01*
X140160595Y-90192619D01*
X140208214Y-90145000D01*
X140303452Y-90097380D01*
X140493928Y-90097380D01*
X140589166Y-90145000D01*
X140636785Y-90192619D01*
X140684404Y-90287857D01*
X140684404Y-90335476D01*
X140636785Y-90430714D01*
X140589166Y-90478333D01*
X140493928Y-90525952D01*
X140303452Y-90525952D01*
X140208214Y-90573571D01*
X140160595Y-90621190D01*
X140112976Y-90716428D01*
X140112976Y-90906904D01*
X140160595Y-91002142D01*
X140208214Y-91049761D01*
X140303452Y-91097380D01*
X140493928Y-91097380D01*
X140589166Y-91049761D01*
X140636785Y-91002142D01*
X140684404Y-90906904D01*
X140684404Y-90716428D01*
X140636785Y-90621190D01*
X140589166Y-90573571D01*
X140493928Y-90525952D01*
%TO.C,R14*%
X114419142Y-120053380D02*
X114085809Y-119577190D01*
X113847714Y-120053380D02*
X113847714Y-119053380D01*
X114228666Y-119053380D01*
X114323904Y-119101000D01*
X114371523Y-119148619D01*
X114419142Y-119243857D01*
X114419142Y-119386714D01*
X114371523Y-119481952D01*
X114323904Y-119529571D01*
X114228666Y-119577190D01*
X113847714Y-119577190D01*
X115371523Y-120053380D02*
X114800095Y-120053380D01*
X115085809Y-120053380D02*
X115085809Y-119053380D01*
X114990571Y-119196238D01*
X114895333Y-119291476D01*
X114800095Y-119339095D01*
X116228666Y-119386714D02*
X116228666Y-120053380D01*
X115990571Y-119005761D02*
X115752476Y-119720047D01*
X116371523Y-119720047D01*
%TO.C,R16*%
X181602142Y-94973380D02*
X181268809Y-94497190D01*
X181030714Y-94973380D02*
X181030714Y-93973380D01*
X181411666Y-93973380D01*
X181506904Y-94021000D01*
X181554523Y-94068619D01*
X181602142Y-94163857D01*
X181602142Y-94306714D01*
X181554523Y-94401952D01*
X181506904Y-94449571D01*
X181411666Y-94497190D01*
X181030714Y-94497190D01*
X182554523Y-94973380D02*
X181983095Y-94973380D01*
X182268809Y-94973380D02*
X182268809Y-93973380D01*
X182173571Y-94116238D01*
X182078333Y-94211476D01*
X181983095Y-94259095D01*
X183411666Y-93973380D02*
X183221190Y-93973380D01*
X183125952Y-94021000D01*
X183078333Y-94068619D01*
X182983095Y-94211476D01*
X182935476Y-94401952D01*
X182935476Y-94782904D01*
X182983095Y-94878142D01*
X183030714Y-94925761D01*
X183125952Y-94973380D01*
X183316428Y-94973380D01*
X183411666Y-94925761D01*
X183459285Y-94878142D01*
X183506904Y-94782904D01*
X183506904Y-94544809D01*
X183459285Y-94449571D01*
X183411666Y-94401952D01*
X183316428Y-94354333D01*
X183125952Y-94354333D01*
X183030714Y-94401952D01*
X182983095Y-94449571D01*
X182935476Y-94544809D01*
%TO.C,C4*%
X146645333Y-100848142D02*
X146597714Y-100895761D01*
X146454857Y-100943380D01*
X146359619Y-100943380D01*
X146216761Y-100895761D01*
X146121523Y-100800523D01*
X146073904Y-100705285D01*
X146026285Y-100514809D01*
X146026285Y-100371952D01*
X146073904Y-100181476D01*
X146121523Y-100086238D01*
X146216761Y-99991000D01*
X146359619Y-99943380D01*
X146454857Y-99943380D01*
X146597714Y-99991000D01*
X146645333Y-100038619D01*
X147502476Y-100276714D02*
X147502476Y-100943380D01*
X147264380Y-99895761D02*
X147026285Y-100610047D01*
X147645333Y-100610047D01*
%TO.C,Y1*%
X155841309Y-101924190D02*
X155841309Y-102400380D01*
X155507976Y-101400380D02*
X155841309Y-101924190D01*
X156174642Y-101400380D01*
X157031785Y-102400380D02*
X156460357Y-102400380D01*
X156746071Y-102400380D02*
X156746071Y-101400380D01*
X156650833Y-101543238D01*
X156555595Y-101638476D01*
X156460357Y-101686095D01*
%TO.C,U3*%
X116883380Y-92455904D02*
X117692904Y-92455904D01*
X117788142Y-92408285D01*
X117835761Y-92360666D01*
X117883380Y-92265428D01*
X117883380Y-92074952D01*
X117835761Y-91979714D01*
X117788142Y-91932095D01*
X117692904Y-91884476D01*
X116883380Y-91884476D01*
X116883380Y-91503523D02*
X116883380Y-90884476D01*
X117264333Y-91217809D01*
X117264333Y-91074952D01*
X117311952Y-90979714D01*
X117359571Y-90932095D01*
X117454809Y-90884476D01*
X117692904Y-90884476D01*
X117788142Y-90932095D01*
X117835761Y-90979714D01*
X117883380Y-91074952D01*
X117883380Y-91360666D01*
X117835761Y-91455904D01*
X117788142Y-91503523D01*
%TO.C,C2*%
X125944333Y-82238142D02*
X125896714Y-82285761D01*
X125753857Y-82333380D01*
X125658619Y-82333380D01*
X125515761Y-82285761D01*
X125420523Y-82190523D01*
X125372904Y-82095285D01*
X125325285Y-81904809D01*
X125325285Y-81761952D01*
X125372904Y-81571476D01*
X125420523Y-81476238D01*
X125515761Y-81381000D01*
X125658619Y-81333380D01*
X125753857Y-81333380D01*
X125896714Y-81381000D01*
X125944333Y-81428619D01*
X126325285Y-81428619D02*
X126372904Y-81381000D01*
X126468142Y-81333380D01*
X126706238Y-81333380D01*
X126801476Y-81381000D01*
X126849095Y-81428619D01*
X126896714Y-81523857D01*
X126896714Y-81619095D01*
X126849095Y-81761952D01*
X126277666Y-82333380D01*
X126896714Y-82333380D01*
%TO.C,J2*%
X121459666Y-129622380D02*
X121459666Y-130336666D01*
X121412047Y-130479523D01*
X121316809Y-130574761D01*
X121173952Y-130622380D01*
X121078714Y-130622380D01*
X121888238Y-129717619D02*
X121935857Y-129670000D01*
X122031095Y-129622380D01*
X122269190Y-129622380D01*
X122364428Y-129670000D01*
X122412047Y-129717619D01*
X122459666Y-129812857D01*
X122459666Y-129908095D01*
X122412047Y-130050952D01*
X121840619Y-130622380D01*
X122459666Y-130622380D01*
%TO.C,C1*%
X63333333Y-83127142D02*
X63285714Y-83174761D01*
X63142857Y-83222380D01*
X63047619Y-83222380D01*
X62904761Y-83174761D01*
X62809523Y-83079523D01*
X62761904Y-82984285D01*
X62714285Y-82793809D01*
X62714285Y-82650952D01*
X62761904Y-82460476D01*
X62809523Y-82365238D01*
X62904761Y-82270000D01*
X63047619Y-82222380D01*
X63142857Y-82222380D01*
X63285714Y-82270000D01*
X63333333Y-82317619D01*
X64285714Y-83222380D02*
X63714285Y-83222380D01*
X64000000Y-83222380D02*
X64000000Y-82222380D01*
X63904761Y-82365238D01*
X63809523Y-82460476D01*
X63714285Y-82508095D01*
%TO.C,C6*%
X179710221Y-116495142D02*
X179662602Y-116542761D01*
X179519745Y-116590380D01*
X179424507Y-116590380D01*
X179281649Y-116542761D01*
X179186411Y-116447523D01*
X179138792Y-116352285D01*
X179091173Y-116161809D01*
X179091173Y-116018952D01*
X179138792Y-115828476D01*
X179186411Y-115733238D01*
X179281649Y-115638000D01*
X179424507Y-115590380D01*
X179519745Y-115590380D01*
X179662602Y-115638000D01*
X179710221Y-115685619D01*
X180567364Y-115590380D02*
X180376888Y-115590380D01*
X180281649Y-115638000D01*
X180234030Y-115685619D01*
X180138792Y-115828476D01*
X180091173Y-116018952D01*
X180091173Y-116399904D01*
X180138792Y-116495142D01*
X180186411Y-116542761D01*
X180281649Y-116590380D01*
X180472126Y-116590380D01*
X180567364Y-116542761D01*
X180614983Y-116495142D01*
X180662602Y-116399904D01*
X180662602Y-116161809D01*
X180614983Y-116066571D01*
X180567364Y-116018952D01*
X180472126Y-115971333D01*
X180281649Y-115971333D01*
X180186411Y-116018952D01*
X180138792Y-116066571D01*
X180091173Y-116161809D01*
%TO.C,C9*%
X178395333Y-100467142D02*
X178347714Y-100514761D01*
X178204857Y-100562380D01*
X178109619Y-100562380D01*
X177966761Y-100514761D01*
X177871523Y-100419523D01*
X177823904Y-100324285D01*
X177776285Y-100133809D01*
X177776285Y-99990952D01*
X177823904Y-99800476D01*
X177871523Y-99705238D01*
X177966761Y-99610000D01*
X178109619Y-99562380D01*
X178204857Y-99562380D01*
X178347714Y-99610000D01*
X178395333Y-99657619D01*
X178871523Y-100562380D02*
X179062000Y-100562380D01*
X179157238Y-100514761D01*
X179204857Y-100467142D01*
X179300095Y-100324285D01*
X179347714Y-100133809D01*
X179347714Y-99752857D01*
X179300095Y-99657619D01*
X179252476Y-99610000D01*
X179157238Y-99562380D01*
X178966761Y-99562380D01*
X178871523Y-99610000D01*
X178823904Y-99657619D01*
X178776285Y-99752857D01*
X178776285Y-99990952D01*
X178823904Y-100086190D01*
X178871523Y-100133809D01*
X178966761Y-100181428D01*
X179157238Y-100181428D01*
X179252476Y-100133809D01*
X179300095Y-100086190D01*
X179347714Y-99990952D01*
%TO.C,R15*%
X137518380Y-95107357D02*
X137042190Y-95440690D01*
X137518380Y-95678785D02*
X136518380Y-95678785D01*
X136518380Y-95297833D01*
X136566000Y-95202595D01*
X136613619Y-95154976D01*
X136708857Y-95107357D01*
X136851714Y-95107357D01*
X136946952Y-95154976D01*
X136994571Y-95202595D01*
X137042190Y-95297833D01*
X137042190Y-95678785D01*
X137518380Y-94154976D02*
X137518380Y-94726404D01*
X137518380Y-94440690D02*
X136518380Y-94440690D01*
X136661238Y-94535928D01*
X136756476Y-94631166D01*
X136804095Y-94726404D01*
X136518380Y-93250214D02*
X136518380Y-93726404D01*
X136994571Y-93774023D01*
X136946952Y-93726404D01*
X136899333Y-93631166D01*
X136899333Y-93393071D01*
X136946952Y-93297833D01*
X136994571Y-93250214D01*
X137089809Y-93202595D01*
X137327904Y-93202595D01*
X137423142Y-93250214D01*
X137470761Y-93297833D01*
X137518380Y-93393071D01*
X137518380Y-93631166D01*
X137470761Y-93726404D01*
X137423142Y-93774023D01*
%TO.C,R17*%
X181602142Y-103355380D02*
X181268809Y-102879190D01*
X181030714Y-103355380D02*
X181030714Y-102355380D01*
X181411666Y-102355380D01*
X181506904Y-102403000D01*
X181554523Y-102450619D01*
X181602142Y-102545857D01*
X181602142Y-102688714D01*
X181554523Y-102783952D01*
X181506904Y-102831571D01*
X181411666Y-102879190D01*
X181030714Y-102879190D01*
X182554523Y-103355380D02*
X181983095Y-103355380D01*
X182268809Y-103355380D02*
X182268809Y-102355380D01*
X182173571Y-102498238D01*
X182078333Y-102593476D01*
X181983095Y-102641095D01*
X182887857Y-102355380D02*
X183554523Y-102355380D01*
X183125952Y-103355380D01*
%TO.C,C5*%
X149947333Y-100907142D02*
X149899714Y-100954761D01*
X149756857Y-101002380D01*
X149661619Y-101002380D01*
X149518761Y-100954761D01*
X149423523Y-100859523D01*
X149375904Y-100764285D01*
X149328285Y-100573809D01*
X149328285Y-100430952D01*
X149375904Y-100240476D01*
X149423523Y-100145238D01*
X149518761Y-100050000D01*
X149661619Y-100002380D01*
X149756857Y-100002380D01*
X149899714Y-100050000D01*
X149947333Y-100097619D01*
X150852095Y-100002380D02*
X150375904Y-100002380D01*
X150328285Y-100478571D01*
X150375904Y-100430952D01*
X150471142Y-100383333D01*
X150709238Y-100383333D01*
X150804476Y-100430952D01*
X150852095Y-100478571D01*
X150899714Y-100573809D01*
X150899714Y-100811904D01*
X150852095Y-100907142D01*
X150804476Y-100954761D01*
X150709238Y-101002380D01*
X150471142Y-101002380D01*
X150375904Y-100954761D01*
X150328285Y-100907142D01*
%TO.C,C3*%
X141692333Y-94049142D02*
X141644714Y-94096761D01*
X141501857Y-94144380D01*
X141406619Y-94144380D01*
X141263761Y-94096761D01*
X141168523Y-94001523D01*
X141120904Y-93906285D01*
X141073285Y-93715809D01*
X141073285Y-93572952D01*
X141120904Y-93382476D01*
X141168523Y-93287238D01*
X141263761Y-93192000D01*
X141406619Y-93144380D01*
X141501857Y-93144380D01*
X141644714Y-93192000D01*
X141692333Y-93239619D01*
X142025666Y-93144380D02*
X142644714Y-93144380D01*
X142311380Y-93525333D01*
X142454238Y-93525333D01*
X142549476Y-93572952D01*
X142597095Y-93620571D01*
X142644714Y-93715809D01*
X142644714Y-93953904D01*
X142597095Y-94049142D01*
X142549476Y-94096761D01*
X142454238Y-94144380D01*
X142168523Y-94144380D01*
X142073285Y-94096761D01*
X142025666Y-94049142D01*
%TO.C,R19*%
X148247380Y-95892857D02*
X147771190Y-96226190D01*
X148247380Y-96464285D02*
X147247380Y-96464285D01*
X147247380Y-96083333D01*
X147295000Y-95988095D01*
X147342619Y-95940476D01*
X147437857Y-95892857D01*
X147580714Y-95892857D01*
X147675952Y-95940476D01*
X147723571Y-95988095D01*
X147771190Y-96083333D01*
X147771190Y-96464285D01*
X148247380Y-94940476D02*
X148247380Y-95511904D01*
X148247380Y-95226190D02*
X147247380Y-95226190D01*
X147390238Y-95321428D01*
X147485476Y-95416666D01*
X147533095Y-95511904D01*
X148247380Y-94464285D02*
X148247380Y-94273809D01*
X148199761Y-94178571D01*
X148152142Y-94130952D01*
X148009285Y-94035714D01*
X147818809Y-93988095D01*
X147437857Y-93988095D01*
X147342619Y-94035714D01*
X147295000Y-94083333D01*
X147247380Y-94178571D01*
X147247380Y-94369047D01*
X147295000Y-94464285D01*
X147342619Y-94511904D01*
X147437857Y-94559523D01*
X147675952Y-94559523D01*
X147771190Y-94511904D01*
X147818809Y-94464285D01*
X147866428Y-94369047D01*
X147866428Y-94178571D01*
X147818809Y-94083333D01*
X147771190Y-94035714D01*
X147675952Y-93988095D01*
%TO.C,C8*%
X178522333Y-98562142D02*
X178474714Y-98609761D01*
X178331857Y-98657380D01*
X178236619Y-98657380D01*
X178093761Y-98609761D01*
X177998523Y-98514523D01*
X177950904Y-98419285D01*
X177903285Y-98228809D01*
X177903285Y-98085952D01*
X177950904Y-97895476D01*
X177998523Y-97800238D01*
X178093761Y-97705000D01*
X178236619Y-97657380D01*
X178331857Y-97657380D01*
X178474714Y-97705000D01*
X178522333Y-97752619D01*
X179093761Y-98085952D02*
X178998523Y-98038333D01*
X178950904Y-97990714D01*
X178903285Y-97895476D01*
X178903285Y-97847857D01*
X178950904Y-97752619D01*
X178998523Y-97705000D01*
X179093761Y-97657380D01*
X179284238Y-97657380D01*
X179379476Y-97705000D01*
X179427095Y-97752619D01*
X179474714Y-97847857D01*
X179474714Y-97895476D01*
X179427095Y-97990714D01*
X179379476Y-98038333D01*
X179284238Y-98085952D01*
X179093761Y-98085952D01*
X178998523Y-98133571D01*
X178950904Y-98181190D01*
X178903285Y-98276428D01*
X178903285Y-98466904D01*
X178950904Y-98562142D01*
X178998523Y-98609761D01*
X179093761Y-98657380D01*
X179284238Y-98657380D01*
X179379476Y-98609761D01*
X179427095Y-98562142D01*
X179474714Y-98466904D01*
X179474714Y-98276428D01*
X179427095Y-98181190D01*
X179379476Y-98133571D01*
X179284238Y-98085952D01*
%TO.C,C7*%
X110532446Y-121963142D02*
X110484827Y-122010761D01*
X110341970Y-122058380D01*
X110246732Y-122058380D01*
X110103874Y-122010761D01*
X110008636Y-121915523D01*
X109961017Y-121820285D01*
X109913398Y-121629809D01*
X109913398Y-121486952D01*
X109961017Y-121296476D01*
X110008636Y-121201238D01*
X110103874Y-121106000D01*
X110246732Y-121058380D01*
X110341970Y-121058380D01*
X110484827Y-121106000D01*
X110532446Y-121153619D01*
X110865779Y-121058380D02*
X111532446Y-121058380D01*
X111103874Y-122058380D01*
%TO.C,U2*%
X60368380Y-96143904D02*
X61177904Y-96143904D01*
X61273142Y-96096285D01*
X61320761Y-96048666D01*
X61368380Y-95953428D01*
X61368380Y-95762952D01*
X61320761Y-95667714D01*
X61273142Y-95620095D01*
X61177904Y-95572476D01*
X60368380Y-95572476D01*
X60463619Y-95143904D02*
X60416000Y-95096285D01*
X60368380Y-95001047D01*
X60368380Y-94762952D01*
X60416000Y-94667714D01*
X60463619Y-94620095D01*
X60558857Y-94572476D01*
X60654095Y-94572476D01*
X60796952Y-94620095D01*
X61368380Y-95191523D01*
X61368380Y-94572476D01*
%TO.C,J3*%
X184110380Y-103330333D02*
X184824666Y-103330333D01*
X184967523Y-103377952D01*
X185062761Y-103473190D01*
X185110380Y-103616047D01*
X185110380Y-103711285D01*
X184110380Y-102949380D02*
X184110380Y-102330333D01*
X184491333Y-102663666D01*
X184491333Y-102520809D01*
X184538952Y-102425571D01*
X184586571Y-102377952D01*
X184681809Y-102330333D01*
X184919904Y-102330333D01*
X185015142Y-102377952D01*
X185062761Y-102425571D01*
X185110380Y-102520809D01*
X185110380Y-102806523D01*
X185062761Y-102901761D01*
X185015142Y-102949380D01*
D13*
%TO.C,U1*%
X124747000Y-117121000D02*
X125247000Y-117121000D01*
D14*
X144747000Y-104296000D02*
X144747000Y-104621000D01*
D13*
X144747000Y-117121000D02*
X144247000Y-117121000D01*
X124747000Y-104621000D02*
X125247000Y-104621000D01*
X125497000Y-117371000D02*
X125247000Y-117121000D01*
X144247000Y-117121000D02*
X143997000Y-117371000D01*
X143997000Y-104371000D02*
X144247000Y-104621000D01*
X143997000Y-103871000D02*
X143997000Y-104371000D01*
D14*
X125172000Y-103871000D02*
X125747000Y-103871000D01*
X125172000Y-117871000D02*
X124747000Y-117446000D01*
X124747000Y-104296000D02*
X125172000Y-103871000D01*
D13*
X125497000Y-104371000D02*
X125747000Y-104371000D01*
D14*
X144322000Y-103871000D02*
X144747000Y-104296000D01*
X124747000Y-117446000D02*
X124747000Y-117121000D01*
D13*
X125747000Y-104371000D02*
X143997000Y-104371000D01*
X125247000Y-117121000D02*
X125247000Y-104621000D01*
X144247000Y-104621000D02*
X144247000Y-117121000D01*
D14*
X144747000Y-117446000D02*
X144322000Y-117871000D01*
X125497000Y-117871000D02*
X125172000Y-117871000D01*
X143997000Y-103871000D02*
X144322000Y-103871000D01*
X143997000Y-117871000D02*
X125497000Y-117871000D01*
X144747000Y-117121000D02*
X144747000Y-117446000D01*
X125747000Y-103871000D02*
X143997000Y-103871000D01*
D13*
X125247000Y-104621000D02*
X125497000Y-104371000D01*
D14*
X124747000Y-117121000D02*
X124747000Y-104621000D01*
X144322000Y-117871000D02*
X143997000Y-117871000D01*
D13*
X125497000Y-117871000D02*
X125497000Y-117371000D01*
D14*
X144747000Y-104621000D02*
X144747000Y-117121000D01*
D13*
X143997000Y-117371000D02*
X125497000Y-117371000D01*
X143997000Y-117371000D02*
X143997000Y-117871000D01*
D14*
X124747000Y-104621000D02*
X124747000Y-104296000D01*
D13*
X144747000Y-104621000D02*
X144247000Y-104621000D01*
X125747000Y-103871000D02*
X125747000Y-104371000D01*
D14*
X129107000Y-114971000D02*
G75*
G03*
X129107000Y-114971000I-1500000J0D01*
G01*
D15*
%TO.C,R18*%
X139167776Y-92597500D02*
X139677224Y-92597500D01*
X139167776Y-91552500D02*
X139677224Y-91552500D01*
%TO.C,R14*%
X114807276Y-120508500D02*
X115316724Y-120508500D01*
X114807276Y-121553500D02*
X115316724Y-121553500D01*
%TO.C,R16*%
X182499724Y-92568500D02*
X181990276Y-92568500D01*
X182499724Y-93613500D02*
X181990276Y-93613500D01*
%TO.C,Y1*%
X154805000Y-97573000D02*
X153955000Y-97573000D01*
X154805000Y-89123000D02*
X154805000Y-101123000D01*
X154685000Y-101123000D02*
X154685000Y-89123000D01*
X153955000Y-97573000D02*
X153955000Y-97573000D01*
X154805000Y-92673000D02*
X153955000Y-92673000D01*
X154685000Y-89123000D02*
X154805000Y-89123000D01*
X154805000Y-100773000D02*
X168205000Y-100773000D01*
X154805000Y-89473000D02*
X154805000Y-100773000D01*
X168205000Y-89473000D02*
X154805000Y-89473000D01*
X154805000Y-101123000D02*
X154685000Y-101123000D01*
X153955000Y-92673000D02*
X153955000Y-92673000D01*
X168205000Y-100773000D02*
X168205000Y-89473000D01*
%TO.C,U3*%
X118371000Y-96834000D02*
X128771000Y-96834000D01*
X118431000Y-92694000D02*
X118431000Y-94344000D01*
X118431000Y-94344000D02*
X128711000Y-94344000D01*
X118431000Y-89044000D02*
X118431000Y-90694000D01*
X128711000Y-89044000D02*
X118431000Y-89044000D01*
X128711000Y-94344000D02*
X128711000Y-89044000D01*
X128771000Y-86554000D02*
X118371000Y-86554000D01*
X128771000Y-96834000D02*
X128771000Y-86554000D01*
X118371000Y-86554000D02*
X118371000Y-96834000D01*
X118431000Y-92694000D02*
G75*
G03*
X118431000Y-90694000I0J1000000D01*
G01*
%TO.C,C6*%
X181917888Y-118283000D02*
X181917888Y-121493000D01*
X180036888Y-117312000D02*
X180036888Y-118848000D01*
X182197888Y-118710000D02*
X182197888Y-121066000D01*
X180797888Y-117474000D02*
X180797888Y-118848000D01*
X180356888Y-120928000D02*
X180356888Y-122424000D01*
X180957888Y-120928000D02*
X180957888Y-122236000D01*
X181477888Y-117853000D02*
X181477888Y-118848000D01*
X181157888Y-120928000D02*
X181157888Y-122135000D01*
X182277888Y-118877000D02*
X182277888Y-120899000D01*
X181397888Y-120928000D02*
X181397888Y-121983000D01*
X180957888Y-117540000D02*
X180957888Y-118848000D01*
X180516888Y-117387000D02*
X180516888Y-118848000D01*
X180837888Y-117490000D02*
X180837888Y-118848000D01*
X181877888Y-118235000D02*
X181877888Y-118848000D01*
X181517888Y-117884000D02*
X181517888Y-118848000D01*
X180917888Y-117523000D02*
X180917888Y-118848000D01*
X180276888Y-117338000D02*
X180276888Y-118848000D01*
X181117888Y-117620000D02*
X181117888Y-118848000D01*
X181597888Y-120928000D02*
X181597888Y-121825000D01*
X180196888Y-117327000D02*
X180196888Y-118848000D01*
X181757888Y-118103000D02*
X181757888Y-118848000D01*
X181197888Y-120928000D02*
X181197888Y-122112000D01*
X180156888Y-117323000D02*
X180156888Y-118848000D01*
X181837888Y-120928000D02*
X181837888Y-121587000D01*
X181597888Y-117951000D02*
X181597888Y-118848000D01*
X180316888Y-120928000D02*
X180316888Y-122431000D01*
X181677888Y-118024000D02*
X181677888Y-118848000D01*
X182077888Y-118505000D02*
X182077888Y-121271000D01*
X180436888Y-117368000D02*
X180436888Y-118848000D01*
X182397888Y-119211000D02*
X182397888Y-120565000D01*
X180236888Y-120928000D02*
X180236888Y-122444000D01*
X181637888Y-120928000D02*
X181637888Y-121789000D01*
X180597888Y-120928000D02*
X180597888Y-122368000D01*
X180556888Y-120928000D02*
X180556888Y-122379000D01*
X182037888Y-118445000D02*
X182037888Y-121331000D01*
X179996888Y-120928000D02*
X179996888Y-122466000D01*
X181157888Y-117641000D02*
X181157888Y-118848000D01*
X181637888Y-117987000D02*
X181637888Y-118848000D01*
X181757888Y-120928000D02*
X181757888Y-121673000D01*
X180116888Y-117319000D02*
X180116888Y-118848000D01*
X181557888Y-120928000D02*
X181557888Y-121859000D01*
X182357888Y-119083000D02*
X182357888Y-120693000D01*
X180036888Y-120928000D02*
X180036888Y-122464000D01*
X177322113Y-118163000D02*
X177322113Y-118663000D01*
X180837888Y-120928000D02*
X180837888Y-122286000D01*
X181957888Y-118334000D02*
X181957888Y-121442000D01*
X181717888Y-118062000D02*
X181717888Y-118848000D01*
X179876888Y-120928000D02*
X179876888Y-122468000D01*
X181317888Y-120928000D02*
X181317888Y-122037000D01*
X181877888Y-120928000D02*
X181877888Y-121541000D01*
X181357888Y-117766000D02*
X181357888Y-118848000D01*
X182117888Y-118569000D02*
X182117888Y-121207000D01*
X180116888Y-120928000D02*
X180116888Y-122457000D01*
X180917888Y-120928000D02*
X180917888Y-122253000D01*
X181797888Y-118145000D02*
X181797888Y-118848000D01*
X180717888Y-117446000D02*
X180717888Y-118848000D01*
X180276888Y-120928000D02*
X180276888Y-122438000D01*
X180316888Y-117345000D02*
X180316888Y-118848000D01*
X182437888Y-119370000D02*
X182437888Y-120406000D01*
X180677888Y-117433000D02*
X180677888Y-118848000D01*
X180356888Y-117352000D02*
X180356888Y-118848000D01*
X177072113Y-118413000D02*
X177572113Y-118413000D01*
X180997888Y-120928000D02*
X180997888Y-122217000D01*
X181357888Y-120928000D02*
X181357888Y-122010000D01*
X181077888Y-117598000D02*
X181077888Y-118848000D01*
X180476888Y-117377000D02*
X180476888Y-118848000D01*
X179876888Y-117308000D02*
X179876888Y-118848000D01*
X180877888Y-120928000D02*
X180877888Y-122270000D01*
X179916888Y-117308000D02*
X179916888Y-118848000D01*
X181997888Y-118388000D02*
X181997888Y-121388000D01*
X180877888Y-117506000D02*
X180877888Y-118848000D01*
X180516888Y-120928000D02*
X180516888Y-122389000D01*
X182477888Y-119604000D02*
X182477888Y-120172000D01*
X179996888Y-117310000D02*
X179996888Y-118848000D01*
X181277888Y-117713000D02*
X181277888Y-118848000D01*
X180076888Y-120928000D02*
X180076888Y-122461000D01*
X181277888Y-120928000D02*
X181277888Y-122063000D01*
X181517888Y-120928000D02*
X181517888Y-121892000D01*
X180476888Y-120928000D02*
X180476888Y-122399000D01*
X181397888Y-117793000D02*
X181397888Y-118848000D01*
X182157888Y-118637000D02*
X182157888Y-121139000D01*
X181717888Y-120928000D02*
X181717888Y-121714000D01*
X180556888Y-117397000D02*
X180556888Y-118848000D01*
X181317888Y-117739000D02*
X181317888Y-118848000D01*
X180597888Y-117408000D02*
X180597888Y-118848000D01*
X182317888Y-118973000D02*
X182317888Y-120803000D01*
X180757888Y-117460000D02*
X180757888Y-118848000D01*
X180196888Y-120928000D02*
X180196888Y-122449000D01*
X180637888Y-120928000D02*
X180637888Y-122356000D01*
X181477888Y-120928000D02*
X181477888Y-121923000D01*
X181557888Y-117917000D02*
X181557888Y-118848000D01*
X181837888Y-118189000D02*
X181837888Y-118848000D01*
X181237888Y-120928000D02*
X181237888Y-122088000D01*
X180236888Y-117332000D02*
X180236888Y-118848000D01*
X179916888Y-120928000D02*
X179916888Y-122468000D01*
X181197888Y-117664000D02*
X181197888Y-118848000D01*
X180396888Y-117360000D02*
X180396888Y-118848000D01*
X181437888Y-120928000D02*
X181437888Y-121953000D01*
X180396888Y-120928000D02*
X180396888Y-122416000D01*
X181037888Y-120928000D02*
X181037888Y-122198000D01*
X180757888Y-120928000D02*
X180757888Y-122316000D01*
X181437888Y-117823000D02*
X181437888Y-118848000D01*
X181797888Y-120928000D02*
X181797888Y-121631000D01*
X180637888Y-117420000D02*
X180637888Y-118848000D01*
X180797888Y-120928000D02*
X180797888Y-122302000D01*
X181117888Y-120928000D02*
X181117888Y-122156000D01*
X180156888Y-120928000D02*
X180156888Y-122453000D01*
X180717888Y-120928000D02*
X180717888Y-122330000D01*
X180076888Y-117315000D02*
X180076888Y-118848000D01*
X181037888Y-117578000D02*
X181037888Y-118848000D01*
X179956888Y-120928000D02*
X179956888Y-122467000D01*
X181677888Y-120928000D02*
X181677888Y-121752000D01*
X181237888Y-117688000D02*
X181237888Y-118848000D01*
X180436888Y-120928000D02*
X180436888Y-122408000D01*
X182237888Y-118790000D02*
X182237888Y-120986000D01*
X180677888Y-120928000D02*
X180677888Y-122343000D01*
X179956888Y-117309000D02*
X179956888Y-118848000D01*
X180997888Y-117559000D02*
X180997888Y-118848000D01*
X181077888Y-120928000D02*
X181077888Y-122178000D01*
X182496888Y-119888000D02*
G75*
G03*
X182496888Y-119888000I-2620000J0D01*
G01*
%TO.C,R15*%
X135113500Y-94209776D02*
X135113500Y-94719224D01*
X136158500Y-94209776D02*
X136158500Y-94719224D01*
%TO.C,R17*%
X182499724Y-100950500D02*
X181990276Y-100950500D01*
X182499724Y-101995500D02*
X181990276Y-101995500D01*
%TO.C,R19*%
X148702500Y-95504724D02*
X148702500Y-94995276D01*
X149747500Y-95504724D02*
X149747500Y-94995276D01*
%TO.C,C7*%
X110539113Y-116816000D02*
X110539113Y-115280000D01*
X109058113Y-119860000D02*
X109058113Y-118896000D01*
X109138113Y-116816000D02*
X109138113Y-115791000D01*
X109418113Y-120103000D02*
X109418113Y-118896000D01*
X109458113Y-116816000D02*
X109458113Y-115588000D01*
X110539113Y-120432000D02*
X110539113Y-118896000D01*
X109978113Y-116816000D02*
X109978113Y-115376000D01*
X108578113Y-119356000D02*
X108578113Y-116356000D01*
X110459113Y-116816000D02*
X110459113Y-115287000D01*
X109418113Y-116816000D02*
X109418113Y-115609000D01*
X109138113Y-119921000D02*
X109138113Y-118896000D01*
X110219113Y-116816000D02*
X110219113Y-115320000D01*
X110699113Y-120436000D02*
X110699113Y-118896000D01*
X109498113Y-120146000D02*
X109498113Y-118896000D01*
X108778113Y-119599000D02*
X108778113Y-118896000D01*
X109698113Y-120238000D02*
X109698113Y-118896000D01*
X110059113Y-120357000D02*
X110059113Y-118896000D01*
X108898113Y-116816000D02*
X108898113Y-115992000D01*
X110219113Y-120392000D02*
X110219113Y-118896000D01*
X110459113Y-120425000D02*
X110459113Y-118896000D01*
X110579113Y-120434000D02*
X110579113Y-118896000D01*
X109178113Y-119951000D02*
X109178113Y-118896000D01*
X110059113Y-116816000D02*
X110059113Y-115355000D01*
X110499113Y-116816000D02*
X110499113Y-115283000D01*
X110019113Y-120347000D02*
X110019113Y-118896000D01*
X108698113Y-119509000D02*
X108698113Y-118896000D01*
X109698113Y-116816000D02*
X109698113Y-115474000D01*
X108938113Y-116816000D02*
X108938113Y-115955000D01*
X110299113Y-116816000D02*
X110299113Y-115306000D01*
X110139113Y-120376000D02*
X110139113Y-118896000D01*
X110259113Y-116816000D02*
X110259113Y-115313000D01*
X110619113Y-120435000D02*
X110619113Y-118896000D01*
X109898113Y-116816000D02*
X109898113Y-115401000D01*
X108298113Y-118867000D02*
X108298113Y-116845000D01*
X109298113Y-116816000D02*
X109298113Y-115681000D01*
X110099113Y-120367000D02*
X110099113Y-118896000D01*
X109818113Y-120284000D02*
X109818113Y-118896000D01*
X109578113Y-116816000D02*
X109578113Y-115527000D01*
X109538113Y-116816000D02*
X109538113Y-115546000D01*
X109298113Y-120031000D02*
X109298113Y-118896000D01*
X109218113Y-116816000D02*
X109218113Y-115734000D01*
X110339113Y-116816000D02*
X110339113Y-115300000D01*
X109658113Y-120221000D02*
X109658113Y-118896000D01*
X108378113Y-119034000D02*
X108378113Y-116678000D01*
X109818113Y-116816000D02*
X109818113Y-115428000D01*
X109018113Y-116816000D02*
X109018113Y-115885000D01*
X108338113Y-118954000D02*
X108338113Y-116758000D01*
X110579113Y-116816000D02*
X110579113Y-115278000D01*
X110099113Y-116816000D02*
X110099113Y-115345000D01*
X108818113Y-116816000D02*
X108818113Y-116071000D01*
X108498113Y-119239000D02*
X108498113Y-116473000D01*
X109778113Y-120270000D02*
X109778113Y-118896000D01*
X108178113Y-118533000D02*
X108178113Y-117179000D01*
X110179113Y-120384000D02*
X110179113Y-118896000D01*
X110419113Y-120421000D02*
X110419113Y-118896000D01*
X109858113Y-120298000D02*
X109858113Y-118896000D01*
X109058113Y-116816000D02*
X109058113Y-115852000D01*
X108858113Y-116816000D02*
X108858113Y-116030000D01*
X108698113Y-116816000D02*
X108698113Y-116203000D01*
X108858113Y-119682000D02*
X108858113Y-118896000D01*
X109978113Y-120336000D02*
X109978113Y-118896000D01*
X108098113Y-118140000D02*
X108098113Y-117572000D01*
X110379113Y-116816000D02*
X110379113Y-115295000D01*
X109458113Y-120124000D02*
X109458113Y-118896000D01*
X110699113Y-116816000D02*
X110699113Y-115276000D01*
X108778113Y-116816000D02*
X108778113Y-116113000D01*
X109618113Y-120204000D02*
X109618113Y-118896000D01*
X108978113Y-119793000D02*
X108978113Y-118896000D01*
X108978113Y-116816000D02*
X108978113Y-115919000D01*
X110419113Y-116816000D02*
X110419113Y-115291000D01*
X108418113Y-119107000D02*
X108418113Y-116605000D01*
X110339113Y-120412000D02*
X110339113Y-118896000D01*
X110379113Y-120417000D02*
X110379113Y-118896000D01*
X110619113Y-116816000D02*
X110619113Y-115277000D01*
X109218113Y-119978000D02*
X109218113Y-118896000D01*
X109498113Y-116816000D02*
X109498113Y-115566000D01*
X108898113Y-119720000D02*
X108898113Y-118896000D01*
X109938113Y-116816000D02*
X109938113Y-115388000D01*
X110659113Y-116816000D02*
X110659113Y-115276000D01*
X108818113Y-119641000D02*
X108818113Y-118896000D01*
X110499113Y-120429000D02*
X110499113Y-118896000D01*
X109178113Y-116816000D02*
X109178113Y-115761000D01*
X110179113Y-116816000D02*
X110179113Y-115328000D01*
X109378113Y-116816000D02*
X109378113Y-115632000D01*
X109778113Y-116816000D02*
X109778113Y-115442000D01*
X110259113Y-120399000D02*
X110259113Y-118896000D01*
X109098113Y-116816000D02*
X109098113Y-115821000D01*
X109258113Y-116816000D02*
X109258113Y-115707000D01*
X110299113Y-120406000D02*
X110299113Y-118896000D01*
X108258113Y-118771000D02*
X108258113Y-116941000D01*
X108218113Y-118661000D02*
X108218113Y-117051000D01*
X110139113Y-116816000D02*
X110139113Y-115336000D01*
X109938113Y-120324000D02*
X109938113Y-118896000D01*
X109858113Y-116816000D02*
X109858113Y-115414000D01*
X109658113Y-116816000D02*
X109658113Y-115491000D01*
X109738113Y-116816000D02*
X109738113Y-115458000D01*
X113503888Y-119331000D02*
X113003888Y-119331000D01*
X109538113Y-120166000D02*
X109538113Y-118896000D01*
X109898113Y-120311000D02*
X109898113Y-118896000D01*
X108458113Y-119175000D02*
X108458113Y-116537000D01*
X108658113Y-119461000D02*
X108658113Y-116251000D01*
X108618113Y-119410000D02*
X108618113Y-116302000D01*
X108938113Y-119757000D02*
X108938113Y-118896000D01*
X109338113Y-120056000D02*
X109338113Y-118896000D01*
X108138113Y-118374000D02*
X108138113Y-117338000D01*
X109018113Y-119827000D02*
X109018113Y-118896000D01*
X109738113Y-120254000D02*
X109738113Y-118896000D01*
X109378113Y-120080000D02*
X109378113Y-118896000D01*
X108538113Y-119299000D02*
X108538113Y-116413000D01*
X109618113Y-116816000D02*
X109618113Y-115508000D01*
X113253888Y-119581000D02*
X113253888Y-119081000D01*
X109338113Y-116816000D02*
X109338113Y-115656000D01*
X110659113Y-120436000D02*
X110659113Y-118896000D01*
X109098113Y-119891000D02*
X109098113Y-118896000D01*
X109258113Y-120005000D02*
X109258113Y-118896000D01*
X109578113Y-120185000D02*
X109578113Y-118896000D01*
X110019113Y-116816000D02*
X110019113Y-115365000D01*
X108738113Y-116816000D02*
X108738113Y-116157000D01*
X108738113Y-119555000D02*
X108738113Y-118896000D01*
X113319113Y-117856000D02*
G75*
G03*
X113319113Y-117856000I-2620000J0D01*
G01*
%TO.C,U2*%
X61916000Y-101842000D02*
X102676000Y-101842000D01*
X61916000Y-96382000D02*
X61916000Y-101842000D01*
X102676000Y-88922000D02*
X61916000Y-88922000D01*
X61916000Y-88922000D02*
X61916000Y-94382000D01*
X102676000Y-101842000D02*
X102676000Y-88922000D01*
X61916000Y-96382000D02*
G75*
G03*
X61916000Y-94382000I0J1000000D01*
G01*
D14*
%TO.C,J3*%
X185923000Y-90487000D02*
X195733000Y-90487000D01*
X203073000Y-106617000D02*
X199303000Y-106617000D01*
X203073000Y-90487000D02*
X203073000Y-106617000D01*
X199303000Y-90487000D02*
X203073000Y-90487000D01*
X195733000Y-106617000D02*
X185923000Y-106617000D01*
X185923000Y-91952000D02*
X185923000Y-90487000D01*
X185923000Y-100402000D02*
X185923000Y-96652000D01*
X185923000Y-106617000D02*
X185923000Y-105052000D01*
D16*
X191793000Y-89672000D02*
G75*
G03*
X191793000Y-89672000I-100000J0D01*
G01*
%TD*%
M02*
